SplineFontDB: 3.0
FontName: Umpush-BoldOblique
FullName: Umpush Bold Oblique
FamilyName: Umpush
Weight: Bold
Copyright: Copyright (c) 2003 NECTEC. All rights reserved.\nCopyright (c) 2007 Widhaya Trisarnwadhana. All rights reserved.\nModified under GNU General Public License by TLWG.
Version: 0.9.13: 2012-01-06
ItalicAngle: -10
UnderlinePosition: -170
UnderlineWidth: 10
Ascent: 1638
Descent: 410
LayerCount: 2
Layer: 0 0 "Back"  1
Layer: 1 0 "Fore"  0
NeedsXUIDChange: 1
FSType: 0
OS2Version: 0
OS2_WeightWidthSlopeOnly: 0
OS2_UseTypoMetrics: 0
CreationTime: 1153662462
ModificationTime: 1328517699
PfmFamily: 33
TTFWeight: 700
TTFWidth: 5
LineGap: 0
VLineGap: 0
Panose: 2 11 6 4 2 2 2 2 2 4
OS2TypoAscent: 0
OS2TypoAOffset: 1
OS2TypoDescent: 0
OS2TypoDOffset: 1
OS2TypoLinegap: 0
OS2WinAscent: 0
OS2WinAOffset: 1
OS2WinDescent: 0
OS2WinDOffset: 1
HheadAscent: 0
HheadAOffset: 1
HheadDescent: 0
HheadDOffset: 1
OS2Vendor: 'PfEd'
Lookup: 4 0 1 "'liga' Standard Ligatures lookup 0"  {"'liga' Standard Ligatures lookup 0"  } ['liga' ('latn' <'dflt' > ) ]
Lookup: 6 0 0 "'ccmp' Thai Conditional Descender Removal"  {"'ccmp' Thai Conditional Descender Removal"  } ['ccmp' ('DFLT' <'dflt' > 'thai' <'KUY ' 'PAL ' 'THA ' 'dflt' > ) ]
Lookup: 6 0 0 "'ccmp' Thai General Composition"  {"'ccmp' Thai Below Vowel Tone Reordering"  "'ccmp' Thai General Composition"  } ['ccmp' ('DFLT' <'dflt' > 'thai' <'KUY ' 'PAL ' 'THA ' 'dflt' > ) ]
Lookup: 5 0 0 "Required Thai Descender Removal"  {"Required Thai Descender Removal"  } [' RQD' ('thai' <'PAL ' > ) ]
Lookup: 1 0 0 "Thai Descender Removal Single Substitution"  {"Thai Descender Removal Single Substitution" ("descless" ) } []
Lookup: 2 0 0 "Thai Sara Am Decomposition"  {"Thai Sara Am Decomposition"  } []
Lookup: 2 0 0 "Thai Tone Nikhahit Attachment"  {"Thai Tone Nikhahit Attachment"  } []
Lookup: 1 0 0 "Thai Sara Am Lakkhang"  {"Thai Sara Am Lakkhang"  } []
Lookup: 1 0 0 "Thai Tone Low Variant"  {"Thai Tone Low Variant" ("low" ) } []

StartChar: .notdef
Encoding: 65536 -1 0
Width: 1536
Flags: W
HStem: 0 32<294 1254> 1248 32<508 1468>
DStem2: 256 0 288.358 0 0.173648 0.984808<38.1125 1272.8> 1248.36 0 1280 0 0.173648 0.984808<32.4937 1267.18>
LayerCount: 2
Fore
SplineSet
256 0 m 1
 482 1280 l 1
 1506 1280 l 1
 1280 0 l 1
 256 0 l 1
294 32 m 1
 1254 32 l 1
 1468 1248 l 1
 508 1248 l 1
 294 32 l 1
EndSplineSet
EndChar

StartChar: uni0E4D.high
Encoding: 63262 63262 2
Width: 0
VWidth: 2558
Flags: W
HStem: 2106 72<74.583 204.805> 2334 74<88.6836 223.277>
VStem: -3 70<2186 2311.8> 229 71<2203.12 2326.1>
AnchorPoint: "AboveMark" 125 2120 mark 0
LayerCount: 2
Fore
SplineSet
-3 2228 m 0
 -3 2314 75 2408 177 2408 c 0
 248 2408 300 2357 300 2283 c 0
 300 2181 205 2106 123 2106 c 0
 56 2106 -3 2154 -3 2228 c 0
163 2334 m 0
 105 2334 67 2285 67 2242 c 0
 67 2203 100 2178 134 2178 c 0
 176 2178 229 2219 229 2270 c 0
 229 2313 195 2334 163 2334 c 0
EndSplineSet
EndChar

StartChar: exclam
Encoding: 33 33 5
Width: 569
Flags: W
HStem: 0 194<210 400> 1430 20G<420.452 664>
VStem: 276 153<365 423.639>
DStem2: 176 0 400 0 0.173648 0.984808<38.8972 196.957 565.496 1471.04>
LayerCount: 2
Fore
SplineSet
344 999 m 1
 424 1450 l 1
 664 1450 l 1
 584 999 l 1
 429 365 l 1
 276 365 l 1
 344 999 l 1
210 194 m 1
 434 194 l 1
 400 0 l 1
 176 0 l 1
 210 194 l 1
EndSplineSet
EndChar

StartChar: quotedbl
Encoding: 34 34 6
Width: 727
Flags: W
HStem: 947 503<362 458 645 739>
VStem: 323 552
LayerCount: 2
Fore
SplineSet
323 947 m 1
 321 1217 l 1
 362 1450 l 1
 592 1450 l 1
 551 1217 l 1
 458 947 l 1
 323 947 l 1
604 947 m 1
 604 1217 l 1
 645 1450 l 1
 875 1450 l 1
 834 1217 l 1
 739 947 l 1
 604 947 l 1
EndSplineSet
EndChar

StartChar: numbersign
Encoding: 35 35 7
Width: 1139
Flags: W
HStem: -10 21G<55 302.68 514 768.573> 365 220<124 199 524 658 987 1177> 875 220<214 395 720 854 1181 1267> 1450 20G<616.32 864 1075.32 1323>
DStem2: 55 -10 295 -10 0.358852 0.933394<86.1245 401.698 723.671 948.064 1270.04 1585.61> 514 -10 761 -10 0.358852 0.933394<88.6365 401.698 725.107 948.064 1270.76 1585.61>
LayerCount: 2
Fore
SplineSet
295 -10 m 1
 55 -10 l 1
 199 365 l 1
 85 365 l 1
 124 585 l 1
 284 585 l 1
 395 875 l 1
 175 875 l 1
 214 1095 l 1
 480 1095 l 1
 624 1470 l 1
 864 1470 l 1
 720 1095 l 1
 939 1095 l 1
 1083 1470 l 1
 1323 1470 l 1
 1181 1095 l 1
 1306 1095 l 1
 1267 875 l 1
 1097 875 l 1
 987 585 l 1
 1216 585 l 1
 1177 365 l 1
 903 365 l 1
 761 -10 l 1
 514 -10 l 1
 658 365 l 1
 439 365 l 1
 295 -10 l 1
854 875 m 1
 635 875 l 1
 524 585 l 1
 743 585 l 1
 854 875 l 1
EndSplineSet
EndChar

StartChar: dollar
Encoding: 36 36 8
Width: 1139
Flags: W
VStem: 140 244<232.788 417> 280 239<879.38 1122.61> 877 244<289.492 558.321> 954 244<1050.75 1173.55>
DStem2: 419 -137 659 -137 0.173648 0.984808<41.6756 104.561 380.847 771.806 1011.26 1354.54 1628.68 1669.38>
LayerCount: 2
Fore
SplineSet
659 -137 m 1x20
 419 -137 l 1
 437 -34 l 1
 242 -3 140 108 140 304 c 3
 140 339 144 377 150 417 c 1
 390 417 l 1
 386 395 384 375 384 356 c 3xa0
 384 279 415 225 478 198 c 1
 553 625 l 1
 399 667 280 762 280 945 c 3
 280 1217 452 1386 694 1425 c 1
 709 1507 l 1
 949 1507 l 1
 934 1426 l 1
 1110 1399 1198 1302 1198 1124 c 3
 1198 1101 1196 1076 1193 1050 c 1
 953 1050 l 1
 954 1056 954 1063 954 1069 c 3x50
 954 1114 938 1160 892 1188 c 1
 826 811 l 1
 965 781 1121 708 1121 492 c 3
 1121 195 930 10 677 -32 c 1
 659 -137 l 1x20
718 197 m 1
 815 232 877 320 877 453 c 3
 877 528 844 563 786 582 c 1
 718 197 l 1
594 859 m 1
 654 1197 l 1
 581 1171 519 1091 519 971 c 3x40
 519 918 549 881 594 859 c 1
EndSplineSet
EndChar

StartChar: percent
Encoding: 37 37 9
Width: 1821
Flags: W
HStem: -55 172<1325.14 1486.15> -10 21G<409 699.644> 548 172<1393.39 1554.37> 716 172<512.143 673.151> 1319 172<580.388 741.37>
VStem: 304 192<903.473 1214.28> 758 192<993.227 1303.65> 1117 192<132.473 443.276> 1571 192<222.227 532.653>
DStem2: 409 -10 686 -10 0.563559 0.826076<156.106 1817.02>
LayerCount: 2
Fore
SplineSet
1371 -55 m 3xaf80
 1198 -55 1117 55 1117 223 c 3
 1117 506 1275 720 1508 720 c 3
 1681 720 1763 610 1763 442 c 3
 1763 160 1604 -55 1371 -55 c 3xaf80
1571 421 m 3
 1571 510 1536 548 1478 548 c 3
 1388 548 1309 415 1309 245 c 3
 1309 156 1344 117 1402 117 c 3
 1492 117 1571 251 1571 421 c 3
558 716 m 3x1f80
 385 716 304 826 304 994 c 3
 304 1277 462 1491 695 1491 c 3
 868 1491 950 1381 950 1213 c 3
 950 931 791 716 558 716 c 3x1f80
758 1192 m 3
 758 1281 723 1319 665 1319 c 3
 575 1319 496 1186 496 1016 c 3
 496 927 531 888 589 888 c 3
 679 888 758 1022 758 1192 c 3
1433 1491 m 1
 1710 1491 l 1
 686 -10 l 1
 409 -10 l 1x4f80
 1433 1491 l 1
EndSplineSet
EndChar

StartChar: ampersand
Encoding: 38 38 10
Width: 1366
Flags: W
HStem: -13 220<452.028 765.882> 1262 220<751.201 929.156>
VStem: 153 245<259.985 504.513> 468 245<1006.81 1227.05> 942 246<1060.45 1248.04>
LayerCount: 2
Fore
SplineSet
863 812 m 1
 1018 522 l 1
 1058 579 1093 648 1123 727 c 1
 1335 649 l 1
 1287 540 1228 442 1158 357 c 1
 1210 270 1272 195 1347 132 c 1
 1161 -67 l 1
 1097 -19 1035 50 973 140 c 1
 946 115 792 -13 574 -13 c 3
 256 -13 153 177 153 338 c 3
 153 577 316 739 556 843 c 1
 504 921 468 992 468 1083 c 3
 468 1320 671 1482 898 1482 c 3
 1062 1482 1188 1380 1188 1224 c 3
 1188 1021 1038 898 863 812 c 1
850 1262 m 0
 786 1262 713 1213 713 1131 c 3
 713 1088 735 1034 781 974 c 1
 864 1013 942 1076 942 1171 c 3
 942 1213 915 1262 850 1262 c 0
398 385 m 3
 398 321 429 207 576 207 c 3
 675 207 793 239 857 326 c 1
 647 662 l 1
 499 583 398 498 398 385 c 3
EndSplineSet
EndChar

StartChar: quotesingle
Encoding: 39 39 11
Width: 391
Flags: W
HStem: 947 519<319 443>
VStem: 274 308
LayerCount: 2
Fore
SplineSet
274 947 m 1
 276 1221 l 1
 319 1466 l 1
 582 1466 l 1
 539 1221 l 1
 443 947 l 1
 274 947 l 1
EndSplineSet
EndChar

StartChar: parenleft
Encoding: 40 40 12
Width: 682
Flags: W
VStem: 154 272<-45.5043 640.992>
LayerCount: 2
Fore
SplineSet
919 1491 m 1
 679 1177 426 814 426 258 c 3
 426 28 477 -202 580 -431 c 1
 360 -431 l 1
 248 -247 154 9 154 298 c 3
 154 780 391 1158 699 1491 c 1
 919 1491 l 1
EndSplineSet
EndChar

StartChar: parenright
Encoding: 41 41 13
Width: 682
Flags: W
VStem: 447 271<446.688 1108.05>
LayerCount: 2
Fore
SplineSet
289 1491 m 1
 509 1491 l 1
 637 1266 718 1049 718 785 c 3
 718 274 438 -153 170 -431 c 1
 -50 -431 l 1
 267 -34 447 359 447 840 c 3
 447 1103 374 1284 289 1491 c 1
EndSplineSet
EndChar

StartChar: asterisk
Encoding: 42 42 14
Width: 797
Flags: W
HStem: 1176 181<771.374 916.792>
VStem: 272 654
LayerCount: 2
Fore
SplineSet
741 1491 m 1
 728 1416 718 1361 700 1284 c 1
 765 1316 845 1335 916 1357 c 1
 926 1176 l 1
 857 1161 784 1149 713 1136 c 1
 732 1115 771 1059 829 968 c 1
 659 862 l 1
 622 915 597 981 576 1041 c 1
 533 981 484 915 429 862 c 1
 297 968 l 1
 387 1059 444 1115 471 1136 c 1
 404 1149 335 1161 272 1176 c 1
 346 1357 l 1
 409 1335 483 1316 536 1284 c 1
 546 1361 556 1416 569 1491 c 1
 741 1491 l 1
EndSplineSet
EndChar

StartChar: plus
Encoding: 43 43 15
Width: 1196
Flags: W
HStem: 614 220<261 586 865 1190>
DStem2: 520 237 760 237 0.173648 0.984808<41.6756 382.733 647.839 983.973>
LayerCount: 2
Fore
SplineSet
520 237 m 1
 586 614 l 1
 222 614 l 1
 261 834 l 1
 625 834 l 1
 691 1206 l 1
 931 1206 l 1
 865 834 l 1
 1229 834 l 1
 1190 614 l 1
 826 614 l 1
 760 237 l 1
 520 237 l 1
EndSplineSet
EndChar

StartChar: comma
Encoding: 44 44 16
Width: 569
Flags: W
HStem: -300 531
VStem: 74 386
LayerCount: 2
Fore
SplineSet
118 -22 m 1
 163 231 l 1
 460 231 l 1
 415 -22 l 2
 383 -201 308 -258 215 -300 c 1
 74 -207 l 1
 190 -159 230 -65 240 -22 c 1
 118 -22 l 1
EndSplineSet
EndChar

StartChar: hyphen
Encoding: 45 45 17
Width: 682
Flags: W
HStem: 411 220<176 690>
VStem: 137 592
LayerCount: 2
Fore
SplineSet
137 411 m 1
 176 631 l 1
 729 631 l 1
 690 411 l 1
 137 411 l 1
EndSplineSet
EndChar

StartChar: period
Encoding: 46 46 18
Width: 569
Flags: W
HStem: 0 220<193 430>
VStem: 154 315
LayerCount: 2
Fore
SplineSet
154 0 m 1
 193 220 l 1
 469 220 l 1
 430 0 l 1
 154 0 l 1
EndSplineSet
EndChar

StartChar: slash
Encoding: 47 47 19
Width: 595
Flags: W
HStem: -10 21G<-112 139.446> 1450 20G<723.554 975>
DStem2: -112 -10 128 -10 0.496707 0.867918<119.21 1705.23>
LayerCount: 2
Fore
SplineSet
-112 -10 m 1
 735 1470 l 1
 975 1470 l 1
 128 -10 l 1
 -112 -10 l 1
EndSplineSet
EndChar

StartChar: zero
Encoding: 48 48 20
Width: 1139
Flags: W
HStem: -13 220<485.731 709.364> 1262 220<669.961 892.703>
VStem: 187 240<268.19 830.573> 957 241<632.3 1193.56>
LayerCount: 2
Fore
SplineSet
558 -13 m 3
 297 -13 187 155 187 443 c 3
 187 973 405 1482 821 1482 c 3
 1082 1482 1198 1307 1198 1019 c 3
 1198 489 974 -13 558 -13 c 3
783 1262 m 3
 530 1262 427 766 427 462 c 3
 427 286 482 207 596 207 c 3
 849 207 957 694 957 998 c 3
 957 1174 897 1262 783 1262 c 3
EndSplineSet
EndChar

StartChar: one
Encoding: 49 49 21
Width: 1139
Flags: W
HStem: 0 21G<523 766.533> 1452 20G<739.5 1023>
VStem: 372 651
DStem2: 523 0 763 0 0.173648 0.984808<41.6756 1061.08 1354.96 1494.79>
LayerCount: 2
Fore
SplineSet
418 1104 m 1
 598 1183 696 1274 783 1472 c 1
 1023 1472 l 1
 763 0 l 1
 523 0 l 1
 707 1045 l 1
 563 908 434 858 372 844 c 1
 418 1104 l 1
EndSplineSet
EndChar

StartChar: two
Encoding: 50 50 22
Width: 1139
Flags: W
HStem: 0 220<421 1031> 1262 220<639.023 924.196>
VStem: 279 240<1039 1146.17> 984 242<961.713 1205.97>
LayerCount: 2
Fore
SplineSet
833 1482 m 3
 1080 1482 1226 1350 1226 1152 c 3
 1226 719 643 486 421 220 c 1
 1070 220 l 1
 1031 0 l 1
 62 0 l 1
 110 186 247 355 359 450 c 0
 601 657 984 859 984 1106 c 3
 984 1201 889 1262 791 1262 c 3
 646 1262 550 1175 519 1039 c 1
 279 1039 l 1
 326 1307 545 1482 833 1482 c 3
EndSplineSet
EndChar

StartChar: three
Encoding: 51 51 23
Width: 1139
Flags: W
HStem: -13 220<474.763 749.731> 665 220<597 813.189> 1070 21G<293 549> 1262 220<634.028 886.215>
VStem: 154 247<279.51 427> 887 249<339.167 594.959> 934 243<984.384 1212.96>
LayerCount: 2
Fore
SplineSet
550 -13 m 3xfc
 323 -13 154 131 154 348 c 3
 154 373 156 400 161 427 c 1
 401 427 l 1
 401 295 482 207 590 207 c 3
 758 207 887 328 887 481 c 3xfc
 887 592 791 665 654 665 c 3
 621 665 589 660 556 651 c 1
 597 885 l 1
 817 888 934 960 934 1124 c 3
 934 1201 850 1262 772 1262 c 3
 661 1262 565 1191 533 1070 c 1
 293 1070 l 1
 334 1305 557 1482 806 1482 c 3
 1024 1482 1177 1358 1177 1168 c 3xfa
 1177 967 1080 839 952 794 c 1
 1079 773 1136 691 1136 559 c 3
 1136 221 864 -13 550 -13 c 3xfc
EndSplineSet
EndChar

StartChar: four
Encoding: 52 52 24
Width: 1139
Flags: W
HStem: 0 21G<652 895.547> 327 220<417 710 988 1128> 1452 20G<895.568 1152>
DStem2: 152 547 417 547 0.634829 0.772653<168.23 847.538> 652 0 892 0 0.173648 0.984808<41.6756 332.104 597.036 1093.63>
LayerCount: 2
Fore
SplineSet
652 0 m 1
 710 327 l 1
 114 327 l 1
 152 547 l 1
 912 1472 l 1
 1152 1472 l 1
 988 547 l 1
 1166 547 l 1
 1128 327 l 1
 950 327 l 1
 892 0 l 1
 652 0 l 1
748 547 m 1
 842 1077 l 1
 417 547 l 1
 748 547 l 1
EndSplineSet
EndChar

StartChar: five
Encoding: 53 53 25
Width: 1139
Flags: W
HStem: -13 220<448.277 746.708> 774 220<597.162 843.569> 1230 220<677 1205>
VStem: 156 240<260.962 412> 911 245<385.932 704.83>
DStem2: 241 705 569 937 0.34518 0.938537<60.1243 134.585 330.959 643.23>
LayerCount: 2
Fore
SplineSet
592 207 m 3
 772 207 911 356 911 568 c 3
 911 704 832 774 689 774 c 3
 594 774 540 745 475 683 c 1
 241 705 l 1
 515 1450 l 1
 1244 1450 l 1
 1205 1230 l 1
 677 1230 l 1
 569 937 l 1
 649 975 698 994 766 994 c 3
 1018 994 1156 833 1156 612 c 3
 1156 247 888 -13 554 -13 c 3
 287 -13 156 135 156 366 c 3
 156 381 157 396 158 412 c 1
 398 412 l 1
 397 400 396 389 396 378 c 3
 396 235 514 207 592 207 c 3
EndSplineSet
EndChar

StartChar: six
Encoding: 54 54 26
Width: 1139
Flags: W
HStem: -13 220<496.711 754.074> 757 220<568.569 836.048> 1262 220<674.154 948.253>
VStem: 177 253<273.061 606.555> 898 241<361.169 691.547>
LayerCount: 2
Fore
SplineSet
864 1482 m 3
 1073 1482 1219 1361 1219 1173 c 0
 1219 1151 1217 1127 1213 1103 c 1
 1001 1104 l 1
 987 1222 902 1262 823 1262 c 3
 645 1262 522 1112 468 858 c 1
 547 937 645 977 761 977 c 3
 998 977 1139 805 1139 580 c 3
 1139 247 894 -13 584 -13 c 3
 273 -13 177 201 177 457 c 3
 177 904 378 1482 864 1482 c 3
706 757 m 3
 552 757 430 617 430 417 c 3
 430 297 490 207 616 207 c 3
 775 207 898 353 898 551 c 3
 898 672 833 757 706 757 c 3
EndSplineSet
EndChar

StartChar: seven
Encoding: 55 55 27
Width: 1139
Flags: W
HStem: 0 21G<262 514> 1230 220<353 981>
VStem: 262 240<0 165.702>
LayerCount: 2
Fore
SplineSet
314 1230 m 1
 353 1450 l 1
 1302 1450 l 1
 1263 1230 l 1
 1154 1136 879 856 788 692 c 0
 588 328 526 138 502 0 c 1
 262 0 l 1
 305 243 417 502 592 776 c 0
 662 885 820 1069 981 1230 c 1
 314 1230 l 1
EndSplineSet
EndChar

StartChar: eight
Encoding: 56 56 28
Width: 1139
Flags: W
HStem: -13 220<458.442 764.923> 666 220<609.107 837.187> 1262 220<662.925 904.794>
VStem: 152 244<268.679 548.191> 328 240<922.488 1167.83> 892 243<337.986 613.087> 942 244<974.841 1221.08>
LayerCount: 2
Fore
SplineSet
564 -13 m 3xe4
 340 -13 152 108 152 345 c 3xf4
 152 607 303 745 499 794 c 1
 374 844 328 924 328 1018 c 3
 328 1299 578 1482 827 1482 c 3
 1044 1482 1186 1352 1186 1155 c 3xea
 1186 977 1108 862 913 794 c 1
 1052 756 1135 673 1135 523 c 3
 1135 170 831 -13 564 -13 c 3xe4
789 1262 m 3
 684 1262 568 1181 568 1033 c 3
 568 946 623 886 722 886 c 3
 846 886 942 982 942 1116 c 3xea
 942 1212 874 1262 789 1262 c 3
602 207 m 3
 775 207 892 323 892 493 c 3
 892 608 819 666 683 666 c 3
 518 666 396 570 396 386 c 3xf4
 396 280 466 207 602 207 c 3
EndSplineSet
EndChar

StartChar: nine
Encoding: 57 57 29
Width: 1139
Flags: W
HStem: -13 220<474.109 758.912> 495 220<584.499 854.363> 1262 220<661.916 927.634>
VStem: 188 246<248.144 369> 277 244<777.9 1106.68> 984 256<872.054 1204.67>
LayerCount: 2
Fore
SplineSet
553 -13 m 3xec
 334 -13 188 109 188 300 c 3
 188 322 190 345 194 369 c 1
 434 369 l 1xf4
 434 266 491 207 602 207 c 3
 809 207 878 358 927 579 c 1
 849 513 773 495 651 495 c 3
 421 495 277 655 277 880 c 3
 277 1232 540 1482 833 1482 c 3
 1145 1482 1240 1269 1240 1013 c 3
 1240 554 1034 -13 553 -13 c 3xec
802 1262 m 3
 637 1262 521 1110 521 919 c 3xec
 521 792 591 715 710 715 c 3
 909 715 984 907 984 1058 c 3
 984 1177 926 1262 802 1262 c 3
EndSplineSet
EndChar

StartChar: colon
Encoding: 58 58 30
Width: 569
Flags: W
HStem: 0 230<201 415> 832 230<347 562>
VStem: 160 442
DStem2: 160 0 415 0 0.173648 0.984808<44.2803 233.625 889.167 1078.34>
LayerCount: 2
Fore
SplineSet
307 832 m 1
 347 1062 l 1
 602 1062 l 1
 562 832 l 1
 307 832 l 1
160 0 m 1
 201 230 l 1
 456 230 l 1
 415 0 l 1
 160 0 l 1
EndSplineSet
EndChar

StartChar: semicolon
Encoding: 59 59 31
Width: 569
Flags: W
HStem: 832 230<344 559>
VStem: 107 492
DStem2: 104.631 -297 359.631 -297 0.173648 0.984808<322.956 509.719 1190.75 1379.92>
LayerCount: 2
Fore
SplineSet
304 832 m 1
 344 1062 l 1
 599 1062 l 1
 559 832 l 1
 304 832 l 1
157 0 m 1
 193 205 l 1
 448 205 l 1
 412 0 l 2
 383 -163 319 -262 218 -297 c 1
 107 -213 l 1
 182 -182 234 -120 259 0 c 1
 157 0 l 1
EndSplineSet
EndChar

StartChar: less
Encoding: 60 60 32
Width: 1196
Flags: W
DStem2: 551 724 225 641 0.907752 -0.419507<0 668.392> 255 809 551 724 0.930676 0.365846<244.383 999.686>
LayerCount: 2
Fore
SplineSet
225 641 m 1
 255 809 l 1
 1298 1219 l 1
 1258 990 l 1
 551 724 l 1
 1163 455 l 1
 1123 226 l 1
 225 641 l 1
EndSplineSet
EndChar

StartChar: equal
Encoding: 61 61 33
Width: 1196
Flags: W
HStem: 416 220<226 1155> 811 220<296 1225>
LayerCount: 2
Fore
SplineSet
1225 811 m 1
 257 811 l 1
 296 1031 l 1
 1264 1031 l 1
 1225 811 l 1
1155 416 m 1
 187 416 l 1
 226 636 l 1
 1194 636 l 1
 1155 416 l 1
EndSplineSet
EndChar

StartChar: greater
Encoding: 62 62 34
Width: 1196
Flags: W
DStem2: 192 455 152 226 0.929273 0.369395<0 736.848> 327 1219 287 990 0.909846 -0.414946<58.6289 706.724>
LayerCount: 2
Fore
SplineSet
1196 641 m 1
 152 226 l 1
 192 455 l 1
 878 724 l 1
 287 990 l 1
 327 1219 l 1
 1226 809 l 1
 1196 641 l 1
EndSplineSet
EndChar

StartChar: question
Encoding: 63 63 35
Width: 1139
Flags: W
HStem: 0 235<462 695> 1284 220<667.129 929.822>
VStem: 991 243<979.425 1229.28>
DStem2: 462 235 736 235 0.115564 0.9933<-206.499 0 156.936 288.009>
LayerCount: 2
Fore
SplineSet
830 1504 m 3
 1071 1504 1234 1373 1234 1163 c 3
 1234 1058 1214 950 1033 782 c 0
 918 676 776 580 737 361 c 1
 497 361 l 1
 542 615 660 714 772 803 c 0
 963 956 991 1041 991 1124 c 3
 991 1249 862 1284 794 1284 c 3
 667 1284 529 1133 514 1046 c 1
 274 1046 l 1
 319 1300 558 1504 830 1504 c 3
421 0 m 1
 462 235 l 1
 736 235 l 1
 695 0 l 1
 421 0 l 1
EndSplineSet
EndChar

StartChar: at
Encoding: 64 64 36
Width: 2079
Flags: W
HStem: -428 200<766.636 1403.07> -13 200<843.475 1059.64 1276.5 1557.43> 895 200<1031.86 1290.36> 1042 20G<1487.45 1710> 1282 200<1054.34 1561.41>
VStem: 176 227<100.697 604.61> 572 225<235.394 593.552> 1329 81<240 727> 1871 224<594.352 996.57>
LayerCount: 2
Fore
SplineSet
1352 -13 m 3xdf80
 1201 -13 1182 50 1182 121 c 1
 1095 28 985 -13 852 -13 c 3
 668 -13 572 135 572 336 c 3
 572 744 907 1095 1204 1095 c 3xef80
 1391 1095 1439 988 1443 938 c 1
 1496 1062 l 1
 1710 1062 l 1
 1447 379 l 2
 1433 343 1410 291 1410 240 c 3
 1410 210 1421 187 1455 187 c 3
 1654 187 1871 530 1871 811 c 3
 1871 1106 1610 1282 1326 1282 c 3
 729 1282 403 753 403 333 c 3
 403 57 549 -228 1080 -228 c 3
 1405 -228 1548 -142 1751 19 c 1
 2008 19 l 1
 1828 -253 1470 -428 1048 -428 c 3
 506 -428 176 -189 176 271 c 3
 176 967 707 1482 1363 1482 c 3
 1798 1482 2095 1242 2095 858 c 3
 2095 416 1719 -13 1352 -13 c 3xdf80
797 383 m 3
 797 245 867 187 939 187 c 3
 1143 187 1329 467 1329 727 c 3
 1329 866 1248 895 1171 895 c 3
 951 895 797 617 797 383 c 3
EndSplineSet
EndChar

StartChar: A
Encoding: 65 65 37
Width: 1366
Flags: W
HStem: 0 21G<1 266.501 1104.52 1363> 433 220<631 963> 1430 20G<824.483 1044.46>
DStem2: 1 0 255 0 0.499032 0.866583<126.754 626.244 880.269 1361.4> 1040 1450 871 1070 0.217429 -0.976076<334.163 761.191 986.581 1430.31>
LayerCount: 2
Fore
SplineSet
631 653 m 1
 963 653 l 1
 871 1070 l 1
 631 653 l 1
1040 1450 m 1
 1363 0 l 1
 1109 0 l 1
 1012 433 l 1
 504 433 l 1
 255 0 l 1
 1 0 l 1
 836 1450 l 1
 1040 1450 l 1
EndSplineSet
EndChar

StartChar: B
Encoding: 66 66 38
Width: 1366
Flags: W
HStem: 0 220<443 980.502> 626 220<553 1029.4> 1230 220<621 1102.31>
VStem: 1097 243<318.27 580.289> 1137 246<963.594 1197.89>
DStem2: 164 0 404.208 0 0.173648 0.984808<265.106 677.266 900.696 1290.67>
LayerCount: 2
Fore
SplineSet
1157 772 m 1xe8
 1279 734 1340 649 1340 516 c 3xf0
 1340 176 1085 0 709 0 c 2
 164 0 l 1
 420 1450 l 1
 956 1450 l 2
 1216 1450 1383 1354 1383 1153 c 3
 1383 900 1188 790 1157 772 c 1xe8
553 846 m 1
 810 846 l 2
 1032 846 1137 918 1137 1108 c 3xe8
 1137 1214 1054 1230 854 1230 c 2
 621 1230 l 1
 553 846 l 1
443 220 m 1
 748 220 l 2
 942 220 1097 255 1097 480 c 3xf0
 1097 603 1000 626 793 626 c 2
 514 626 l 1
 443 220 l 1
EndSplineSet
EndChar

StartChar: C
Encoding: 67 67 39
Width: 1479
Flags: W
HStem: -13 220<653.535 1015.54> 1262 220<806.596 1202.22>
VStem: 215 248<409.4 863.868> 1318 240<1050 1152.36>
LayerCount: 2
Fore
SplineSet
824 207 m 3
 1003 207 1197 328 1243 480 c 1
 1483 480 l 1
 1363 201 1142 -13 789 -13 c 3
 418 -13 215 198 215 551 c 3
 215 1101 589 1482 1055 1482 c 3
 1361 1482 1533 1304 1558 1050 c 1
 1318 1050 l 1
 1299 1182 1188 1262 1013 1262 c 3
 703 1262 463 995 463 621 c 3
 463 377 601 207 824 207 c 3
EndSplineSet
EndChar

StartChar: D
Encoding: 68 68 40
Width: 1479
Flags: W
HStem: 0 220<447 917.21> 1230 220<625 1100.43>
VStem: 1282 248<603.275 1056.22>
DStem2: 168 0 408.208 0 0.173648 0.984808<265.106 1290.67>
LayerCount: 2
Fore
SplineSet
697 0 m 2
 168 0 l 1
 424 1450 l 1
 929 1450 l 2
 1388 1450 1530 1236 1530 946 c 3
 1530 261 1083 0 697 0 c 2
714 220 m 2
 1037 220 1282 481 1282 865 c 3
 1282 1100 1143 1230 887 1230 c 2
 625 1230 l 1
 447 220 l 1
 714 220 l 2
EndSplineSet
EndChar

StartChar: E
Encoding: 69 69 41
Width: 1320
Flags: W
HStem: 0 220<446 1227> 626 220<556 1136> 1230 220<624 1444>
DStem2: 167 0 407.208 0 0.173648 0.984808<265.106 677.266 900.696 1290.67>
LayerCount: 2
Fore
SplineSet
167 0 m 1
 423 1450 l 1
 1483 1450 l 1
 1444 1230 l 1
 624 1230 l 1
 556 846 l 1
 1175 846 l 1
 1136 626 l 1
 517 626 l 1
 446 220 l 1
 1266 220 l 1
 1227 0 l 1
 167 0 l 1
EndSplineSet
EndChar

StartChar: F
Encoding: 70 70 42
Width: 1251
Flags: W
HStem: 0 21G<167 410.514> 626 220<556 1118> 1230 220<624 1375>
DStem2: 167 0 407 0 0.173648 0.984808<41.6756 677.266 900.696 1290.67>
LayerCount: 2
Fore
SplineSet
167 0 m 1
 423 1450 l 1
 1414 1450 l 1
 1375 1230 l 1
 624 1230 l 1
 556 846 l 1
 1157 846 l 1
 1118 626 l 1
 517 626 l 1
 407 0 l 1
 167 0 l 1
EndSplineSet
EndChar

StartChar: G
Encoding: 71 71 43
Width: 1479
Flags: W
HStem: -13 220<642.776 1054.25> 464 220<1026 1246> 1262 220<823.653 1178.43>
VStem: 216 246<402.508 863.514>
LayerCount: 2
Fore
SplineSet
1013 1262 m 3
 742 1262 462 992 462 618 c 3
 462 382 590 207 824 207 c 3
 1027 207 1208 287 1246 464 c 1
 987 464 l 1
 1026 684 l 1
 1525 684 l 1
 1469 236 1227 -13 789 -13 c 3
 414 -13 216 211 216 557 c 3
 216 1098 584 1482 1055 1482 c 3
 1374 1482 1530 1300 1558 1050 c 1
 1300 1050 l 1
 1274 1167 1171 1262 1013 1262 c 3
EndSplineSet
EndChar

StartChar: H
Encoding: 72 72 44
Width: 1479
Flags: W
HStem: 0 21G<164 407.518 1074 1317.53> 631 220<554 1185> 1430 20G<416.469 660 1326.46 1570>
DStem2: 164 0 404 0 0.173648 0.984808<41.6756 682.364 905.794 1472.43> 1074 0 1314 0 0.173648 0.984808<41.6756 640.689 864.119 1472.43>
LayerCount: 2
Fore
SplineSet
164 0 m 1
 420 1450 l 1
 660 1450 l 1
 554 851 l 1
 1224 851 l 1
 1330 1450 l 1
 1570 1450 l 1
 1314 0 l 1
 1074 0 l 1
 1185 631 l 1
 515 631 l 1
 404 0 l 1
 164 0 l 1
EndSplineSet
EndChar

StartChar: I
Encoding: 73 73 45
Width: 650
Flags: W
HStem: 0 220<64 244 484 625> 1230 220<281 422 662 842>
DStem2: 205.208 0 445.208 0 0.173648 0.984808<265.069 1248.96>
LayerCount: 2
Fore
SplineSet
664 220 m 1
 625 0 l 1
 25 0 l 1
 64 220 l 1
 244 220 l 1
 422 1230 l 1
 242 1230 l 1
 281 1450 l 1
 881 1450 l 1
 842 1230 l 1
 662 1230 l 1
 484 220 l 1
 664 220 l 1
EndSplineSet
EndChar

StartChar: J
Encoding: 74 74 46
Width: 1024
Flags: W
HStem: -13 220<415.278 609.866> 1230 220<664 842>
VStem: 130 249<244.426 455>
DStem2: 622.658 -13 862.303 -13 0.173648 0.984808<280.94 1262.2>
LayerCount: 2
Fore
SplineSet
504 207 m 3
 619 207 683 328 708 471 c 2
 842 1230 l 1
 625 1230 l 1
 664 1450 l 1
 1121 1450 l 1
 945 456 l 2
 885 116 704 -13 461 -13 c 3
 260 -13 130 76 130 309 c 3
 130 353 135 401 144 455 c 1
 384 455 l 1
 381 429 379 405 379 384 c 3
 379 247 446 207 504 207 c 3
EndSplineSet
EndChar

StartChar: K
Encoding: 75 75 47
Width: 1366
Flags: W
HStem: 0 21G<150 393.541 1037.75 1346> 1430 20G<402.469 646 1253.74 1572>
DStem2: 149.824 -1 389.824 -1 0.173648 0.984808<42.691 564.684 895.629 1473.44>
LayerCount: 2
Fore
SplineSet
150 0 m 1
 406 1450 l 1
 646 1450 l 1
 538 840 l 1
 1278 1450 l 1
 1572 1450 l 1
 801 806 l 1
 1346 0 l 1
 1053 -1 l 1
 587 610 l 1
 481 514 l 1
 390 0 l 1
 150 0 l 1
EndSplineSet
EndChar

StartChar: L
Encoding: 76 76 48
Width: 1139
Flags: W
HStem: 0 220<429 1060> 1430 20G<402.469 646>
DStem2: 150 0 390.208 0 0.173648 0.984808<265.106 1472.43>
LayerCount: 2
Fore
SplineSet
150 0 m 1
 406 1450 l 1
 646 1450 l 1
 429 220 l 1
 1099 220 l 1
 1060 0 l 1
 150 0 l 1
EndSplineSet
EndChar

StartChar: M
Encoding: 77 77 49
Width: 1706
Flags: W
HStem: 0 21G<152 395.517 672.063 1036.97 1310 1553.53> 1430 20G<404.469 645.926 1561.02 1806>
DStem2: 152 0 392 0 0.173648 0.984808<41.6756 815.368> 887 202 526 762 0.192637 -0.98127<-619.053 0> 887 202 1026 0 0.481164 0.876631<0 758.921> 1310 0 1550 0 0.173648 0.984808<41.6756 773.692>
LayerCount: 2
Fore
SplineSet
152 0 m 1
 408 1450 l 1
 642 1450 l 1
 887 202 l 1
 1572 1450 l 1
 1806 1450 l 1
 1550 0 l 1
 1310 0 l 1
 1444 762 l 1
 1026 0 l 1
 676 0 l 1
 526 762 l 1
 392 0 l 1
 152 0 l 1
EndSplineSet
EndChar

StartChar: N
Encoding: 78 78 50
Width: 1479
Flags: W
HStem: 0 21G<156 399.528 1060.68 1314.53> 1430 20G<408.469 662.255 1323.47 1567>
DStem2: 156 0 396 0 0.173648 0.984808<41.6756 1031.73> 652 1450 568 975 0.45628 -0.889836<384.345 1100.2> 1070.95 0 1311 0 0.173648 0.984808<478.266 1472.43>
LayerCount: 2
Fore
SplineSet
156 0 m 1
 412 1450 l 1
 652 1450 l 1
 1154 471 l 1
 1327 1450 l 1
 1567 1450 l 1
 1311 0 l 1
 1071 0 l 1
 568 975 l 1
 396 0 l 1
 156 0 l 1
EndSplineSet
EndChar

StartChar: O
Encoding: 79 79 51
Width: 1593
Flags: W
HStem: -13 220<632.718 1054.12> 1262 220<803.274 1223.96>
VStem: 215 242<378.017 867.129> 1399 243<603.627 1084.84>
LayerCount: 2
Fore
SplineSet
798 -13 m 3
 429 -13 215 213 215 554 c 3
 215 1114 591 1482 1062 1482 c 3
 1434 1482 1642 1262 1642 912 c 3
 1642 366 1279 -13 798 -13 c 3
1026 1262 m 3
 630 1262 457 933 457 577 c 3
 457 346 585 207 836 207 c 3
 1243 207 1399 548 1399 880 c 3
 1399 1116 1277 1262 1026 1262 c 3
EndSplineSet
EndChar

StartChar: P
Encoding: 80 80 52
Width: 1366
Flags: W
HStem: 0 21G<158 401.517> 580 220<539 1083.34> 1230 220<615 1152.12>
VStem: 1221 247<918.883 1166.22>
DStem2: 158 0 398 0 0.173648 0.984808<41.6756 630.576 854.006 1290.67>
LayerCount: 2
Fore
SplineSet
830 580 m 2
 500 580 l 1
 398 0 l 1
 158 0 l 1
 414 1450 l 1
 967 1450 l 2
 1341 1450 1468 1325 1468 1129 c 3
 1468 704 1129 580 830 580 c 2
1221 1064 m 3
 1221 1195 1096 1230 904 1230 c 2
 615 1230 l 1
 539 800 l 1
 832 800 l 2
 1111 800 1221 896 1221 1064 c 3
EndSplineSet
EndChar

StartChar: Q
Encoding: 81 81 53
Width: 1659
Flags: W
HStem: -13 220<778.95 1054.82 1362.19 1566.93> 341 220<844.045 1072.2> 1262 220<801.672 1227.01>
VStem: 216 243<414.888 858.261> 1400 242<621.596 1094.09>
LayerCount: 2
Fore
SplineSet
1244 435 m 1
 1325 482 1400 703 1400 887 c 3
 1400 1124 1273 1262 1025 1262 c 3
 635 1262 459 940 459 596 c 3
 459 425 535 338 617 323 c 1
 680 467 846 561 993 561 c 3
 1157 561 1229 455 1244 435 c 1
1062 1482 m 3
 1434 1482 1642 1259 1642 912 c 3
 1642 590 1516 360 1361 247 c 1
 1375 228 1395 207 1428 207 c 3
 1467 207 1529 224 1579 260 c 1
 1675 90 l 1
 1589 21 1496 -13 1397 -13 c 3
 1289 -13 1213 27 1172 88 c 1
 1041 11 932 -13 798 -13 c 3
 429 -13 216 216 216 557 c 3
 216 1022 520 1482 1062 1482 c 3
1097 269 m 1
 1065 316 1025 341 974 341 c 3
 916 341 825 315 776 217 c 1
 799 210 827 207 858 207 c 3
 969 207 1057 242 1097 269 c 1
EndSplineSet
EndChar

StartChar: R
Encoding: 82 82 54
Width: 1400
Flags: W
HStem: 0 21G<158 401.517 1061.41 1387> 580 220<539 765> 1230 220<615 1149.3>
VStem: 1222 245<922.766 1164.16>
DStem2: 158 0 398 0 0.173648 0.984808<41.6756 630.576 854.006 1290.67>
LayerCount: 2
Fore
SplineSet
1029 596 m 1
 1387 0 l 1
 1072 0 l 1
 765 580 l 1
 500 580 l 1
 398 0 l 1
 158 0 l 1
 414 1450 l 1
 967 1450 l 2
 1337 1450 1467 1324 1467 1126 c 3
 1467 717 1127 613 1029 596 c 1
1222 1065 m 3
 1222 1191 1094 1230 904 1230 c 2
 615 1230 l 1
 539 800 l 1
 832 800 l 2
 1103 800 1222 899 1222 1065 c 3
EndSplineSet
EndChar

StartChar: S
Encoding: 83 83 55
Width: 1366
Flags: W
HStem: -13 220<546.105 957.592> 1262 220<687.349 1066.2>
VStem: 173 247<322.311 502> 329 246<969.679 1167.17> 1096 247<326.199 538.288> 1155 240<1019 1169.42>
LayerCount: 2
Fore
SplineSet
895 1262 m 3xd4
 744 1262 575 1206 575 1046 c 3xd4
 575 956 666 928 1017 816 c 0
 1196 759 1343 703 1343 512 c 3
 1343 179 1031 -13 715 -13 c 3
 274 -13 173 209 173 405 c 3
 173 439 176 471 181 502 c 1
 421 502 l 1
 420 491 420 481 420 471 c 3
 420 234 642 207 744 207 c 3
 955 207 1096 307 1096 451 c 3xe8
 1096 547 1008 580 716 667 c 0
 550 717 329 766 329 994 c 3
 329 1307 621 1482 925 1482 c 3
 1257 1482 1395 1309 1395 1019 c 1
 1155 1019 l 1
 1155 1174 1074 1262 895 1262 c 3xd4
EndSplineSet
EndChar

StartChar: T
Encoding: 84 84 56
Width: 1251
Flags: W
HStem: 0 21G<508 751.528> 1230 220<304 725 965 1427>
DStem2: 508 0 748 0 0.173648 0.984808<41.6756 1249>
LayerCount: 2
Fore
SplineSet
508 0 m 1
 725 1230 l 1
 265 1230 l 1
 304 1450 l 1
 1466 1450 l 1
 1427 1230 l 1
 965 1230 l 1
 748 0 l 1
 508 0 l 1
EndSplineSet
EndChar

StartChar: U
Encoding: 85 85 57
Width: 1479
Flags: W
HStem: -13 220<594.613 970.222> 1430 20G<413.456 657 1326.46 1570>
VStem: 244 247<306.9 716.281>
DStem2: 158.259 -13 398.259 -13 0.173648 0.984808<530.89 1485.7> 1071.26 -13 1311.26 -13 0.173648 0.984808<367.361 1485.7>
LayerCount: 2
Fore
SplineSet
774 207 m 3
 999 207 1132 332 1173 564 c 2
 1330 1450 l 1
 1570 1450 l 1
 1413 564 l 2
 1345 179 1121 -13 739 -13 c 3
 360 -13 244 169 244 402 c 3
 244 454 250 508 260 564 c 2
 417 1450 l 1
 657 1450 l 1
 500 564 l 2
 494 529 491 496 491 466 c 3
 491 290 595 207 774 207 c 3
EndSplineSet
EndChar

StartChar: V
Encoding: 86 86 58
Width: 1366
Flags: W
HStem: 0 21G<572.697 787.448> 1430 20G<265 603.269 1268.4 1606>
LayerCount: 2
Fore
SplineSet
577 0 m 1
 265 1450 l 1
 600 1450 l 1
 760 471 l 1
 1279 1450 l 1
 1606 1450 l 1
 776 0 l 1
 577 0 l 1
EndSplineSet
EndChar

StartChar: W
Encoding: 87 87 59
Width: 1933
Flags: W
HStem: 0 21G<364.828 628.39 1295.76 1574.1> 1430 20G<281 536.504 1067.84 1351.29 1873.82 2153>
DStem2: 535 1450 281 1450 0.0585202 -0.998286<0 933.501> 605 519 618 0 0.461017 0.887391<0 671.209> 1348 1450 1137 999 0.160071 -0.987105<411.41 943.486> 1501 519 1566 0 0.375245 0.926926<0 1005.94>
LayerCount: 2
Fore
SplineSet
366 0 m 1
 281 1450 l 1
 535 1450 l 1
 605 519 l 1
 1078 1450 l 1
 1348 1450 l 1
 1501 519 l 1
 1882 1450 l 1
 2153 1450 l 1
 1566 0 l 1
 1299 0 l 1
 1137 999 l 1
 618 0 l 1
 366 0 l 1
EndSplineSet
EndChar

StartChar: X
Encoding: 88 88 60
Width: 1366
Flags: W
HStem: 0 21G<9 335.838 1033.22 1353> 1430 20G<332 650.787 1241.97 1569>
DStem2: 9 0 319 0 0.632903 0.774231<196.2 907.251> 642 1450 332 1450 0.391197 -0.920307<0 522.058> 1001 756 777 544 0.422098 -0.90655<97.6388 703.08> 852 972 1001 756 0.633359 0.773858<0 627.681>
LayerCount: 2
Fore
SplineSet
9 0 m 1
 627 756 l 1
 332 1450 l 1
 642 1450 l 1
 852 972 l 1
 1259 1450 l 1
 1569 1450 l 1
 1001 756 l 1
 1353 0 l 1
 1043 0 l 1
 777 544 l 1
 319 0 l 1
 9 0 l 1
EndSplineSet
EndChar

StartChar: Y
Encoding: 89 89 61
Width: 1366
Flags: W
HStem: 0 21G<548 791.51> 1431 20G<262 569.362 1290.84 1606>
DStem2: 560 1451 262 1451 0.429722 -0.902961<0 622.717> 548 0 788 0 0.173648 0.984808<41.6756 630.493> 824 887 897 621 0.649508 0.760355<0 743.202>
LayerCount: 2
Fore
SplineSet
548 0 m 1
 657 621 l 1
 262 1451 l 1
 560 1451 l 1
 824 887 l 1
 1308 1451 l 1
 1606 1451 l 1
 897 621 l 1
 788 0 l 1
 548 0 l 1
EndSplineSet
EndChar

StartChar: Z
Encoding: 90 90 62
Width: 1251
Flags: W
HStem: 0 220<414 1200> 1230 220<301 1102>
DStem2: 81 227 414 220 0.709198 0.70501<231.228 1431.22>
LayerCount: 2
Fore
SplineSet
41 0 m 1
 81 227 l 1
 1102 1230 l 1
 262 1230 l 1
 301 1450 l 1
 1469 1450 l 1
 1430 1230 l 1
 414 220 l 1
 1239 220 l 1
 1200 0 l 1
 41 0 l 1
EndSplineSet
EndChar

StartChar: bracketleft
Encoding: 91 91 63
Width: 569
Flags: W
HStem: -407 200<322 464> 1266 200<582 759>
DStem2: 67 -407 286.735 -407 0.173648 0.984808<241.242 1737.01>
LayerCount: 2
Fore
SplineSet
67 -407 m 1
 397 1466 l 1
 794 1466 l 1
 759 1266 l 1
 582 1266 l 1
 322 -207 l 1
 500 -207 l 1
 464 -407 l 1
 67 -407 l 1
EndSplineSet
EndChar

StartChar: backslash
Encoding: 92 92 64
Width: 569
Flags: W
VStem: 224 381
DStem2: 448 1491 224 1491 0.10366 -0.994613<0 1500.99>
LayerCount: 2
Fore
SplineSet
382 -25 m 1
 224 1491 l 1
 448 1491 l 1
 605 -25 l 1
 382 -25 l 1
EndSplineSet
EndChar

StartChar: bracketright
Encoding: 93 93 65
Width: 569
Flags: W
HStem: -407 200<-4 174> 1266 200<291 433>
DStem2: 138.735 -407 358 -407 0.173648 0.984808<203.085 1698.68>
LayerCount: 2
Fore
SplineSet
358 -407 m 1
 -39 -407 l 1
 -4 -207 l 1
 174 -207 l 1
 433 1266 l 1
 256 1266 l 1
 291 1466 l 1
 688 1466 l 1
 358 -407 l 1
EndSplineSet
EndChar

StartChar: asciicircum
Encoding: 94 94 66
Width: 961
Flags: W
DStem2: 176 690 410 690 0.509272 0.860606<119.17 709.439>
LayerCount: 2
Fore
SplineSet
410 690 m 1
 176 690 l 1
 650 1491 l 1
 835 1491 l 1
 1029 690 l 1
 798 690 l 1
 692 1209 l 1
 410 690 l 1
EndSplineSet
EndChar

StartChar: underscore
Encoding: 95 95 67
Width: 1139
Flags: W
HStem: -427 200<-71 1087>
LayerCount: 2
Fore
SplineSet
-106 -427 m 1
 -71 -227 l 1
 1122 -227 l 1
 1087 -427 l 1
 -106 -427 l 1
EndSplineSet
EndChar

StartChar: grave
Encoding: 96 96 68
Width: 682
Flags: W
HStem: 1194 280<502 620>
VStem: 320 386
LayerCount: 2
Fore
SplineSet
706 1194 m 1
 502 1194 l 1
 320 1474 l 1
 620 1474 l 1
 706 1194 l 1
EndSplineSet
EndChar

StartChar: a
Encoding: 97 97 69
Width: 1139
Flags: W
HStem: 0 187<369.908 718.041> 895 200<554.847 868.934>
VStem: 120 226<217.489 380.585> 808 221<1.40518 152.5> 903 228<689.086 856.374>
LayerCount: 2
Fore
SplineSet
1073 445 m 2xe8
 1044 276 1029 185 1029 120 c 3
 1029 73 1037 39 1052 0 c 1
 814 0 l 1
 810 21 808 44 808 66 c 3xf0
 808 76 808 86 809 96 c 1
 686 6 577 -13 435 -13 c 3
 187 -13 120 118 120 234 c 3
 120 479 329 599 604 633 c 0
 714 646 813 666 899 695 c 1
 901 713 903 730 903 746 c 3
 903 851 846 895 716 895 c 3
 580 895 486 818 448 738 c 1
 240 768 l 1
 326 991 497 1095 777 1095 c 3
 1011 1095 1131 1040 1131 834 c 3
 1131 793 1126 747 1117 694 c 2
 1073 445 l 2xe8
346 289 m 3
 346 208 450 187 520 187 c 3
 708 187 821 262 853 444 c 2
 862 495 l 1
 631 416 346 474 346 289 c 3
EndSplineSet
EndChar

StartChar: b
Encoding: 98 98 70
Width: 1139
Flags: W
HStem: -13 200<504.743 754.078> 895 200<630.035 877.511> 1446 20G<388.48 612>
VStem: 943 222<425.616 826.884>
DStem2: 131.708 -13 338.708 -13 0.173648 0.984808<49.1457 134.474 484.404 800.157 1056.75 1501.73>
LayerCount: 2
Fore
SplineSet
594 -13 m 3
 443 -13 370 67 356 84 c 1
 341 0 l 1
 134 0 l 1
 392 1466 l 1
 612 1466 l 1
 529 990 l 1
 618 1054 711 1095 798 1095 c 3
 1040 1095 1165 928 1165 689 c 3
 1165 289 921 -13 594 -13 c 3
749 895 m 3
 607 895 486 748 451 549 c 0
 443 501 439 459 439 423 c 3
 439 231 543 187 617 187 c 3
 803 187 943 395 943 666 c 3
 943 805 887 895 749 895 c 3
EndSplineSet
EndChar

StartChar: c
Encoding: 99 99 71
Width: 1024
Flags: W
HStem: -13 200<460.983 753.99> 895 200<574.447 852.127>
VStem: 161 223<267.175 658.953> 856 220<300.406 403> 911 222<696 840.391>
LayerCount: 2
Fore
SplineSet
594 187 m 3xe8
 734 187 827 256 856 403 c 1
 1076 403 l 1xf0
 1005 62 738 -13 561 -13 c 3
 310 -13 161 146 161 399 c 3
 161 787 414 1095 757 1095 c 3
 989 1095 1133 964 1133 771 c 3
 1133 747 1131 722 1126 696 c 1
 908 696 l 1
 910 707 911 718 911 728 c 3
 911 828 830 895 729 895 c 3
 490 895 384 644 384 432 c 3
 384 286 451 187 594 187 c 3xe8
EndSplineSet
EndChar

StartChar: d
Encoding: 100 100 72
Width: 1139
Flags: W
HStem: -13 200<443.026 700.747> 895 200<566.378 802.577> 1446 20G<1023.51 1247>
VStem: 151 221<257.695 659.016>
DStem2: 779.708 -13 986.708 -13 0.173648 0.984808<49.1457 98.5291 349.287 659.991 1016.29 1499.47>
LayerCount: 2
Fore
SplineSet
711 1095 m 3
 798 1095 877 1054 944 990 c 1
 1027 1466 l 1
 1247 1466 l 1
 989 0 l 1
 782 0 l 1
 797 84 l 1
 777 67 676 -13 525 -13 c 3
 275 -13 151 151 151 397 c 3
 151 796 391 1095 711 1095 c 3
572 187 m 3
 660 187 813 249 865 545 c 0
 871 579 874 611 874 642 c 0
 874 789 808 895 690 895 c 3
 575 895 372 756 372 424 c 3
 372 275 438 187 572 187 c 3
EndSplineSet
EndChar

StartChar: e
Encoding: 101 101 73
Width: 1139
Flags: W
HStem: -13 200<468.287 791.514> 475 200<426 949> 895 200<562.354 887.876>
VStem: 155 227<273.051 467.395> 949 215<677.77 836.532>
LayerCount: 2
Fore
SplineSet
1164 684 m 3
 1164 618 1151 537 1137 475 c 1
 385 475 l 1
 383 459 382 444 382 429 c 3
 382 290 459 187 615 187 c 3
 808 187 864 293 879 333 c 1
 1107 333 l 1
 1027 118 837 -13 579 -13 c 3
 297 -13 155 132 155 383 c 3
 155 805 414 1095 764 1095 c 3
 1023 1095 1164 938 1164 684 c 3
948 675 m 1
 949 685 949 695 949 704 c 3
 949 829 880 895 730 895 c 3
 573 895 455 795 426 675 c 1
 948 675 l 1
EndSplineSet
EndChar

StartChar: f
Encoding: 102 102 74
Width: 569
Flags: W
HStem: 0 21G<157 380.527> 862 200<206 309 564 688> 1315 200<640.76 871.564>
DStem2: 157 0 377 0 0.173648 0.984808<38.2026 875.299 1116.54 1340.33>
LayerCount: 2
Fore
SplineSet
756 1315 m 3
 670 1315 602 1271 577 1132 c 2
 564 1062 l 1
 723 1062 l 1
 688 862 l 1
 529 862 l 1
 377 0 l 1
 157 0 l 1
 309 862 l 1
 171 862 l 1
 206 1062 l 1
 344 1062 l 1
 364 1175 l 2
 412 1447 597 1515 729 1515 c 3
 796 1515 854 1506 902 1488 c 1
 867 1288 l 1
 810 1307 791 1315 756 1315 c 3
EndSplineSet
EndChar

StartChar: g
Encoding: 103 103 75
Width: 1139
Flags: W
HStem: -428 200<344.638 647.274> -13 200<427.155 716.322> 895 200<541.597 831.767> 1042 20G<965.667 1189>
VStem: 73 228<-183.394 -74> 147 221<248.671 664.072>
DStem2: 706.307 -428 926.141 -428 0.173648 0.984808<304.875 510.76 726.535 1114.41 1433.91 1512.98>
LayerCount: 2
Fore
SplineSet
447 -428 m 3xd4
 145 -428 73 -299 73 -163 c 3
 73 -133 77 -103 82 -74 c 1
 302 -74 l 1
 301 -79 301 -84 301 -90 c 3xd8
 301 -145 344 -228 481 -228 c 3
 658 -228 760 -121 795 75 c 1
 723 25 626 -13 523 -13 c 3
 279 -13 147 155 147 398 c 3
 147 806 416 1095 719 1095 c 3xe4
 832 1095 928 1049 956 984 c 1
 969 1062 l 1
 1189 1062 l 1
 1027 144 l 2
 943 -330 759 -428 447 -428 c 3xd4
696 895 m 3xe4
 454 895 368 644 368 405 c 3
 368 256 432 187 573 187 c 3
 743 187 834 296 877 539 c 0
 886 590 890 635 890 673 c 0
 890 861 790 895 696 895 c 3xe4
EndSplineSet
EndChar

StartChar: h
Encoding: 104 104 76
Width: 1139
Flags: W
HStem: 0 21G<135 358.529 780 1003.54> 895 200<616.946 877.367> 1446 20G<389.48 613>
VStem: 908 221<610.056 865.389>
DStem2: 135 0 355 0 0.173648 0.984808<38.2026 826.897 1061.8 1488.53> 780 0 1000 0 0.173648 0.984808<38.2026 767.74>
LayerCount: 2
Fore
SplineSet
754 895 m 3
 593 895 485 735 460 595 c 2
 355 0 l 1
 135 0 l 1
 393 1466 l 1
 613 1466 l 1
 533 1008 l 1
 594 1066 688 1095 793 1095 c 3
 1055 1095 1129 936 1129 777 c 3
 1129 742 1125 707 1119 673 c 2
 1000 0 l 1
 780 0 l 1
 901 687 l 2
 906 714 908 737 908 758 c 3
 908 863 849 895 754 895 c 3
EndSplineSet
EndChar

StartChar: i
Encoding: 105 105 77
Width: 455
Flags: W
HStem: 0 21G<116 339.522> 1042 20G<299.478 523> 1220 246<379 547>
VStem: 116 474
DStem2: 116 0 336 0 0.173648 0.984808<38.2026 1078.34 1276.31 1489.4>
LayerCount: 2
Fore
SplineSet
336 1220 m 1
 379 1466 l 1
 590 1466 l 1
 547 1220 l 1
 336 1220 l 1
116 0 m 1
 303 1062 l 1
 523 1062 l 1
 336 0 l 1
 116 0 l 1
EndSplineSet
EndChar

StartChar: j
Encoding: 106 106 78
Width: 455
Flags: W
HStem: -428 200<-136.83 45.0456> 1042 20G<299.481 523> 1220 246<374 551>
DStem2: 40.7035 -428 260.759 -428 0.173648 0.984808<232.809 1512.91 1711.58 1923.1>
LayerCount: 2
Fore
SplineSet
331 1220 m 1
 374 1466 l 1
 594 1466 l 1
 551 1220 l 1
 331 1220 l 1
326 -58 m 2
 277 -336 155 -428 -10 -428 c 3
 -67 -428 -120 -423 -167 -412 c 1
 -133 -220 l 1
 -99 -225 -78 -228 -69 -228 c 3
 16 -228 82 -191 110 -35 c 2
 303 1062 l 1
 523 1062 l 1
 326 -58 l 2
EndSplineSet
EndChar

StartChar: k
Encoding: 107 107 79
Width: 1024
Flags: W
HStem: 0 21G<136 359.538 731.24 1016> 1042 20G<861.518 1162> 1446 20G<390.48 614>
DStem2: 136 0 356 0 0.173648 0.984808<38.2026 434.259 732.823 1488.53> 477 684 704 636 0.738941 0.67377<135.399 554.695>
LayerCount: 2
Fore
SplineSet
136 0 m 1
 394 1466 l 1
 614 1466 l 1
 477 684 l 1
 883 1062 l 1
 1162 1062 l 1
 704 636 l 1
 1016 0 l 1
 740 0 l 1
 528 484 l 1
 425 390 l 1
 356 0 l 1
 136 0 l 1
EndSplineSet
EndChar

StartChar: l
Encoding: 108 108 80
Width: 455
Flags: W
HStem: 0 21G<112 335.52> 1446 20G<366.48 590>
VStem: 112 478
DStem2: 112 0 332 0 0.173648 0.984808<38.2026 1488.53>
LayerCount: 2
Fore
SplineSet
112 0 m 1
 370 1466 l 1
 590 1466 l 1
 332 0 l 1
 112 0 l 1
EndSplineSet
EndChar

StartChar: m
Encoding: 109 109 81
Width: 1706
Flags: W
HStem: 0 21G<135 358.529 744 967.54 1353 1576.54> 895 200<621.402 854.302 1205.98 1458.66> 1042 20G<318.478 542>
VStem: 1484 228<653.813 867.797>
DStem2: 135 0 355 0 0.173648 0.984808<38.2026 858.34 1043.55 1078.34> 744 0 964 0 0.173648 0.984808<38.2026 785.721> 1353 0 1573 0 0.173648 0.984808<38.2026 774.401>
LayerCount: 2
Fore
SplineSet
736 895 m 3xd0
 556 895 486 742 460 595 c 2
 355 0 l 1
 135 0 l 1
 322 1062 l 1
 542 1062 l 1xb0
 530 990 l 1
 597 1050 696 1095 811 1095 c 3
 1007 1095 1055 1003 1069 957 c 1
 1147 1056 1318 1095 1438 1095 c 3
 1649 1095 1712 977 1712 835 c 3
 1712 801 1708 765 1702 729 c 2
 1573 0 l 1
 1353 0 l 1
 1479 713 l 2
 1482 731 1484 748 1484 764 c 3
 1484 846 1441 895 1363 895 c 3
 1247 895 1113 841 1081 661 c 2
 964 0 l 1
 744 0 l 1
 873 734 l 2
 876 749 877 762 877 775 c 3
 877 865 812 895 736 895 c 3xd0
EndSplineSet
EndChar

StartChar: n
Encoding: 110 110 82
Width: 1139
Flags: W
HStem: 0 21G<135 358.539 780 1003.54> 895 200<597.717 876.069> 1044 20G<319.466 543>
VStem: 908 221<613.608 865.389>
DStem2: 135 0 355 0 0.173648 0.984808<38.2026 851.425 1065.74 1080.48> 780 0 1000 0 0.173648 0.984808<38.2026 765.862>
LayerCount: 2
Fore
SplineSet
750 895 m 3xd0
 559 895 485 737 461 599 c 2
 355 0 l 1
 135 0 l 1
 323 1064 l 1
 543 1064 l 1xb0
 533 1012 l 1
 611 1074 681 1095 793 1095 c 3
 1055 1095 1129 936 1129 777 c 3
 1129 742 1125 707 1119 673 c 2
 1000 0 l 1
 780 0 l 1
 902 691 l 2
 906 715 908 737 908 756 c 3
 908 860 848 895 750 895 c 3xd0
EndSplineSet
EndChar

StartChar: o
Encoding: 111 111 83
Width: 1139
Flags: W
HStem: -13 200<445.829 764.738> 895 200<554.034 876.549>
VStem: 149 222<264.594 671.89> 950 222<411.449 820.704>
LayerCount: 2
Fore
SplineSet
564 -13 m 3
 292 -13 149 131 149 389 c 3
 149 824 402 1095 759 1095 c 3
 1031 1095 1172 953 1172 695 c 3
 1172 259 921 -13 564 -13 c 3
724 895 m 3
 468 895 371 663 371 421 c 3
 371 290 424 187 599 187 c 3
 856 187 950 421 950 663 c 3
 950 793 898 895 724 895 c 3
EndSplineSet
EndChar

StartChar: p
Encoding: 112 112 84
Width: 1139
Flags: W
HStem: -13 200<496.718 731.358> 895 200<599.828 853.577> 1042 20G<303.474 527>
VStem: 927 222<421.596 816.508>
DStem2: 51 -390 271 -390 0.173648 0.984808<38.2026 521.558 882.957 1219.3 1448.64 1474.39>
LayerCount: 2
Fore
SplineSet
589 -13 m 3xd0
 502 -13 422 22 355 86 c 1
 271 -390 l 1
 51 -390 l 1
 307 1062 l 1
 527 1062 l 1xb0
 516 999 l 1
 585 1048 670 1095 775 1095 c 3
 1025 1095 1149 931 1149 685 c 3
 1149 288 911 -13 589 -13 c 3xd0
725 895 m 3xd0
 640 895 487 832 435 537 c 0
 429 503 426 470 426 439 c 3
 426 292 491 187 607 187 c 3
 716 187 927 322 927 653 c 3
 927 805 857 895 725 895 c 3xd0
EndSplineSet
EndChar

StartChar: q
Encoding: 113 113 85
Width: 1139
Flags: W
HStem: -13 200<467.397 710.601> 895 200<579.926 831.297> 1042 20G<971.508 1195>
VStem: 168 224<260.295 665.517>
DStem2: 719 -390 939 -390 0.173648 0.984808<38.2026 483.355 720.461 1062.94 1410.44 1474.39>
LayerCount: 2
Fore
SplineSet
739 1095 m 3xd0
 890 1095 958 1009 964 999 c 1
 975 1062 l 1
 1195 1062 l 1xb0
 939 -390 l 1
 719 -390 l 1
 803 86 l 1
 714 22 622 -13 535 -13 c 3
 296 -13 168 146 168 389 c 3
 168 790 411 1095 739 1095 c 3xd0
588 187 m 3
 726 187 849 342 883 537 c 0
 891 584 895 624 895 660 c 3
 895 851 791 895 720 895 c 3xd0
 531 895 392 692 392 426 c 3
 392 228 509 187 588 187 c 3
EndSplineSet
EndChar

StartChar: r
Encoding: 114 114 86
Width: 682
Flags: W
HStem: 0 21G<133 356.525> 895 200<624.524 818.545> 1042 20G<316.478 540>
DStem2: 133 0 353 0 0.173648 0.984808<38.2026 874.518 999.815 1078.34>
LayerCount: 2
Fore
SplineSet
133 0 m 1xc0
 320 1062 l 1
 540 1062 l 1xa0
 520 947 l 1
 614 1068 679 1095 773 1095 c 3
 829 1095 863 1069 894 1046 c 1
 799 856 l 1
 775 870 765 895 723 895 c 3
 520 895 479 713 457 590 c 2
 353 0 l 1
 133 0 l 1xc0
EndSplineSet
EndChar

StartChar: s
Encoding: 115 115 87
Width: 1024
Flags: W
HStem: -14 200<394.519 723.414> 895 200<492.105 793.916>
VStem: 123 223<238.218 358> 225 225<690.343 851.78> 782 226<243.71 410.814> 821 224<767 863.987>
LayerCount: 2
Fore
SplineSet
225 715 m 3xd8
 225 960 434 1095 677 1095 c 3
 979 1095 1045 952 1045 829 c 3
 1045 807 1043 786 1040 767 c 1
 820 767 l 1
 820 772 821 777 821 782 c 3
 821 858 763 895 655 895 c 3
 505 895 450 833 450 764 c 3xd4
 450 689 526 668 631 648 c 0
 894 598 1008 540 1008 391 c 3
 1008 130 772 -14 515 -14 c 3
 192 -14 123 164 123 307 c 3
 123 325 124 342 126 358 c 1
 346 358 l 1xe8
 346 243 411 186 549 186 c 3
 707 186 782 254 782 335 c 3
 782 413 712 428 602 449 c 0
 384 490 225 533 225 715 c 3xd8
EndSplineSet
EndChar

StartChar: t
Encoding: 116 116 88
Width: 569
Flags: W
HStem: -13 200<315 552.774> 862 200<205 298 553 649>
VStem: 182 233<104 456.633>
DStem2: 143.87 -13 363.339 -13 0.173648 0.984808<321.32 888.471 1129.71 1468.33>
LayerCount: 2
Fore
SplineSet
562 195 m 1
 554 2 l 1
 504 -8 454 -13 404 -13 c 3
 226 -13 182 54 182 154 c 3
 182 200 191 254 201 311 c 2
 298 862 l 1
 170 862 l 1
 205 1062 l 1
 333 1062 l 1
 399 1433 l 1
 619 1433 l 1
 553 1062 l 1
 684 1062 l 1
 649 862 l 1
 518 862 l 1
 418 297 l 2
 416 286 415 275 415 265 c 3
 415 218 439 187 507 187 c 3
 508 187 526 190 562 195 c 1
EndSplineSet
EndChar

StartChar: u
Encoding: 117 117 89
Width: 1139
Flags: W
HStem: -13 200<437.377 717.767> 1042 20G<287.492 511 932.479 1156>
VStem: 167 224<235.872 486.131>
DStem2: 102.061 -13 321.766 -13 0.173648 0.984808<411.399 1091.48> 746.708 -13 966.708 -13 0.173648 0.984808<269.525 1091.54>
LayerCount: 2
Fore
SplineSet
567 187 m 3
 721 187 800 289 820 403 c 2
 936 1062 l 1
 1156 1062 l 1
 969 0 l 1
 749 0 l 1
 755 34 l 1
 688 -2 574 -13 535 -13 c 3
 250 -13 167 138 167 305 c 3
 167 340 171 377 177 412 c 2
 291 1062 l 1
 511 1062 l 1
 396 408 l 2
 392 388 391 370 391 353 c 3
 391 224 489 187 567 187 c 3
EndSplineSet
EndChar

StartChar: v
Encoding: 118 118 90
Width: 1024
Flags: W
HStem: 0 21G<424.932 610.073> 1042 20G<213 458.647 936.63 1187>
DStem2: 455 1062 213 1062 0.199309 -0.979937<0 713.427> 583 360 599 0 0.484383 0.874856<0 790.464>
LayerCount: 2
Fore
SplineSet
429 0 m 1
 213 1062 l 1
 455 1062 l 1
 583 360 l 1
 947 1062 l 1
 1187 1062 l 1
 599 0 l 1
 429 0 l 1
EndSplineSet
EndChar

StartChar: w
Encoding: 119 119 91
Width: 1479
Flags: W
HStem: 0 21G<294.06 553.32 948.5 1208.47> 1042 20G<193 444.289 825.057 1022.27 1414.69 1650>
DStem2: 443 1062 193 1062 0.0965339 -0.99533<0 699.084> 488 364 544 0 0.44516 0.895451<0 444.535> 1133 364 1200 0 0.390149 0.920752<0 755.828>
LayerCount: 2
Fore
SplineSet
296 0 m 1
 193 1062 l 1
 443 1062 l 1
 488 364 l 1
 835 1062 l 1
 1019 1062 l 1
 1133 364 l 1
 1423 1062 l 1
 1650 1062 l 1
 1200 0 l 1
 956 0 l 1
 941 149 909 374 859 676 c 1
 544 0 l 1
 296 0 l 1
EndSplineSet
EndChar

StartChar: x
Encoding: 120 120 92
Width: 1024
Flags: W
HStem: 0 21G<15 299.501 723.219 1009> 1042 20G<231 518.484 870.836 1168>
DStem2: 15 0 284 0 0.639757 0.768577<172.095 172.095 965.272 1374.1> 756 562 570 369 0.4105 -0.911861<99.6362 502.614>
LayerCount: 2
Fore
SplineSet
15 0 m 1
 443 552 l 1
 231 1062 l 1
 511 1062 l 1
 630 744 l 1
 887 1062 l 1
 1168 1062 l 1
 756 562 l 1
 1009 0 l 1
 732 0 l 1
 570 369 l 1
 284 0 l 1
 15 0 l 1
EndSplineSet
EndChar

StartChar: y
Encoding: 121 121 93
Width: 1024
Flags: W
HStem: -428 200<68.973 317.343> 1042 20G<220 482.246 921.145 1193>
DStem2: 479 1062 220 1062 0.174314 -0.98469<0 698.959> 591 372 642 0 0.460537 0.887641<0 769.055>
LayerCount: 2
Fore
SplineSet
174 -228 m 3
 298 -228 410 -135 410 -23 c 3
 410 -15 409 -8 408 0 c 2
 220 1062 l 1
 479 1062 l 1
 591 372 l 1
 931 1062 l 1
 1193 1062 l 1
 642 0 l 1
 572 -253 397 -428 164 -428 c 3
 122 -428 82 -427 54 -415 c 1
 69 -214 l 1
 101 -223 137 -228 174 -228 c 3
EndSplineSet
EndChar

StartChar: z
Encoding: 122 122 94
Width: 1024
Flags: W
HStem: 0 200<379 980> 862 200<247 816>
DStem2: 75 200 379 200 0.745741 0.666236<226.705 993.642>
LayerCount: 2
Fore
SplineSet
40 0 m 1
 75 200 l 1
 816 862 l 1
 212 862 l 1
 247 1062 l 1
 1135 1062 l 1
 1100 862 l 1
 379 200 l 1
 1015 200 l 1
 980 0 l 1
 40 0 l 1
EndSplineSet
EndChar

StartChar: braceleft
Encoding: 123 123 95
Width: 684
Flags: W
HStem: -422 200<487.746 562> 448 164<165 252.719> 1282 200<741.031 862>
VStem: 246 228<-214.399 147.118> 300 220<-82.6444 404.991>
CounterMasks: 1 e0
LayerCount: 2
Fore
SplineSet
520 280 m 3xe8
 520 186 474 -36 474 -119 c 3
 474 -200 500 -222 556 -222 c 2
 597 -222 l 1
 562 -422 l 1
 506 -422 l 2
 307 -422 246 -345 246 -191 c 3xf0
 246 -77 300 131 300 265 c 3
 300 370 264 445 136 448 c 9
 165 612 l 17
 360 616 402 785 435 971 c 0
 495 1312 545 1482 841 1482 c 2
 897 1482 l 1
 862 1282 l 1
 821 1282 l 2
 734 1282 701 1228 657 981 c 0
 613 729 555 618 401 530 c 1
 484 470 520 399 520 280 c 3xe8
EndSplineSet
EndChar

StartChar: bar
Encoding: 124 124 96
Width: 532
Flags: W
VStem: 80 559
DStem2: 80 -431 300 -431 0.173648 0.984808<38.2026 1951.67>
LayerCount: 2
Fore
SplineSet
80 -431 m 1
 419 1491 l 1
 639 1491 l 1
 300 -431 l 1
 80 -431 l 1
EndSplineSet
EndChar

StartChar: braceright
Encoding: 125 125 97
Width: 684
Flags: W
HStem: -422 200<9 129.969> 448 164<618.281 706> 1282 200<309 383.254>
VStem: 351 220<654.585 1142.6> 397 228<915.715 1274.4>
CounterMasks: 1 e0
LayerCount: 2
Fore
SplineSet
351 778 m 3xf0
 351 872 397 1096 397 1179 c 3
 397 1260 371 1282 315 1282 c 2
 274 1282 l 1
 309 1482 l 1
 365 1482 l 2
 564 1482 625 1405 625 1251 c 3xe8
 625 1137 571 929 571 795 c 3
 571 690 607 615 735 612 c 9
 706 448 l 17
 511 444 469 275 436 89 c 0
 376 -252 326 -422 30 -422 c 2
 -26 -422 l 1
 9 -222 l 1
 50 -222 l 2
 137 -222 170 -168 214 79 c 0
 258 331 315 442 469 530 c 1
 386 590 351 660 351 778 c 3xf0
EndSplineSet
EndChar

StartChar: asciitilde
Encoding: 126 126 98
Width: 1196
Flags: W
HStem: 540 220<828.352 1117.26> 674 220<330.04 633.026>
LayerCount: 2
Fore
SplineSet
467 674 m 3x40
 365 674 289 626 182 538 c 1
 223 774 l 1
 308 854 408 894 523 894 c 3x40
 717 894 850 760 986 760 c 3
 1089 760 1203 838 1268 897 c 1
 1225 654 l 1
 1126 575 1039 540 928 540 c 3x80
 730 540 629 674 467 674 c 3x40
EndSplineSet
EndChar

StartChar: exclamdown
Encoding: 161 161 100
Width: 569
Flags: W
HStem: 0 21G<168 411.548> 1065 20G<397.142 555> 1256 194<432 621>
VStem: 402 153<1025.98 1085>
DStem2: 168 0 408 0 0.173648 0.984808<41.6756 863.152 1315.58 1473.81>
LayerCount: 2
Fore
SplineSet
488 451 m 1
 408 0 l 1
 168 0 l 1
 248 451 l 1
 402 1085 l 1
 555 1085 l 1
 488 451 l 1
621 1256 m 1
 397 1256 l 1
 432 1450 l 1
 656 1450 l 1
 621 1256 l 1
EndSplineSet
EndChar

StartChar: cent
Encoding: 162 162 101
Width: 1118
Flags: W
HStem: 925 202<923 1013.78> 1455 20G<760.457 984>
VStem: 183 222<273.227 680.052>
DStem2: 440 -361 660 -361 0.173648 0.984808<38.2026 359.604 599.819 1297.83 1549.27 1864.37>
LayerCount: 2
Fore
SplineSet
660 -361 m 1
 440 -361 l 1
 502 -9 l 1
 285 32 183 200 183 417 c 3
 183 791 406 1071 702 1125 c 1
 764 1475 l 1
 984 1475 l 1
 923 1127 l 1
 1025 1112 1111 1078 1176 1047 c 1
 1136 821 l 1
 1104 821 l 1
 1028 884 952 912 887 925 c 1
 758 192 l 1
 826 205 909 234 1011 297 c 1
 1043 297 l 1
 1004 73 l 1
 994 68 l 1
 871 15 797 -6 722 -14 c 1
 660 -361 l 1
539 201 m 1
 666 917 l 1
 549 876 405 711 405 444 c 3
 405 301 467 231 539 201 c 1
EndSplineSet
EndChar

StartChar: sterling
Encoding: 163 163 102
Width: 1118
Flags: W
HStem: 0 232<114 214.636> 0 200<334 1047> 597 200<255 382 638 968> 1231 235<1135.31 1234> 1318 200<805.89 1135.94>
DStem2: 276.733 0 496.733 0 0.173648 0.984808<403.167 606.21 847.625 1290.95>
LayerCount: 2
Fore
SplineSet
1203 1231 m 1x30
 1128 1290 1037 1318 959 1318 c 3
 796 1318 711 1212 680 1036 c 2
 638 797 l 1
 1004 797 l 1
 968 597 l 1
 602 597 l 1
 559 353 436 262 334 200 c 1
 1082 200 l 1
 1047 0 l 1
 73 0 l 1x68
 114 232 l 1
 280 279 342 384 382 597 c 1
 219 597 l 1
 255 797 l 1
 418 797 l 1
 463 1055 l 2
 512 1331 718 1518 976 1518 c 3xa8
 1055 1518 1125 1511 1275 1466 c 1
 1234 1231 l 1
 1203 1231 l 1x30
EndSplineSet
EndChar

StartChar: currency
Encoding: 164 164 103
Width: 1118
Flags: W
HStem: 310 200<565.647 751.651> 812 200<601.026 787.498>
VStem: 322 221<530.219 752.99> 811 223<570.487 790.676>
DStem2: 91 273 195 141 0.761412 0.648268<0 346.08 1048.62 1398.23> 380 1180 227 1051 0.636332 -0.771415<2.15368 290.429 889.564 1176.42>
LayerCount: 2
Fore
SplineSet
322 608 m 3
 322 706 362 776 405 833 c 1
 227 1051 l 1
 380 1180 l 1
 558 964 l 1
 624 1000 686 1012 738 1012 c 3
 806 1012 863 989 903 965 c 1
 1156 1179 l 1
 1265 1052 l 1
 1010 834 l 1
 1025 797 1034 762 1034 721 c 3
 1034 627 1005 562 949 488 c 1
 1128 272 l 1
 976 143 l 1
 798 358 l 1
 733 324 684 310 615 310 c 3
 547 310 488 334 450 359 c 1
 195 141 l 1
 91 273 l 1
 343 489 l 1
 328 529 322 571 322 608 c 3
703 812 m 3
 615 812 543 724 543 631 c 3
 543 567 580 510 650 510 c 3
 737 510 811 597 811 690 c 3
 811 754 773 812 703 812 c 3
EndSplineSet
EndChar

StartChar: yen
Encoding: 165 165 104
Width: 1118
Flags: W
HStem: 0 21G<439 682.5> 320 220<194 495 772 1075> 1431 20G<270 544.672 1084.16 1357>
DStem2: 539 1451 270 1451 0.303295 -0.952897<0 626.46> 710 848 784 608 0.562149 0.827036<0 716.254>
LayerCount: 2
Fore
SplineSet
1357 1451 m 1
 784 608 l 1
 772 540 l 1
 1114 540 l 1
 1075 320 l 1
 735 320 l 1
 679 0 l 1
 439 0 l 1
 495 320 l 1
 155 320 l 1
 194 540 l 1
 536 540 l 1
 545 587 l 1
 270 1451 l 1
 539 1451 l 1
 710 848 l 1
 1097 1451 l 1
 1357 1451 l 1
EndSplineSet
EndChar

StartChar: brokenbar
Encoding: 166 166 105
Width: 783
Flags: W
VStem: 212 563
DStem2: 212 -392 432 -392 0.173648 0.984808<38.2026 810.361 1205.98 1977.97>
LayerCount: 2
Fore
SplineSet
635 758 m 1
 415 758 l 1
 555 1556 l 1
 775 1556 l 1
 635 758 l 1
432 -392 m 1
 212 -392 l 1
 353 406 l 1
 573 406 l 1
 432 -392 l 1
EndSplineSet
EndChar

StartChar: section
Encoding: 167 167 106
Width: 1118
Flags: W
HStem: -404 200<252.16 663.447> -338 221<135 234.099> 1252 221<1085.15 1183> 1339 200<648.589 1062.62>
VStem: 190 231<434.807 658.016> 328 228<1045.75 1254.5> 762 227<-116.38 90.6179> 896 231<473.044 696.702>
DStem2: 565 384 487 177 0.950461 -0.310843<-152.459 198.011> 702 995 593 802 0.958647 -0.284598<-83.1595 253.82>
LayerCount: 2
Fore
SplineSet
724 332 m 1x09
 771 359 896 451 896 600 c 3
 896 705 813 730 681 773 c 2
 593 802 l 1
 448 717 421 618 421 532 c 3
 421 443 479 413 565 384 c 2
 724 332 l 1x09
473 -204 m 3x82
 592 -204 762 -160 762 1 c 3
 762 77 710 111 615 139 c 2
 487 177 l 2
 340 221 190 281 190 463 c 3x8a
 190 604 241 741 445 861 c 1
 391 897 328 961 328 1079 c 3
 328 1317 514 1539 899 1539 c 3x94
 1033 1539 1127 1510 1222 1473 c 1
 1183 1252 l 1
 1153 1252 l 1x24
 1001 1336 895 1339 843 1339 c 3
 697 1339 556 1282 556 1141 c 3
 556 1066 607 1024 702 995 c 2
 830 957 l 2
 1005 905 1127 834 1127 671 c 3x15
 1127 524 1077 392 873 274 c 1
 929 238 989 174 989 58 c 3
 989 -157 823 -404 419 -404 c 3x92
 290 -404 186 -373 96 -338 c 1
 135 -117 l 1
 165 -117 l 1x42
 222 -150 336 -204 473 -204 c 3x82
EndSplineSet
EndChar

StartChar: dieresis
Encoding: 168 168 107
Width: 1118
Flags: W
HStem: 1288 227<504 697 917 1110>
LayerCount: 2
Fore
SplineSet
1110 1288 m 1
 877 1288 l 1
 917 1515 l 1
 1150 1515 l 1
 1110 1288 l 1
697 1288 m 1
 464 1288 l 1
 504 1515 l 1
 737 1515 l 1
 697 1288 l 1
EndSplineSet
EndChar

StartChar: copyright
Encoding: 169 169 108
Width: 1902
Flags: W
HStem: -226 142<701.221 1184.28> 164 200<906.967 1228.84> 959 200<1010.3 1316.47> 1393 142<949.068 1431.33>
VStem: 172 150<300.9 777.671> 619 224<430.809 781.902> 1811 149<532.723 1009.24>
LayerCount: 2
Fore
SplineSet
911 -226 m 3
 480 -226 172 93 172 505 c 3
 172 1086 713 1535 1222 1535 c 3
 1653 1535 1960 1216 1960 805 c 3
 1960 223 1420 -226 911 -226 c 3
1811 784 m 3
 1811 1129 1556 1393 1197 1393 c 3
 771 1393 322 1017 322 527 c 3
 322 182 575 -84 936 -84 c 3
 1364 -84 1811 295 1811 784 c 3
1402 852 m 1
 1356 899 1262 959 1155 959 c 3
 1039 959 843 864 843 572 c 3
 843 395 964 364 1050 364 c 3
 1186 364 1310 452 1335 471 c 1
 1373 471 l 1
 1333 245 l 1
 1185 185 1108 164 1011 164 c 3
 829 164 619 243 619 532 c 3
 619 925 885 1159 1186 1159 c 3
 1312 1159 1410 1118 1480 1080 c 1
 1440 852 l 1
 1402 852 l 1
EndSplineSet
EndChar

StartChar: ordfeminine
Encoding: 170 170 109
Width: 1010
Flags: W
HStem: 525 200<481.159 692.055> 999 200<557.056 846> 1335 200<449.881 866.792>
VStem: 240 226<740.976 927.378> 885 224<1198.19 1314.47>
DStem2: 762.592 525 982.592 525 0.173648 0.984808<63.5883 101.504 257.269 481.283 676.538 720.945>
LayerCount: 2
Fore
SplineSet
435 1486 m 1
 480 1499 623 1535 754 1535 c 3
 1012 1535 1109 1434 1109 1278 c 3
 1109 1252 1106 1223 1101 1194 c 2
 987 550 l 1
 767 550 l 1
 780 625 l 1
 694 549 574 525 497 525 c 3
 343 525 240 625 240 775 c 3
 240 1117 516 1180 881 1199 c 1
 883 1213 885 1225 885 1236 c 3
 885 1312 829 1335 717 1335 c 3
 662 1335 604 1330 434 1286 c 1
 400 1286 l 1
 435 1486 l 1
846 999 m 1
 644 985 466 981 466 822 c 3
 466 772 493 725 589 725 c 3
 634 725 706 730 815 823 c 1
 846 999 l 1
EndSplineSet
EndChar

StartChar: guillemotleft
Encoding: 171 171 110
Width: 1174
Flags: W
DStem2: 421 652 193 601 0.694865 -0.71914<0 395.397> 211 704 421 652 0.797854 0.602851<136.201 607.617> 866 652 645 603 0.703119 -0.711073<0 372.659> 663 702 866 652 0.801606 0.597853<132.833 576.432>
LayerCount: 2
Fore
SplineSet
1087 156 m 1
 645 603 l 1
 663 702 l 1
 1261 1148 l 1
 1221 918 l 1
 866 652 l 1
 1127 386 l 1
 1087 156 l 1
651 127 m 1
 193 601 l 1
 211 704 l 1
 837 1177 l 1
 795 939 l 1
 421 652 l 1
 693 365 l 1
 651 127 l 1
EndSplineSet
EndChar

StartChar: logicalnot
Encoding: 172 172 111
Width: 1490
Flags: W
HStem: 578 200<278 1221>
DStem2: 1126 41 1346 41 0.173648 0.984808<38.2026 545.338>
LayerCount: 2
Fore
SplineSet
1346 41 m 1
 1126 41 l 1
 1221 578 l 1
 243 578 l 1
 278 778 l 1
 1476 778 l 1
 1346 41 l 1
EndSplineSet
EndChar

StartChar: registered
Encoding: 174 174 113
Width: 1902
Flags: W
HStem: -226 142<701.221 1184.28> 946 200<1021 1245.83> 1393 142<949.068 1431.33>
VStem: 172 150<300.9 777.671> 1252 226<795.162 1006.12> 1811 149<532.723 1009.24>
DStem2: 594.061 -226 814.061 -226 0.173648 0.984808<469.759 830.306 1033.34 1228.33> 1258 619 1028 554 0.526355 -0.850265<0 351.848>
LayerCount: 2
Fore
SplineSet
911 -226 m 3
 480 -226 172 93 172 505 c 3
 172 1086 713 1535 1222 1535 c 3
 1653 1535 1960 1216 1960 805 c 3
 1960 223 1420 -226 911 -226 c 3
1811 784 m 3
 1811 1129 1556 1393 1197 1393 c 3
 771 1393 322 1017 322 527 c 3
 322 182 575 -84 936 -84 c 3
 1364 -84 1811 295 1811 784 c 3
1258 619 m 1
 1518 199 l 1
 1248 199 l 1
 1028 554 l 1
 952 554 l 1
 889 199 l 1
 669 199 l 1
 836 1146 l 1
 1131 1146 l 2
 1354 1146 1478 1078 1478 932 c 3
 1478 786 1401 687 1258 619 c 1
1046 754 m 2
 1203 754 1252 815 1252 882 c 3
 1252 936 1185 946 1097 946 c 2
 1021 946 l 1
 987 754 l 1
 1046 754 l 2
EndSplineSet
EndChar

StartChar: macron
Encoding: 175 175 114
Width: 1118
Flags: W
HStem: 1643 162<302 1424>
LayerCount: 2
Fore
SplineSet
1424 1643 m 1
 274 1643 l 1
 302 1805 l 1
 1452 1805 l 1
 1424 1643 l 1
EndSplineSet
EndChar

StartChar: degree
Encoding: 176 176 115
Width: 964
Flags: W
HStem: 739 200<550.176 764.526> 1331 200<605.782 814.795>
VStem: 278 224<989.568 1228.08> 862 224<1040.28 1285.19>
LayerCount: 2
Fore
SplineSet
752 1531 m 3
 948 1531 1086 1399 1086 1209 c 3
 1086 934 848 739 612 739 c 3
 417 739 278 870 278 1060 c 3
 278 1335 515 1531 752 1531 c 3
717 1331 m 3
 620 1331 502 1225 502 1101 c 3
 502 1007 575 939 648 939 c 3
 749 939 862 1050 862 1169 c 3
 862 1262 793 1331 717 1331 c 3
EndSplineSet
EndChar

StartChar: plusminus
Encoding: 177 177 116
Width: 1490
Flags: W
HStem: 143 220<210 689 929 1369> 723 220<312 752 1031 1471>
DStem2: 650.208 143 890.208 143 0.173648 0.984808<265.069 588.865 853.97 1294.66>
LayerCount: 2
Fore
SplineSet
1369 143 m 1
 171 143 l 1
 210 363 l 1
 689 363 l 1
 752 723 l 1
 273 723 l 1
 312 943 l 1
 791 943 l 1
 875 1418 l 1
 1115 1418 l 1
 1031 943 l 1
 1510 943 l 1
 1471 723 l 1
 992 723 l 1
 929 363 l 1
 1408 363 l 1
 1369 143 l 1
EndSplineSet
EndChar

StartChar: uni00B2
Encoding: 178 178 117
Width: 1010
Flags: W
HStem: 534 200<579 913> 1318 200<640.062 809.188>
VStem: 383 220<1179 1278.44> 818 222<1145.85 1307.42>
LayerCount: 2
Fore
SplineSet
770 1518 m 3
 936 1518 1040 1425 1040 1287 c 3
 1040 1020 724 866 579 734 c 1
 948 734 l 1
 913 534 l 1
 244 534 l 1
 283 681 364 794 451 868 c 0
 610 1004 818 1125 818 1246 c 3
 818 1287 775 1318 733 1318 c 3
 653 1318 621 1266 603 1179 c 1
 383 1179 l 1
 419 1385 556 1518 770 1518 c 3
EndSplineSet
EndChar

StartChar: uni00B3
Encoding: 179 179 118
Width: 1010
Flags: W
HStem: 528 200<558.079 726.123> 946 200<591 746.556> 1318 200<642.738 780.456>
VStem: 313 227<737.445 863> 391 220<1198 1289.59> 758 226<760.953 930.358> 785 223<1169.19 1312.03>
LayerCount: 2
Fore
SplineSet
1008 1298 m 3xea
 1008 1197 969 1113 914 1068 c 1
 964 1038 984 985 984 920 c 3
 984 687 795 528 583 528 c 3
 417 528 313 627 313 788 c 3
 313 812 315 837 320 863 c 1
 540 863 l 1
 540 785 563 728 618 728 c 3
 702 728 758 785 758 859 c 3xf4
 758 909 718 946 647 946 c 0
 613 946 581 936 553 928 c 1
 591 1146 l 1
 725 1146 785 1166 785 1257 c 3
 785 1284 748 1318 722 1318 c 3
 660 1318 632 1273 611 1198 c 1
 391 1198 l 1
 424 1386 562 1518 753 1518 c 3
 900 1518 1008 1433 1008 1298 c 3xea
EndSplineSet
EndChar

StartChar: acute
Encoding: 180 180 119
Width: 1118
Flags: W
HStem: 1286 406
VStem: 651 549
LayerCount: 2
Fore
SplineSet
1200 1692 m 1
 833 1286 l 1
 651 1286 l 1
 916 1692 l 1
 1200 1692 l 1
EndSplineSet
EndChar

StartChar: mu
Encoding: 181 181 120
Width: 1163
Flags: W
HStem: -13 200<457.696 745.722>
DStem2: 47 -412 267 -412 0.173648 0.984808<38.2026 549.016 723.405 1552.66> 750.353 -412 970.353 -412 0.173648 0.984808<456.558 518.804 670.39 1552.59>
LayerCount: 2
Fore
SplineSet
611 187 m 3
 717 187 797 228 875 297 c 1
 1020 1117 l 1
 1240 1117 l 1
 1043 0 l 1
 823 0 l 1
 840 99 l 1
 720 -1 656 -13 576 -13 c 3
 481 -13 422 10 356 91 c 1
 267 -412 l 1
 47 -412 l 1
 317 1117 l 1
 537 1117 l 1
 392 297 l 1
 441 227 513 187 611 187 c 3
EndSplineSet
EndChar

StartChar: paragraph
Encoding: 182 182 121
Width: 1118
Flags: W
HStem: 1289 200<898 1005>
DStem2: 387 -363 607 -363 0.173648 0.984808<38.2026 939.252> 714 -363 934 -363 0.173648 0.984808<38.2026 1677.43>
LayerCount: 2
Fore
SplineSet
775 1489 m 2
 1261 1489 l 1
 934 -363 l 1
 714 -363 l 1
 1005 1289 l 1
 898 1289 l 1
 607 -363 l 1
 387 -363 l 1
 550 562 l 1
 354 573 214 713 214 933 c 3
 214 1296 486 1489 775 1489 c 2
EndSplineSet
EndChar

StartChar: periodcentered
Encoding: 183 183 122
Width: 724
Flags: W
HStem: 816 317<427 642>
VStem: 371 327
LayerCount: 2
Fore
SplineSet
642 816 m 1
 371 816 l 1
 427 1133 l 1
 698 1133 l 1
 642 816 l 1
EndSplineSet
EndChar

StartChar: cedilla
Encoding: 184 184 123
Width: 1118
Flags: W
HStem: -428 200<247.908 514.442> -400 206<239 389.183>
VStem: 572 218<-161.48 47>
LayerCount: 2
Fore
SplineSet
267 -194 m 1x60
 307 -214 352 -228 400 -228 c 3
 486 -228 535 -190 552 -96 c 0
 560 -51 560 -40 572 47 c 1
 790 47 l 1
 787 11 781 -44 775 -78 c 0
 726 -354 522 -428 391 -428 c 3xa0
 353 -428 266 -420 202 -400 c 1
 239 -194 l 1
 267 -194 l 1x60
EndSplineSet
EndChar

StartChar: uni0E01
Encoding: 3585 3585 124
Width: 1417
VWidth: 2045
Flags: W
HStem: 0 21G<260 483.538 1041 1265.53> 701 220<604 715> 1062 222<684.762 1032.52>
VStem: 1170 226<509.312 923.658>
DStem2: 260 0 480 0 0.173648 0.984808<38.2026 711.883> 1041 0 1262 0 0.173648 0.984808<38.3762 775.793>
LayerCount: 2
Fore
SplineSet
1164 700 m 2
 1168 723 1170 745 1170 766 c 0
 1170 941 1041 1062 867 1062 c 0
 696 1062 585 951 557 921 c 1
 753 921 l 1
 715 701 l 1
 604 701 l 1
 480 0 l 1
 260 0 l 1
 384 701 l 1
 224 701 l 1
 280 1022 581 1284 908 1284 c 0
 1183 1284 1396 1092 1396 809 c 0
 1396 774 1392 739 1386 702 c 2
 1262 0 l 1
 1041 0 l 1
 1164 700 l 2
EndSplineSet
EndChar

StartChar: uni0E02
Encoding: 3586 3586 125
Width: 1410
VWidth: 2045
Flags: W
HStem: 0 220<450 560 780 1074> 618 188<418.432 575.573> 982 287<511.09 826.5> 1234 20G<1252.48 1476>
VStem: 227 186<813.372 959.129> 596 187<826.351 975.664> 843 222<763.879 1032.79>
DStem2: 521.208 0 741.208 0 0.173648 0.984808<261.596 617.546> 1035.21 0 1255 0 0.173648 0.984808<223.394 1273.29>
LayerCount: 2
Fore
SplineSet
227 844 m 0xde
 227 1075 471 1269 713 1269 c 0xee
 940 1269 1065 1130 1065 950 c 0
 1065 824 1008 704 891 581 c 1
 851 535 826 483 816 425 c 2
 780 220 l 1
 1074 220 l 1
 1256 1254 l 1
 1476 1254 l 1
 1255 0 l 1
 411 0 l 1
 450 220 l 1
 560 220 l 1
 596 426 l 2
 613 519 667 612 758 706 c 0
 817 766 843 843 843 916 c 0
 843 977 821 1040 741 1074 c 1
 769 1031 783 985 783 938 c 0
 783 778 634 618 457 618 c 0
 319 618 227 716 227 844 c 0xde
493 806 m 0
 551 806 596 858 596 909 c 0
 596 953 562 982 521 982 c 0
 467 982 413 934 413 876 c 0
 413 833 445 806 493 806 c 0
EndSplineSet
EndChar

StartChar: uni0E03
Encoding: 3587 3587 126
Width: 1542
VWidth: 2045
Flags: W
HStem: 0 220<570 680 900 1204> 468 190<430.954 585.433> 834 184<498.128 599.241> 1244 10G<526 635.318 888.773 957.5 1382.48 1606>
VStem: 195 230<665.86 810.915> 608 191<679.287 827.215> 975 214<751.412 1040.24>
DStem2: 641.208 0 861.208 0 0.173648 0.984808<261.596 557.134> 1165.21 0 1385 0 0.173648 0.984808<223.394 1273.29>
LayerCount: 2
Fore
SplineSet
799 798 m 0
 799 608 615 468 471 468 c 0
 395 468 195 526 195 768 c 0
 195 1078 451 1238 601 1264 c 1
 752 1176 l 1
 929 1264 l 1
 986 1256 1048 1216 1114 1144 c 1
 1164 1087 1189 1019 1189 934 c 0
 1189 906 1186 876 1181 844 c 0
 1132 565 962 570 922 345 c 2
 900 220 l 1
 1204 220 l 1
 1386 1254 l 1
 1606 1254 l 1
 1385 0 l 1
 531 0 l 1
 570 220 l 1
 680 220 l 1
 705 365 l 1
 747 600 975 687 975 919 c 0
 975 990 948 1037 886 1076 c 1
 717 1000 l 1
 574 1073 l 1
 528 1064 502 1046 497 1018 c 1
 744 1018 799 897 799 798 c 0
505 658 m 0
 563 658 608 710 608 761 c 0
 608 805 574 834 533 834 c 0
 479 834 425 786 425 728 c 0
 425 685 457 658 505 658 c 0
EndSplineSet
EndChar

StartChar: uni0E04
Encoding: 3588 3588 127
Width: 1460
VWidth: 2045
Flags: W
HStem: 0 21G<141 372.561 1082 1306.53> 330 186<740.639 892.535> 694 184<756.908 909.115> 1062 222<730.041 1073.52>
VStem: 917 188<538.438 687.686> 1211 226<626.896 922.711>
DStem2: 141.218 0 361.3 0 0.173648 0.984808<497.19 928.692> 1082 0 1303 0 0.173648 0.984808<38.3762 775.793>
LayerCount: 2
Fore
SplineSet
811 516 m 0
 875 516 917 574 917 621 c 0
 917 661 888 694 842 694 c 0
 786 694 735 645 735 591 c 0
 735 551 762 516 811 516 c 0
1105 652 m 0
 1105 489 955 330 778 330 c 0
 703 330 643 357 598 410 c 9
 361 0 l 17
 141 0 l 1
 265 702 l 2
 324 1039 640 1284 949 1284 c 0
 1224 1284 1437 1092 1437 809 c 0
 1437 774 1433 739 1427 702 c 2
 1303 0 l 1
 1082 0 l 1
 1205 700 l 2
 1209 723 1211 745 1211 766 c 0
 1211 941 1082 1062 908 1062 c 0
 703 1062 520 899 485 702 c 2
 441 452 l 1
 602 726 l 2
 622 760 720 878 875 878 c 0
 1013 878 1105 780 1105 652 c 0
EndSplineSet
EndChar

StartChar: uni0E05
Encoding: 3589 3589 128
Width: 1452
VWidth: 2045
Flags: W
HStem: 0 21G<141 372.561 1082 1306.53> 330 186<740.382 892.387> 694 184<756.856 909.112> 1264 20G<1176.67 1298>
VStem: 917 188<538.405 687.638> 1229 228<622.359 1002.22>
DStem2: 141.112 0 361.3 0 0.173648 0.984808<497.208 1021.38> 1082 0 1303 0 0.173648 0.984808<38.3762 880.121>
LayerCount: 2
Fore
SplineSet
811 516 m 0
 869 516 917 568 917 621 c 0
 917 665 883 694 842 694 c 0
 788 694 734 646 734 590 c 0
 734 549 764 516 811 516 c 0
1105 652 m 0
 1105 489 955 330 778 330 c 0
 703 330 643 357 598 410 c 9
 361 0 l 17
 141 0 l 1
 279 782 l 2
 319 1010 445 1241 698 1286 c 1
 934 1134 l 1
 1214 1284 l 1
 1382 1221 1457 1124 1457 946 c 0
 1457 898 1452 843 1441 782 c 2
 1303 0 l 1
 1082 0 l 1
 1220 780 l 2
 1226 813 1229 843 1229 869 c 0
 1229 961 1195 1016 1129 1036 c 1
 886 917 l 1
 689 1036 l 1
 588 1013 525 929 499 782 c 2
 441 452 l 1
 602 726 l 2
 622 760 720 878 875 878 c 0
 1013 878 1105 780 1105 652 c 0
EndSplineSet
EndChar

StartChar: uni0E06
Encoding: 3590 3590 129
Width: 1623
VWidth: 2045
Flags: W
HStem: -20 186<542.153 694.178> 0 21G<1222.43 1473.52> 344 188<557.32 711.709> 549 159<401.499 556.277> 884 150<485.711 571.905> 1254 0G<572.5 647.318 900.773 969.5 1467.48 1691>
VStem: 198 196<715.955 860.098> 349 186<174.444 320.396> 577 171<729.59 877.022> 991 211<802.482 1066.03>
DStem2: 964 448 926 235 0.809492 -0.587131<94.2983 394.237> 1246.62 -20 1466.47 -20 0.173648 0.984808<249.795 1293.61>
LayerCount: 2
Fore
SplineSet
611 166 m 0xbdc0
 675 166 717 224 717 271 c 0
 717 312 689 344 643 344 c 0
 586 344 535 294 535 241 c 0
 535 201 562 166 611 166 c 0xbdc0
349 205 m 0
 349 388 516 532 676 532 c 0
 720 532 750 529 767 522 c 1
 797 688 991 755 991 945 c 0
 991 1072 901 1095 899 1096 c 1
 731 1020 l 1
 588 1093 l 1
 534 1078 500 1056 485 1026 c 1
 507 1032 527 1034 547 1034 c 0
 634 1034 748 971 748 848 c 0
 748 756 675 549 440 549 c 0
 280 549 198 653 198 781 c 0
 198 847 228 1025 366 1143 c 1
 449 1216 532 1260 613 1274 c 1
 764 1186 l 1
 941 1274 l 1
 998 1266 1060 1226 1125 1154 c 0
 1176 1097 1202 1029 1202 948 c 0
 1202 923 1200 898 1195 871 c 0
 1147 602 994 618 964 448 c 9
 1290 226 l 1
 1471 1254 l 1
 1691 1254 l 1
 1470 0 l 25
 1250 0 l 25x7ec0
 926 235 l 17
 905 112 781 -20 594 -20 c 0
 432 -20 349 83 349 205 c 0
474 708 m 0
 532 708 577 761 577 813 c 0
 577 856 543 884 502 884 c 0
 452 884 394 839 394 780 c 0
 394 736 426 708 474 708 c 0
EndSplineSet
EndChar

StartChar: uni0E07
Encoding: 3591 3591 130
Width: 1081
VWidth: 2045
Flags: W
HStem: 0 21G<687.523 927.52> 726 186<740.272 832.207> 1090 184<756.04 909.103>
VStem: 548 186<920.549 1065.66> 917 187<935.132 1084.01>
DStem2: 368 728 213 596 0.635843 -0.771818<3.32426 602.559> 703.802 0 924 0 0.173648 0.984808<266.042 742.329>
LayerCount: 2
Fore
SplineSet
548 952 m 0
 548 1115 698 1274 875 1274 c 0
 1013 1274 1104 1176 1104 1049 c 0
 1104 1033 1103 1017 1100 1000 c 10
 924 0 l 1
 704 0 l 9
 213 596 l 1
 368 728 l 1
 750 262 l 25
 833 731 l 1
 815 728 797 726 778 726 c 0
 640 726 548 824 548 952 c 0
811 912 m 0
 869 912 917 964 917 1017 c 0
 917 1061 883 1090 842 1090 c 0
 788 1090 734 1042 734 986 c 0
 734 945 764 912 811 912 c 0
EndSplineSet
EndChar

StartChar: uni0E08
Encoding: 3592 3592 131
Width: 1368
VWidth: 2045
Flags: W
HStem: 0 21G<847.794 1075.75> 352 186<667.571 819.273> 716 184<680.092 834.202> 1064 220<676.445 1001.89>
VStem: 235 220<732 847.881> 472 187<546.338 692.322> 841 188<558.83 709.358> 1124 224<610.387 944.449>
DStem2: 1032 485 1305 612 0.361122 0.932518<0 317.662>
LayerCount: 2
Fore
SplineSet
472 578 m 0
 472 741 622 900 799 900 c 0
 948 900 1028 790 1029 678 c 10
 1032 485 l 1
 1100 661 l 18
 1115 699 1124 750 1124 792 c 0
 1124 948 1010 1064 846 1064 c 0
 661 1064 488 916 455 732 c 9
 235 732 l 17
 292 1053 592 1284 884 1284 c 0
 1169 1284 1348 1079 1348 829 c 0
 1348 774 1338 692 1305 612 c 9
 1068 0 l 1
 848 0 l 1
 844 388 l 17
 799 364 752 352 702 352 c 0
 564 352 472 450 472 578 c 0
735 538 m 0
 799 538 841 596 841 643 c 0
 841 683 812 716 766 716 c 0
 710 716 659 667 659 613 c 0
 659 573 686 538 735 538 c 0
EndSplineSet
EndChar

StartChar: uni0E09
Encoding: 3593 3593 132
Width: 1466
VWidth: 2045
Flags: W
HStem: -20 186<1060.13 1212.19> 0 21G<405 655.465> 254 186<357.272 449.207> 618 184<372.766 528.653> 1064 220<672.133 1000.11>
VStem: 165 186<448.636 594.016> 534 187<463.081 612.107> 1126 223<523.539 942.878> 1235 188<186.826 337.361>
LayerCount: 2
Fore
SplineSet
165 480 m 0x7e80
 165 646 316 802 491 802 c 0
 629 802 721 704 721 577 c 0
 721 561 720 545 717 528 c 2
 666 240 l 25
 1014 470 l 2
 1040 487 1062 499 1081 507 c 9
 1121 729 l 2
 1125 750 1126 770 1126 790 c 0
 1126 952 1006 1064 846 1064 c 0
 661 1064 541 925 501 859 c 9
 313 942 l 17
 420 1124 632 1284 884 1284 c 0
 1161 1284 1349 1084 1349 828 c 0x7f
 1349 796 1347 765 1341 732 c 2
 1301 505 l 17
 1345 483 1423 422 1423 304 c 0
 1423 129 1263 -20 1096 -20 c 0xbe80
 942 -20 884 94 871 157 c 9
 624 0 l 9
 405 0 l 25
 451 259 l 1
 433 256 414 254 395 254 c 0
 257 254 165 352 165 480 c 0x7e80
1129 166 m 0xbe80
 1193 166 1235 224 1235 271 c 0
 1235 312 1207 344 1161 344 c 0
 1104 344 1053 294 1053 241 c 0
 1053 201 1080 166 1129 166 c 0xbe80
428 440 m 0
 486 440 534 493 534 547 c 0
 534 590 500 618 459 618 c 0
 409 618 351 573 351 515 c 0
 351 474 381 440 428 440 c 0
EndSplineSet
EndChar

StartChar: uni0E0A
Encoding: 3594 3594 133
Width: 1435
VWidth: 2045
Flags: W
HStem: 0 220<450 560 780 1074> 618 188<418.432 575.573> 982 287<511.09 826.5>
VStem: 227 186<813.372 959.129> 596 187<826.351 975.664> 843 222<764.254 1032.79> 1160 223<479.875 754.365> 1384 219<1226.34 1368>
DStem2: 521.208 0 741.208 0 0.173648 0.984808<261.596 617.546> 1035.21 0 1255 0 0.173648 0.984808<223.394 725.624>
LayerCount: 2
Fore
SplineSet
227 844 m 0
 227 1075 471 1269 713 1269 c 0
 940 1269 1065 1130 1065 950 c 0
 1065 825 1006 705 891 581 c 0
 852 538 827 486 816 425 c 2
 780 220 l 1
 1074 220 l 1
 1159 704 l 18
 1160 708 1160 711 1160 715 c 0
 1160 742 1138 756 1093 756 c 1
 1132 976 l 1
 1235 1025 1353 1189 1384 1368 c 1
 1603 1368 l 1
 1569 1172 1465 1003 1343 879 c 1
 1369 842 1383 799 1383 752 c 0
 1383 736 1381 719 1378 702 c 2
 1255 0 l 1
 411 0 l 1
 450 220 l 1
 560 220 l 1
 596 426 l 2
 613 519 667 612 758 706 c 0
 817 766 843 843 843 916 c 0
 843 977 821 1040 741 1074 c 1
 769 1031 783 985 783 938 c 0
 783 778 634 618 457 618 c 0
 319 618 227 716 227 844 c 0
493 806 m 0
 551 806 596 858 596 909 c 0
 596 953 562 982 521 982 c 0
 467 982 413 934 413 876 c 0
 413 833 445 806 493 806 c 0
EndSplineSet
EndChar

StartChar: uni0E0B
Encoding: 3595 3595 134
Width: 1572
VWidth: 2045
Flags: W
HStem: 0 220<570 680 900 1194> 468 190<430.885 586.487> 834 184<498.128 599.241> 1244 20G<519.5 635.318 888.773 957.5>
VStem: 195 230<666.661 810.576> 608 191<677.534 827.215> 975 215<753.005 1040.9> 1280 223<479.875 754.365> 1504 219<1226.34 1368>
DStem2: 641.208 0 861.208 0 0.173648 0.984808<261.596 556.836> 1155.21 0 1375 0 0.173648 0.984808<223.394 725.624>
LayerCount: 2
Fore
SplineSet
799 798 m 0
 799 618 627 468 464 468 c 0
 394 468 195 529 195 769 c 0
 195 1066 438 1236 601 1264 c 1
 752 1176 l 1
 929 1264 l 1
 986 1256 1048 1216 1114 1144 c 0
 1167 1085 1190 1009 1190 929 c 0
 1190 902 1187 874 1182 846 c 0
 1134 572 961 566 922 345 c 2
 900 220 l 1
 1194 220 l 1
 1279 704 l 18
 1280 708 1280 711 1280 715 c 0
 1280 742 1258 756 1213 756 c 1
 1252 976 l 1
 1355 1025 1473 1189 1504 1368 c 1
 1723 1368 l 1
 1689 1172 1585 1003 1463 879 c 1
 1489 842 1503 799 1503 752 c 0
 1503 736 1501 719 1498 702 c 2
 1375 0 l 1
 531 0 l 1
 570 220 l 1
 680 220 l 1
 705 365 l 1
 747 600 975 687 975 919 c 0
 975 990 948 1037 886 1076 c 1
 717 1000 l 1
 574 1073 l 1
 528 1064 502 1046 497 1018 c 1
 744 1018 799 897 799 798 c 0
505 658 m 0
 563 658 608 710 608 761 c 0
 608 805 574 834 533 834 c 0
 479 834 425 786 425 728 c 0
 425 685 457 658 505 658 c 0
1598 1362 m 1
EndSplineSet
EndChar

StartChar: uni0E0C
Encoding: 3596 3596 135
Width: 1940
VWidth: 2045
Flags: W
HStem: -10 186<451.471 600.535 1063.58 1215.38> 354 179<529.324 617.115> 701 220<559 670> 1062 222<679.916 1027.52> 1234 20G<1769.47 1993>
VStem: 256 187<183.554 332.485> 625 188<198.438 347.686> 869 186<183.946 331.326> 1165 226<638.219 922.711>
DStem2: 1034.61 -10 1254.89 -10 0.173648 0.984808<527.617 785.883> 1549.92 -10 1770.24 -10 0.173648 0.984808<253.857 1283.53>
LayerCount: 2
Fore
SplineSet
1131 176 m 0xe780
 1195 176 1237 234 1237 281 c 0
 1237 321 1208 354 1162 354 c 0
 1106 354 1055 305 1055 251 c 0
 1055 211 1082 176 1131 176 c 0xe780
519 176 m 0
 583 176 625 234 625 281 c 0
 625 321 596 354 550 354 c 0
 494 354 443 305 443 251 c 0
 443 211 470 176 519 176 c 0
813 312 m 0
 813 149 663 -10 486 -10 c 0
 347 -10 256 88 256 214 c 0
 256 230 258 247 261 264 c 2
 339 701 l 1
 219 701 l 1
 275 1022 576 1284 903 1284 c 0xf780
 1178 1284 1391 1092 1391 809 c 0
 1391 774 1387 739 1381 702 c 2
 1342 484 l 17
 1356 475 1366 466 1375 458 c 2
 1594 240 l 25
 1773 1254 l 1
 1993 1254 l 1xef80
 1772 0 l 25
 1552 0 l 17
 1386 167 l 1
 1351 104 1252 -10 1098 -10 c 0
 960 -10 869 88 869 215 c 0
 869 366 988 499 1130 531 c 1
 1159 700 l 2
 1163 723 1165 745 1165 766 c 0
 1165 940 1036 1062 862 1062 c 0xf780
 691 1062 581 952 552 921 c 1
 708 921 l 1
 670 701 l 1
 559 701 l 1
 529 533 l 17
 547 536 564 538 583 538 c 0
 721 538 813 440 813 312 c 0
EndSplineSet
EndChar

StartChar: uni0E0D
Encoding: 3597 3597 136
Width: 1940
VWidth: 2045
Flags: W
HStem: -577 192<998.537 1280.94> -577 163<1228 1394.28> -207 134<1012.04 1167.03> -10 186<451.471 600.535> 0 220<1297 1591> 354 179<529.324 617.115> 701 220<559 670> 1062 222<679.916 1029.49> 1234 20G<1769.48 1993>
VStem: 256 187<183.554 332.485> 625 188<198.438 347.686> 854 137<-378.566 -229.747> 1167 224<629.337 917.368> 1174 138<-361.461 -214.718>
DStem2: 936.259 -577 1156.47 -577 0.173648 0.984808<847.534 1362.68> 1450.47 -577 1670.26 -577 0.173648 0.984808<809.295 1859.19>
LayerCount: 2
Fore
SplineSet
813 312 m 0x2f78
 813 149 663 -10 486 -10 c 0
 347 -10 256 88 256 214 c 0
 256 230 258 247 261 264 c 2
 339 701 l 1
 219 701 l 1
 275 1022 576 1284 903 1284 c 0x3778
 1188 1284 1391 1083 1391 805 c 0
 1391 772 1388 738 1382 703 c 2
 1297 220 l 17
 1591 220 l 9
 1773 1254 l 1
 1993 1254 l 1x2ef8
 1772 0 l 25
 1038 0 l 25
 1161 700 l 2
 1165 723 1167 746 1167 767 c 0
 1167 942 1036 1062 862 1062 c 0
 691 1062 581 952 552 921 c 1
 708 921 l 1
 670 701 l 1
 559 701 l 1
 529 533 l 17
 547 536 564 538 583 538 c 0
 721 538 813 440 813 312 c 0x2f78
519 176 m 0
 583 176 625 234 625 281 c 0
 625 321 596 354 550 354 c 0
 494 354 443 305 443 251 c 0
 443 211 470 176 519 176 c 0
1312 -251 m 0xa674
 1312 -305 1285 -378 1228 -414 c 1
 1242 -414 l 2x6674
 1418 -414 1526 -267 1594 -154 c 1
 1720 -249 l 1
 1639 -374 1551 -460 1455 -507 c 0
 1360 -553 1263 -577 1165 -577 c 0
 998 -577 936 -525 908 -488 c 0
 872 -442 854 -394 854 -342 c 0
 854 -219 959 -73 1122 -73 c 0
 1231 -73 1312 -154 1312 -251 c 0xa674
1066 -385 m 0xa674
 1115 -385 1174 -341 1174 -281 c 0
 1174 -238 1139 -207 1098 -207 c 0
 1046 -207 991 -252 991 -311 c 0
 991 -352 1020 -385 1066 -385 c 0xa674
EndSplineSet
Substitution2: "Thai Descender Removal Single Substitution" uni0E0D.descless
EndChar

StartChar: uni0E0E
Encoding: 3598 3598 137
Width: 1493
VWidth: 2045
Flags: W
HStem: -626 186<374.185 533.359> -262 184<391.625 548.873> -10 186<281.405 433.993> 354 184<295.684 449.989> 701 220<714 825> 1062 222<744.762 1092.52>
VStem: 86 188<183.583 332.007> 182 186<-432.195 -284.695> 1230 226<625.216 922.711>
DStem2: 585 -350 620 -546 0.756274 0.654255<-164.628 -3.27349 202.828 349.13> 983.056 -668 1203.81 -668 0.173648 0.984808<397.032 1454.13>
AnchorPoint: "BelowBase" 1059 -661 basechar 0
LayerCount: 2
Fore
SplineSet
86 215 m 0xfe80
 86 387 242 538 412 538 c 0
 431 538 448 536 464 533 c 9
 494 701 l 1
 284 701 l 1
 340 1022 641 1284 968 1284 c 0
 1243 1284 1456 1092 1456 809 c 0
 1456 774 1452 739 1446 702 c 2
 1265 -321 l 25
 851 -668 l 1
 694 -481 l 25
 620 -546 l 1
 556 -599 487 -626 412 -626 c 0
 274 -626 182 -528 182 -401 c 0xfd80
 182 -229 339 -78 508 -78 c 0
 583 -78 643 -105 688 -158 c 2
 739 -218 l 25
 852 -120 l 1
 961 -251 l 1
 847 -349 l 17
 897 -408 l 17
 1052 -277 l 25
 1224 700 l 2
 1228 723 1230 745 1230 766 c 0
 1230 941 1101 1062 927 1062 c 0
 756 1062 645 951 617 921 c 1
 863 921 l 1
 825 701 l 1
 714 701 l 1
 638 264 l 2
 611 114 470 -10 315 -10 c 0
 177 -10 86 88 86 215 c 0xfe80
476 -262 m 0
 419 -262 368 -314 368 -365 c 0
 368 -407 397 -440 444 -440 c 0
 469 -440 492 -431 512 -414 c 2
 585 -350 l 25
 534 -288 l 2
 520 -271 501 -262 476 -262 c 0
379 354 m 0
 326 354 274 307 274 250 c 0xfe80
 274 211 299 176 348 176 c 0
 412 176 456 233 456 280 c 0
 456 321 425 354 379 354 c 0
EndSplineSet
EndChar

StartChar: uni0E0F
Encoding: 3599 3599 138
Width: 1493
VWidth: 2045
Flags: W
HStem: -610 188<182.822 339.066> -244 182<197.159 354.87> -10 186<281.405 433.993> 354 184<295.684 449.989> 701 220<714 825> 1062 222<744.762 1092.52>
VStem: -12 186<-414.755 -267.989> 86 188<183.583 332.007> 1230 226<513.5 923.658>
DStem2: 391 -332 425 -530 0.755934 0.654648<-163.861 -4.67147 200.762 300.879> 989.051 -634 1209.81 -634 0.173648 0.984808<362.507 1419.6>
AnchorPoint: "BelowBase" 948 -661 basechar 0
LayerCount: 2
Fore
SplineSet
-12 -385 m 0xfe80
 -12 -213 144 -62 314 -62 c 0
 389 -62 449 -89 493 -142 c 2
 544 -202 l 25
 622 -134 l 1
 731 -265 l 1
 653 -333 l 17
 685 -371 l 25
 840 -241 l 9
 944 -368 l 1
 1052 -277 l 25
 1224 700 l 2
 1228 723 1230 745 1230 766 c 0
 1230 941 1101 1062 927 1062 c 0
 756 1062 645 951 617 921 c 1
 863 921 l 1
 825 701 l 1
 714 701 l 1
 638 264 l 2
 611 114 470 -10 315 -10 c 0
 177 -10 86 88 86 215 c 0xfd80
 86 387 242 538 412 538 c 0
 431 538 448 536 464 533 c 9
 494 701 l 1
 284 701 l 1
 340 1022 641 1284 968 1284 c 0
 1243 1284 1456 1092 1456 809 c 0
 1456 774 1452 739 1446 702 c 2
 1265 -321 l 25
 898 -628 l 1
 795 -501 l 17
 638 -634 l 25
 500 -465 l 9
 425 -530 l 1
 362 -583 292 -610 217 -610 c 0
 79 -610 -12 -512 -12 -385 c 0xfe80
283 -244 m 0
 223 -244 174 -298 174 -347 c 0xfe80
 174 -388 204 -422 251 -422 c 0
 276 -422 298 -413 318 -396 c 2
 391 -332 l 25
 340 -270 l 2
 326 -253 307 -244 283 -244 c 0
379 354 m 0
 326 354 274 307 274 250 c 0xfd80
 274 211 299 176 348 176 c 0
 412 176 456 233 456 280 c 0
 456 321 425 354 379 354 c 0
EndSplineSet
EndChar

StartChar: uni0E10
Encoding: 3600 3600 139
Width: 1245
VWidth: 2045
Flags: W
HStem: -807 134<-61.3634 92.673> -521 133<656.042 747.494> -494 134<-46.6107 108.469> -210 134<673.287 826.371> 0 21G<695.5 924.429> 132 186<465.745 620.691> 496 184<482.604 633.598> 732 186<546 899.283> 1064 220<675.525 1000.77>
VStem: -204 136<-665.089 -515.212> 274 186<326.238 473.971> 512 137<-380.844 -234.098> 832 137<-366.059 -216.976> 907 222<521.297 724.14>
LayerCount: 2
Fore
SplineSet
274 358 m 0x9ff4
 274 529 430 680 600 680 c 0
 769 680 831 540 840 458 c 10
 847 400 l 1
 899 601 l 17
 907 636 907 636 907 645 c 0
 907 668 900 732 833 732 c 2
 235 732 l 1
 292 1053 592 1284 884 1284 c 0
 1151 1284 1313 1104 1343 902 c 9
 1124 818 l 17
 1116 913 1039 1064 846 1064 c 0
 682 1064 575 954 546 918 c 1
 899 918 l 2
 1037 918 1129 820 1129 692 c 0
 1129 676 1128 660 1125 644 c 1
 918 0 l 1
 698 0 l 1
 674 192 l 17
 626 145 554 132 495 132 c 0
 368 132 274 229 274 358 c 0x9ff4
536 318 m 0
 600 318 642 376 642 423 c 0
 642 463 613 496 567 496 c 0
 511 496 460 447 460 393 c 0
 460 353 487 318 536 318 c 0
512 -338 m 0
 512 -208 631 -76 780 -76 c 0
 895 -76 969 -158 969 -260 c 0
 969 -273 968 -286 966 -299 c 2
 913 -603 l 25
 590 -875 l 1
 494 -760 l 1
 361 -873 l 1
 209 -695 l 1
 157 -740 l 1
 103 -785 46 -807 -15 -807 c 0
 -129 -807 -204 -725 -204 -621 c 0
 -204 -493 -86 -360 64 -360 c 0xbff8
 125 -360 174 -382 210 -426 c 2
 248 -474 l 1
 374 -369 l 1
 466 -477 l 1
 341 -583 l 1
 400 -654 l 1
 533 -541 l 1
 628 -656 l 1
 740 -562 l 1
 748 -518 l 1
 732 -520 716 -521 701 -521 c 0xdff8
 590 -521 512 -443 512 -338 c 0
726 -388 m 0xdff8
 785 -388 832 -334 832 -282 c 0
 832 -242 803 -210 757 -210 c 0
 695 -210 649 -266 649 -312 c 0
 649 -353 679 -388 726 -388 c 0xdff8
7 -673 m 0
 65 -673 115 -620 115 -567 c 0
 115 -526 84 -494 39 -494 c 0xbff0
 -23 -494 -68 -549 -68 -598 c 0
 -68 -642 -34 -673 7 -673 c 0
EndSplineSet
Substitution2: "Thai Descender Removal Single Substitution" uni0E10.descless
EndChar

StartChar: uni0E11
Encoding: 3601 3601 140
Width: 1835
VWidth: 2045
Flags: W
HStem: 0 21G<641 982 1431 1654.52> 468 190<429.696 588.175> 834 184<497.375 599.241> 996 263<1478.11 1678.5>
VStem: 195 230<666.78 809.889> 608 191<677.947 827.215> 975 219<761.967 1040.93> 1598 233<772.453 1133.5>
DStem2: 1431 0 1651 0 0.173648 0.984808<38.2026 967.245>
LayerCount: 2
Fore
SplineSet
799 798 m 0xef
 799 620 630 468 469 468 c 0
 391 468 195 531 195 768 c 0
 195 1067 441 1236 601 1264 c 1
 752 1176 l 1
 929 1264 l 1
 986 1256 1048 1216 1114 1144 c 0
 1166 1086 1194 1020 1194 942 c 0
 1194 683 962 577 922 345 c 2
 908 264 l 17
 1376 948 1186 801 1389 1133 c 16
 1439 1216 1514 1258 1613 1259 c 1
 1744 1259 1831 1207 1831 1060 c 0
 1831 1033 1828 1001 1821 966 c 10
 1651 0 l 1
 1431 0 l 1
 1596 936 l 2
 1597 942 1598 947 1598 953 c 0
 1598 981 1580 996 1547 996 c 0xdf
 1511 996 1482 971 1461 921 c 1
 1397 742 1078 182 886 0 c 9
 641 0 l 25
 705 363 l 2
 738 548 975 667 975 919 c 0
 975 990 948 1037 886 1076 c 1
 717 1000 l 1
 574 1073 l 1
 528 1064 502 1046 497 1018 c 1
 744 1018 799 897 799 798 c 0xef
505 658 m 0
 563 658 608 710 608 761 c 0
 608 805 574 834 533 834 c 0xef
 483 834 425 789 425 728 c 0
 425 686 457 658 505 658 c 0
EndSplineSet
EndChar

StartChar: uni0E12
Encoding: 3602 3602 141
Width: 1987
VWidth: 2045
Flags: W
HStem: -10 186<1108.58 1260.38> 706 193<717.163 869.402> 1254 10G<1176.67 1298 1814.47 2038>
VStem: 511 184<534.842 682.011> 877 189<548.634 697.886> 914 186<183.946 331.404> 1227 230<625.93 1004.45>
DStem2: 139.237 -10 359.566 -10 0.173648 0.984808<294.147 1037.76> 1079.61 -10 1299.89 -10 0.173648 0.984808<527.918 891.961> 1594.92 -10 1815.24 -10 0.173648 0.984808<253.857 1283.53>
LayerCount: 2
Fore
SplineSet
1176 176 m 0xf6
 1240 176 1282 234 1282 281 c 0
 1282 324 1249 354 1207 354 c 0
 1151 354 1100 305 1100 251 c 0
 1100 211 1127 176 1176 176 c 0xf6
511 576 m 0
 511 774 709 899 838 899 c 0
 964 899 1066 798 1066 665 c 0xfa
 1066 634 1061 516 946 414 c 8
 740 233 545 95 361 0 c 17
 141 0 l 1
 279 782 l 2
 306 940 402 1233 698 1286 c 1
 934 1134 l 1
 1214 1284 l 1
 1382 1221 1457 1125 1457 948 c 0
 1457 899 1451 844 1440 781 c 2
 1387 484 l 17
 1401 475 1411 466 1419 458 c 2
 1639 240 l 25
 1818 1254 l 1
 2038 1254 l 1
 1817 0 l 25
 1597 0 l 17
 1431 167 l 1
 1396 104 1297 -10 1143 -10 c 0
 1005 -10 914 88 914 215 c 0
 914 366 1034 500 1175 531 c 1
 1218 779 l 2
 1224 813 1227 844 1227 871 c 0
 1227 962 1194 1017 1129 1036 c 1
 886 917 l 1
 689 1036 l 1
 588 1013 525 929 499 782 c 2
 404 242 l 9
 605 392 l 1
 527 440 511 518 511 576 c 0
771 528 m 0
 835 528 877 586 877 633 c 0
 877 673 848 706 802 706 c 0
 746 706 695 657 695 603 c 0
 695 563 722 528 771 528 c 0
EndSplineSet
EndChar

StartChar: uni0E13
Encoding: 3603 3603 142
Width: 2038
VWidth: 2045
Flags: W
HStem: -10 186<458.157 610.387 1680.7 1834.51> 354 179<539.855 627.112> 701 220<569 680> 1062 222<689.916 1035.81> 1234 20G<1779.47 2003>
VStem: 266 186<183.766 331.828> 635 188<198.405 347.638> 1175 226<630.008 922.388> 1857 187<196.696 345.515>
DStem2: 1045.24 -10 1264.92 -10 0.173648 0.984808<292.004 787.697> 1559.89 -10 1781.61 -10 0.173648 0.984808<580.98 1283.54>
LayerCount: 2
Fore
SplineSet
1751 174 m 0xe780
 1810 174 1857 230 1857 278 c 0
 1857 317 1830 352 1782 352 c 0
 1728 352 1674 304 1674 248 c 0
 1674 207 1704 174 1751 174 c 0xe780
529 176 m 0
 587 176 635 228 635 281 c 0
 635 325 601 354 560 354 c 0
 506 354 452 306 452 250 c 0
 452 209 482 176 529 176 c 0
823 312 m 0
 823 149 673 -10 496 -10 c 0
 357 -10 266 88 266 214 c 0
 266 230 268 247 271 264 c 2
 349 701 l 1
 229 701 l 1
 285 1022 586 1284 913 1284 c 0xf780
 1187 1284 1401 1093 1401 808 c 0
 1401 774 1397 739 1391 702 c 2
 1309 240 l 9
 1607 458 l 2
 1617 466 1631 475 1647 484 c 1
 1783 1254 l 1
 2003 1254 l 9xef80
 1877 531 l 17
 1964 510 2044 431 2044 312 c 0
 2044 143 1888 -10 1717 -10 c 0
 1563 -10 1504 104 1491 167 c 1
 1267 0 l 9
 1047 0 l 25
 1169 700 l 18
 1173 723 1175 746 1175 768 c 0
 1175 946 1039 1062 872 1062 c 0xf780
 701 1062 591 952 562 921 c 1
 718 921 l 1
 680 701 l 1
 569 701 l 1
 539 533 l 17
 557 536 574 538 593 538 c 0
 731 538 823 440 823 312 c 0
1763 -392 m 0
EndSplineSet
EndChar

StartChar: uni0E14
Encoding: 3604 3604 143
Width: 1443
VWidth: 2045
Flags: W
HStem: 0 21G<141 467.5 1082 1306.53> 686 196<753.023 908.54> 1062 222<730.041 1073.52>
VStem: 548 183<514.842 662.9> 914 188<529.089 678.189> 1211 226<626.896 922.711>
DStem2: 141 0 361.329 0 0.173648 0.984808<283.993 928.73> 1082 0 1303 0 0.173648 0.984808<38.3762 775.793>
LayerCount: 2
Fore
SplineSet
808 508 m 0
 871 508 914 564 914 614 c 0
 914 654 885 686 839 686 c 0
 779 686 731 632 731 583 c 0
 731 543 759 508 808 508 c 0
548 556 m 0
 548 762 757 882 875 882 c 0
 995 882 1102 780 1102 645 c 0
 1102 626 1099 490 982 394 c 8
 781 231 574 100 361 0 c 17
 141 0 l 1
 265 702 l 2
 324 1039 640 1284 949 1284 c 0
 1224 1284 1437 1092 1437 809 c 0
 1437 774 1433 739 1427 702 c 2
 1303 0 l 1
 1082 0 l 1
 1205 700 l 2
 1209 723 1211 745 1211 766 c 0
 1211 941 1082 1062 908 1062 c 0
 703 1062 520 899 485 702 c 2
 404 242 l 9
 642 372 l 1
 564 420 548 498 548 556 c 0
EndSplineSet
EndChar

StartChar: uni0E15
Encoding: 3605 3605 144
Width: 1453
VWidth: 2045
Flags: W
HStem: 0 21G<141 467.5 1082 1306.53> 686 193<753.633 908.63> 1264 20G<1176.67 1298>
VStem: 548 183<514.842 661.462> 914 188<529.292 678.455> 1229 228<622.359 1002.22>
DStem2: 141 0 361.329 0 0.173648 0.984808<283.993 1031.79> 1082 0 1303 0 0.173648 0.984808<38.3762 880.121>
LayerCount: 2
Fore
SplineSet
548 556 m 0
 548 755 745 879 874 879 c 0
 999 879 1102 779 1102 646 c 0
 1102 627 1099 490 982 394 c 8
 781 231 574 100 361 0 c 17
 141 0 l 1
 279 782 l 2
 319 1010 445 1241 698 1286 c 1
 934 1134 l 1
 1214 1284 l 1
 1382 1221 1457 1124 1457 946 c 0
 1457 898 1452 843 1441 782 c 2
 1303 0 l 1
 1082 0 l 1
 1220 780 l 2
 1226 813 1229 843 1229 869 c 0
 1229 961 1195 1016 1129 1036 c 1
 886 917 l 1
 689 1036 l 1
 588 1013 525 929 499 782 c 2
 404 242 l 9
 642 372 l 1
 564 420 548 498 548 556 c 0
808 508 m 0
 871 508 914 564 914 614 c 0
 914 654 885 686 839 686 c 0
 779 686 731 632 731 583 c 0
 731 543 759 508 808 508 c 0
EndSplineSet
EndChar

StartChar: uni0E16
Encoding: 3606 3606 145
Width: 1412
VWidth: 2045
Flags: W
HStem: -10 186<499.58 648.535> 354 179<577.324 665.115> 701 220<607 715> 1062 222<684.762 1032.52>
VStem: 305 186<183.946 332.485> 673 188<198.438 347.686> 1170 226<626.896 922.711>
DStem2: 1039.24 -10 1260.24 -10 0.173648 0.984808<48.5305 785.947>
LayerCount: 2
Fore
SplineSet
567 176 m 0
 631 176 673 234 673 281 c 0
 673 321 644 354 598 354 c 0
 542 354 491 305 491 251 c 0
 491 211 518 176 567 176 c 0
861 312 m 0
 861 149 711 -10 534 -10 c 0
 396 -10 305 88 305 215 c 0
 305 231 306 247 309 264 c 2
 387 701 l 1
 224 701 l 1
 280 1022 581 1284 908 1284 c 0
 1183 1284 1396 1092 1396 809 c 0
 1396 774 1392 739 1386 702 c 2
 1262 0 l 1
 1041 0 l 1
 1164 700 l 2
 1168 723 1170 745 1170 766 c 0
 1170 941 1041 1062 867 1062 c 0
 696 1062 585 951 557 921 c 1
 753 921 l 1
 715 701 l 1
 607 701 l 1
 577 533 l 17
 595 536 612 538 631 538 c 0
 769 538 861 440 861 312 c 0
EndSplineSet
EndChar

StartChar: uni0E17
Encoding: 3607 3607 146
Width: 1547
VWidth: 2045
Flags: W
HStem: 0 21G<414 646.261 1171 1394.52> 726 186<450.272 540.403> 996 263<1218.07 1418.5> 1090 184<466.04 619.106>
VStem: 258 186<920.549 1065.66> 627 187<933.377 1084.06> 1338 233<772.453 1133.5>
DStem2: 716 463 634 0 0.522646 0.85255<0 753.143> 1171 0 1391 0 0.173648 0.984808<38.2026 968.229>
LayerCount: 2
Fore
SplineSet
258 952 m 0xee
 258 1115 408 1274 585 1274 c 0xde
 723 1274 814 1176 814 1049 c 0
 814 1033 813 1017 810 1000 c 2
 716 463 l 25
 1129 1133 l 18
 1179 1216 1254 1259 1353 1259 c 0
 1484 1259 1571 1207 1571 1060 c 0
 1571 1033 1568 1001 1561 966 c 10
 1391 0 l 1
 1171 0 l 1
 1336 936 l 2
 1337 942 1338 948 1338 954 c 0
 1338 983 1322 996 1289 996 c 0
 1259 996 1235 980 1217 951 c 2
 634 0 l 1
 414 0 l 9
 543 731 l 1
 525 728 507 726 488 726 c 0
 350 726 258 824 258 952 c 0xee
521 912 m 0
 582 912 627 968 627 1017 c 0
 627 1057 598 1090 552 1090 c 0
 498 1090 444 1042 444 986 c 0
 444 945 474 912 521 912 c 0
EndSplineSet
EndChar

StartChar: uni0E18
Encoding: 3608 3608 147
Width: 1228
VWidth: 2045
Flags: W
HStem: 0 220<230 341 559 831> 732 186<651 905.435> 1064 220<675.525 1000.77>
VStem: 907 222<414.734 727.922>
DStem2: 302.208 0 521.619 0 0.173648 0.984808<253.371 743.244> 793.442 0 1011 0 0.173648 0.984808<216.286 680.201>
LayerCount: 2
Fore
SplineSet
651 732 m 25
 559 212 l 9
 831 213 l 25
 905 648 l 2
 906 656 907 664 907 671 c 0
 907 712 882 732 833 732 c 2
 651 732 l 25
899 918 m 2
 1037 918 1129 820 1129 692 c 0
 1129 676 1128 660 1125 644 c 10
 1011 0 l 17
 191 0 l 1
 230 220 l 1
 341 220 l 1
 431 732 l 25
 235 732 l 1
 292 1053 592 1284 884 1284 c 0
 1151 1284 1313 1104 1343 902 c 9
 1124 818 l 17
 1116 913 1039 1064 846 1064 c 0
 682 1064 575 954 546 918 c 1
 899 918 l 2
EndSplineSet
EndChar

StartChar: uni0E19
Encoding: 3609 3609 148
Width: 1603
VWidth: 2045
Flags: W
HStem: -10 184<1167.8 1320.95> 726 186<450.272 540.403> 1090 184<466.04 619.405> 1234 20G<1297.44 1521>
VStem: 258 186<920.549 1065.66> 627 187<936.862 1083.83> 1344 187<197.127 344.253>
DStem2: 412.237 -10 632.682 -10 0.173648 0.984808<281.982 752.449> 1076.84 -10 1298.61 -10 0.173648 0.984808<569.006 1283.72>
LayerCount: 2
Fore
SplineSet
1238 174 m 0xce
 1297 174 1344 230 1344 278 c 0
 1344 317 1317 352 1270 352 c 0
 1219 352 1161 308 1161 248 c 0
 1161 207 1191 174 1238 174 c 0xce
1531 313 m 0
 1531 144 1376 -10 1204 -10 c 0
 1128 -10 985 39 963 212 c 1
 634 0 l 1
 414 0 l 9
 543 731 l 1
 525 728 507 726 488 726 c 0
 350 726 258 824 258 952 c 0
 258 1115 408 1274 585 1274 c 0xee
 726 1274 814 1174 814 1049 c 0
 814 1033 813 1017 810 1000 c 2
 675 230 l 25
 1171 524 l 17
 1301 1254 l 1
 1521 1254 l 9xde
 1394 531 l 17
 1438 507 1531 441 1531 313 c 0
521 912 m 0
 582 912 627 968 627 1017 c 0
 627 1057 598 1090 552 1090 c 0
 498 1090 444 1042 444 986 c 0
 444 945 474 912 521 912 c 0
EndSplineSet
EndChar

StartChar: uni0E1A
Encoding: 3610 3610 149
Width: 1502
VWidth: 2045
Flags: W
HStem: 0 214<341 452 672 1152> 726 186<450.272 540.403> 1090 184<466.04 619.405> 1234 20G<1331.48 1554>
VStem: 258 186<920.549 1065.66> 627 187<936.237 1083.83>
DStem2: 414.266 0 634.266 0 0.173648 0.984808<255.504 742.249> 1114.27 0 1333 0 0.173648 0.984808<217.301 1273.28>
LayerCount: 2
Fore
SplineSet
258 952 m 0xdc
 258 1115 408 1274 585 1274 c 0xec
 726 1274 814 1174 814 1049 c 0
 814 1033 813 1017 810 1000 c 2
 672 214 l 25
 1152 214 l 25
 1335 1254 l 25
 1554 1254 l 25
 1333 0 l 17
 303 0 l 1
 341 214 l 1
 452 214 l 9
 543 731 l 1
 525 728 507 726 488 726 c 0
 350 726 258 824 258 952 c 0xdc
521 912 m 0
 582 912 627 968 627 1017 c 0
 627 1057 598 1090 552 1090 c 0
 498 1090 444 1042 444 986 c 0
 444 945 474 912 521 912 c 0
EndSplineSet
EndChar

StartChar: uni0E1B
Encoding: 3611 3611 150
Width: 1508
VWidth: 2045
Flags: W
HStem: 0 214<341 452 672 1152> 726 186<450.272 540.403> 1090 184<466.04 619.405>
VStem: 258 186<920.549 1065.66> 627 187<936.237 1083.83>
DStem2: 414.266 0 634.266 0 0.173648 0.984808<255.504 742.249> 1114.27 0 1333 0 0.173648 0.984808<217.301 1862.18>
AnchorPoint: "AboveBase" 1235 1375 basechar 0
LayerCount: 2
Fore
SplineSet
258 952 m 0
 258 1115 408 1274 585 1274 c 0
 726 1274 814 1174 814 1049 c 0
 814 1033 813 1017 810 1000 c 2
 672 214 l 25
 1152 214 l 25
 1437 1834 l 25
 1656 1834 l 25
 1333 0 l 17
 303 0 l 1
 341 214 l 1
 452 214 l 9
 543 731 l 1
 525 728 507 726 488 726 c 0
 350 726 258 824 258 952 c 0
521 912 m 0
 582 912 627 968 627 1017 c 0
 627 1057 598 1090 552 1090 c 0
 498 1090 444 1042 444 986 c 0
 444 945 474 912 521 912 c 0
EndSplineSet
EndChar

StartChar: uni0E1C
Encoding: 3612 3612 151
Width: 1393
VWidth: 2045
Flags: W
HStem: 0 21G<146 386.691 998.33 1235.52> 726 186<512.781 665.081> 1090 184<529.975 682.636> 1234 20G<1229.47 1453>
VStem: 689 185<937.414 1080.73>
DStem2: 146 0 364.923 0 0.173648 0.984808<326.397 783.262> 415 284 366 0 0.718958 0.695054<0 308.391> 1011.92 0 1232 0 0.173648 0.984808<288.381 1273.34>
LayerCount: 2
Fore
SplineSet
874 1049 m 0xe8
 874 877 718 726 548 726 c 0
 529 726 511 728 495 731 c 1
 415 284 l 1
 806 662 l 1
 1062 284 l 1
 1233 1254 l 1
 1453 1254 l 1xd8
 1232 0 l 25
 1012 0 l 17
 755 376 l 1
 366 0 l 1
 146 0 l 25
 322 1000 l 2
 349 1149 488 1274 645 1274 c 0
 783 1274 874 1176 874 1049 c 0xe8
612 1090 m 0xe8
 554 1090 507 1038 507 987 c 0
 507 947 534 912 581 912 c 0
 638 912 689 964 689 1017 c 0
 689 1060 653 1090 612 1090 c 0xe8
EndSplineSet
EndChar

StartChar: uni0E1D
Encoding: 3613 3613 152
Width: 1393
VWidth: 2045
Flags: W
HStem: 0 21G<146 386.691 998.33 1235.52> 726 186<512.781 665.081> 1090 184<529.975 682.636>
VStem: 689 185<937.414 1080.73>
DStem2: 146 0 364.923 0 0.173648 0.984808<326.397 783.262> 415 284 366 0 0.718958 0.695054<0 308.391> 1011.92 0 1232 0 0.173648 0.984808<288.381 1862.24>
AnchorPoint: "AboveBase" 1145 1375 basechar 0
LayerCount: 2
Fore
SplineSet
874 1049 m 0
 874 877 718 726 548 726 c 0
 529 726 511 728 495 731 c 1
 415 284 l 1
 806 662 l 1
 1062 284 l 1
 1335 1834 l 1
 1555 1834 l 1
 1232 0 l 25
 1012 0 l 17
 755 376 l 1
 366 0 l 1
 146 0 l 25
 322 1000 l 2
 349 1149 488 1274 645 1274 c 0
 783 1274 874 1176 874 1049 c 0
612 1090 m 0
 554 1090 507 1038 507 987 c 0
 507 947 534 912 581 912 c 0
 638 912 689 964 689 1017 c 0
 689 1060 653 1090 612 1090 c 0
EndSplineSet
EndChar

StartChar: uni0E1E
Encoding: 3614 3614 153
Width: 1650
VWidth: 2045
Flags: W
HStem: 0 21G<414 644.866 1246.25 1473.52> 726 186<450.272 540.403> 1090 184<466.04 619.106> 1234 20G<1094.91 1224.05 1467.47 1691>
VStem: 258 186<920.549 1065.66> 627 187<935.252 1084.06>
DStem2: 721 493 634 0 0.477391 0.878691<0 484.654> 1337 494 1092 843 0.184218 -0.982885<-388.16 0> 1249.89 0 1470 0 0.173648 0.984808<501.621 1273.34>
LayerCount: 2
Fore
SplineSet
258 952 m 0xdc
 258 1115 408 1274 585 1274 c 0xec
 723 1274 814 1176 814 1049 c 0
 814 1033 813 1017 810 1000 c 2
 721 493 l 17
 1105 1254 l 1
 1221 1254 l 1
 1337 494 l 1
 1471 1254 l 1
 1691 1254 l 1
 1470 0 l 1
 1250 0 l 1
 1092 843 l 1
 634 0 l 1
 414 0 l 9
 543 731 l 1
 525 728 507 726 488 726 c 0
 350 726 258 824 258 952 c 0xdc
521 912 m 0
 582 912 627 968 627 1017 c 0
 627 1057 598 1090 552 1090 c 0
 498 1090 444 1042 444 986 c 0
 444 945 474 912 521 912 c 0
EndSplineSet
EndChar

StartChar: uni0E1F
Encoding: 3615 3615 154
Width: 1652
VWidth: 2045
Flags: W
HStem: 0 21G<414 644.866 1246.25 1473.52> 726 186<450.272 540.403> 1090 184<466.04 619.106> 1234 20G<1094.91 1224.05>
VStem: 258 186<920.549 1065.66> 627 187<935.252 1084.06>
DStem2: 721 493 634 0 0.477391 0.878691<0 484.654> 1337 494 1092 843 0.184218 -0.982885<-388.16 0> 1249.89 0 1470 0 0.173648 0.984808<501.621 1862.24>
AnchorPoint: "AboveBase" 1398 1375 basechar 0
LayerCount: 2
Fore
SplineSet
258 952 m 0xdc
 258 1115 408 1274 585 1274 c 0xec
 723 1274 814 1176 814 1049 c 0
 814 1033 813 1017 810 1000 c 2
 721 493 l 17
 1105 1254 l 1
 1221 1254 l 1
 1337 494 l 1
 1573 1834 l 1
 1793 1834 l 1
 1470 0 l 1
 1250 0 l 1
 1092 843 l 1
 634 0 l 1
 414 0 l 9
 543 731 l 1
 525 728 507 726 488 726 c 0
 350 726 258 824 258 952 c 0xdc
521 912 m 0
 582 912 627 968 627 1017 c 0
 627 1057 598 1090 552 1090 c 0
 498 1090 444 1042 444 986 c 0
 444 945 474 912 521 912 c 0
EndSplineSet
EndChar

StartChar: uni0E20
Encoding: 3616 3616 155
Width: 1501
VWidth: 2045
Flags: W
HStem: -10 186<281.405 433.993> 354 184<295.684 449.989> 701 220<714 825> 1062 222<744.762 1092.52>
VStem: 86 188<183.583 332.007> 1230 226<628.001 922.711>
DStem2: 1099.24 -10 1318.24 -10 0.173648 0.984808<48.1832 785.947>
LayerCount: 2
Fore
SplineSet
379 354 m 0
 326 354 274 307 274 250 c 0
 274 211 299 176 348 176 c 0
 412 176 456 233 456 280 c 0
 456 321 425 354 379 354 c 0
86 215 m 0
 86 387 242 538 412 538 c 0
 431 538 448 536 464 533 c 9
 494 701 l 1
 284 701 l 1
 340 1022 641 1284 968 1284 c 0
 1243 1284 1456 1092 1456 809 c 0
 1456 774 1452 739 1446 702 c 2
 1320 0 l 17
 1101 0 l 9
 1224 700 l 2
 1228 723 1230 745 1230 766 c 0
 1230 941 1101 1062 927 1062 c 0
 756 1062 645 951 617 921 c 1
 863 921 l 1
 825 701 l 1
 714 701 l 1
 638 264 l 2
 611 114 470 -10 315 -10 c 0
 177 -10 86 88 86 215 c 0
EndSplineSet
EndChar

StartChar: uni0E21
Encoding: 3617 3617 156
Width: 1422
VWidth: 2045
Flags: W
HStem: 0 186<325.571 475.325> 364 184<338.092 493.432> 726 186<450.272 540.403> 1090 184<466.04 619.106> 1234 20G<1253.48 1477>
VStem: 130 187<194.338 340.322> 258 186<920.549 1065.66> 627 187<936.26 1084.06>
DStem2: 711 439 671 228 0.848129 -0.52979<77.8605 427.603> 1036.44 0 1256 0 0.173648 0.984808<216.286 1273.25>
LayerCount: 2
Fore
SplineSet
258 952 m 0xeb
 258 1115 408 1274 585 1274 c 0xf3
 723 1274 814 1176 814 1049 c 0
 814 1033 813 1017 810 1000 c 2
 711 439 l 17
 1074 213 l 25
 1257 1254 l 1
 1477 1254 l 1
 1256 0 l 1
 1036 0 l 1
 671 228 l 17
 632 112 510 0 360 0 c 0
 222 0 130 98 130 226 c 0xed
 130 389 280 548 457 548 c 0
 476 548 494 546 511 543 c 1
 543 731 l 1
 525 728 507 726 488 726 c 0
 350 726 258 824 258 952 c 0xeb
393 186 m 0
 457 186 499 244 499 291 c 0
 499 331 470 364 424 364 c 0
 368 364 317 315 317 261 c 0xe5
 317 221 344 186 393 186 c 0
521 912 m 0
 582 912 627 968 627 1017 c 0
 627 1057 598 1090 552 1090 c 0
 498 1090 444 1042 444 986 c 0xf3
 444 945 474 912 521 912 c 0
EndSplineSet
EndChar

StartChar: uni0E22
Encoding: 3618 3618 157
Width: 1331
VWidth: 2045
Flags: W
HStem: 0 218<486 975> 420 218<529.546 796> 716 186<612.656 765.365> 1080 184<632.361 780.147>
VStem: 270 222<665 767> 788 189<926.053 1074.37>
DStem2: 936.561 0 1157 0 0.173648 0.984808<221.363 1273.4>
LayerCount: 2
Fore
SplineSet
977 1038 m 0
 977 865 816 716 650 716 c 0
 575 716 523 733 493 767 c 1
 493 765 492 760 492 753 c 0
 492 719 506 638 631 638 c 2
 834 638 l 1
 796 420 l 1
 601 420 l 2
 588 420 517 392 506 327 c 2
 486 218 l 1
 975 218 l 1
 1158 1254 l 1
 1378 1254 l 1
 1157 0 l 1
 228 0 l 1
 292 365 l 2
 303 428 333 479 381 517 c 1
 290 618 270 719 270 792 c 0
 270 1004 437 1264 747 1264 c 0
 879 1264 977 1170 977 1038 c 0
683 902 m 0
 745 902 788 960 788 1008 c 0
 788 1050 756 1080 714 1080 c 0
 659 1080 606 1032 606 977 c 0
 606 936 635 902 683 902 c 0
EndSplineSet
EndChar

StartChar: uni0E23
Encoding: 3619 3619 158
Width: 1172
VWidth: 2045
Flags: W
HStem: -10 186<621.405 772.841> 354 184<635.684 789.993> 732 186<546 825.435> 1064 220<675.525 1002.47>
VStem: 426 188<183.583 332.007> 827 222<535.961 727.922>
LayerCount: 2
Fore
SplineSet
719 354 m 0
 666 354 614 307 614 250 c 0
 614 211 639 176 688 176 c 0
 752 176 796 233 796 280 c 0
 796 321 765 354 719 354 c 0
426 215 m 0
 426 387 582 538 752 538 c 0
 771 538 789 536 805 533 c 9
 825 648 l 2
 826 656 827 664 827 671 c 0
 827 712 802 732 753 732 c 2
 235 732 l 1
 292 1053 592 1284 884 1284 c 0
 1104 1284 1253 1161 1314 1009 c 9
 1112 875 l 17
 1095 932 1026 1064 846 1064 c 0
 682 1064 575 954 546 918 c 1
 819 918 l 2
 957 918 1049 820 1049 692 c 0
 1049 676 1048 660 1045 644 c 10
 978 264 l 18
 950 109 805 -10 655 -10 c 0
 517 -10 426 88 426 215 c 0
EndSplineSet
EndChar

StartChar: uni0E24
Encoding: 3620 3620 159
Width: 1435
VWidth: 2045
Flags: W
HStem: -10 186<499.58 648.535> 354 179<577.324 665.115> 701 220<607 715> 1062 222<684.762 1032.52>
VStem: 305 186<183.946 332.485> 673 188<198.438 347.686> 1170 226<624.352 922.711>
DStem2: 942 -560 1163 -560 0.173648 0.984808<38.3762 1344.48>
LayerCount: 2
Fore
SplineSet
567 176 m 0
 631 176 673 234 673 281 c 0
 673 321 644 354 598 354 c 0
 542 354 491 305 491 251 c 0
 491 211 518 176 567 176 c 0
861 312 m 0
 861 149 711 -10 534 -10 c 0
 396 -10 305 88 305 215 c 0
 305 231 306 247 309 264 c 2
 386 701 l 1
 224 701 l 1
 280 1022 581 1284 908 1284 c 0
 1183 1284 1396 1092 1396 809 c 0
 1396 774 1392 739 1386 702 c 2
 1163 -560 l 1
 942 -560 l 1
 1164 700 l 2
 1168 723 1170 745 1170 766 c 0
 1170 941 1041 1062 867 1062 c 0
 696 1062 585 951 557 921 c 1
 753 921 l 1
 715 701 l 1
 607 701 l 1
 577 533 l 17
 595 536 612 538 631 538 c 0
 769 538 861 440 861 312 c 0
EndSplineSet
EndChar

StartChar: uni0E25
Encoding: 3621 3621 160
Width: 1477
VWidth: 2045
Flags: W
HStem: 0 186<523.571 674.53> 652 222<695.128 998.087> 1062 222<730.041 1071.41>
VStem: 265 220<702 823.764> 328 187<194.338 340.614> 697 187<207.013 358.058> 1212 225<752.919 920.38>
DStem2: 1082 0 1303 0 0.173648 0.984808<38.3762 361.443>
LayerCount: 2
Fore
SplineSet
591 186 m 0xee
 655 186 697 244 697 291 c 0
 697 331 668 364 622 364 c 0
 566 364 515 315 515 261 c 0
 515 221 542 186 591 186 c 0xee
884 323 m 0
 884 151 727 0 558 0 c 0
 420 0 328 98 328 226 c 0xee
 328 242 329 258 332 274 c 2
 343 332 l 1
 367 472 410 580 470 656 c 0
 563 772 689 874 872 874 c 0
 1027 874 1139 820 1212 752 c 1
 1212 764 l 2
 1212 919 1100 1062 908 1062 c 0
 703 1062 520 899 485 702 c 9
 265 702 l 17xf6
 324 1039 640 1284 949 1284 c 0
 1224 1284 1437 1092 1437 809 c 0
 1437 774 1433 739 1427 702 c 2
 1303 0 l 1
 1082 0 l 9
 1133 291 l 18
 1137 314 1139 336 1139 358 c 0
 1139 538 999 651 836 652 c 0
 742 652 682 617 655 548 c 1
 793 548 884 450 884 323 c 0
EndSplineSet
EndChar

StartChar: uni0E26
Encoding: 3622 3622 161
Width: 1504
VWidth: 2045
Flags: W
HStem: -10 186<281.405 433.993> 354 184<295.684 449.989> 701 220<714 825> 1062 222<744.762 1092.52>
VStem: 86 188<183.583 332.007> 1230 226<625.013 922.711>
DStem2: 1002 -560 1221 -560 0.173648 0.984808<38.0289 1344.48>
LayerCount: 2
Fore
SplineSet
379 354 m 0
 326 354 274 307 274 250 c 0
 274 211 299 176 348 176 c 0
 412 176 456 233 456 280 c 0
 456 321 425 354 379 354 c 0
86 215 m 0
 86 387 242 538 412 538 c 0
 431 538 448 536 464 533 c 9
 494 701 l 1
 284 701 l 1
 340 1022 641 1284 968 1284 c 0
 1243 1284 1456 1092 1456 809 c 0
 1456 774 1452 739 1446 702 c 2
 1221 -560 l 17
 1002 -560 l 9
 1224 700 l 2
 1228 723 1230 745 1230 766 c 0
 1230 941 1101 1062 927 1062 c 0
 756 1062 645 951 617 921 c 1
 863 921 l 1
 825 701 l 1
 714 701 l 1
 638 264 l 2
 611 114 470 -10 315 -10 c 0
 177 -10 86 88 86 215 c 0
EndSplineSet
EndChar

StartChar: uni0E27
Encoding: 3623 3623 162
Width: 1258
VWidth: 2045
Flags: W
HStem: -10 186<771.405 923.91> 354 184<785.89 939.989> 1064 220<619.353 913.123>
VStem: 227 220<788 901.905> 576 188<183.583 332.007> 1003 224<573.984 972.979>
DStem2: 858.254 -10 1079.29 -10 0.173648 0.984808<548.529 858.528>
LayerCount: 2
Fore
SplineSet
576 215 m 0
 576 387 733 538 902 538 c 0
 921 538 938 536 954 533 c 1
 999 788 l 2
 1002 805 1003 821 1003 837 c 0
 1003 966 910 1064 772 1064 c 0
 620 1064 474 943 447 788 c 9
 227 788 l 17
 276 1068 538 1284 810 1284 c 0
 1064 1284 1227 1093 1227 870 c 0
 1227 843 1225 815 1220 788 c 2
 1128 264 l 2
 1107 148 990 -10 805 -10 c 0
 667 -10 576 88 576 215 c 0
869 354 m 0
 816 354 764 307 764 250 c 0
 764 211 789 176 838 176 c 0
 902 176 946 233 946 280 c 0
 946 321 915 354 869 354 c 0
EndSplineSet
EndChar

StartChar: uni0E28
Encoding: 3624 3624 163
Width: 1502
VWidth: 2045
Flags: W
HStem: 0 21G<141 372.561 1082 1306.53> 330 186<740.639 893.981> 694 184<758.212 910.387> 1062 222<730.041 1075.83>
VStem: 917 188<539.826 688.236> 1212 225<514.062 763> 1392 220<1181.35 1318>
DStem2: 141.218 0 361.3 0 0.173648 0.984808<497.19 928.692> 1082 0 1303 0 0.173648 0.984808<38.3762 772.646>
LayerCount: 2
Fore
SplineSet
908 1062 m 0xf8
 703 1062 520 899 485 702 c 2
 441 452 l 1
 602 726 l 2
 622 760 720 878 875 878 c 0
 970 878 1060 905 1143 958 c 1
 1085 1027 1007 1062 908 1062 c 0xf8
1105 652 m 0
 1105 478 944 330 778 330 c 0
 703 330 643 357 598 410 c 9
 361 0 l 17
 141 0 l 1
 265 702 l 2
 324 1039 640 1284 949 1284 c 0
 1147 1284 1268 1187 1318 1129 c 1
 1355 1186 1380 1249 1392 1318 c 1
 1612 1318 l 1xfa
 1588 1182 1525 1054 1422 934 c 1
 1432 895 1437 854 1437 812 c 0
 1437 776 1433 740 1427 702 c 2
 1303 0 l 1
 1082 0 l 1
 1205 700 l 2
 1209 722 1211 743 1212 763 c 1xfc
 1189 744 1151 726 1099 708 c 1
 1103 690 1105 671 1105 652 c 0
811 516 m 0
 875 516 917 574 917 621 c 0
 917 661 888 694 842 694 c 0
 786 694 735 645 735 591 c 0
 735 551 762 516 811 516 c 0
EndSplineSet
EndChar

StartChar: uni0E29
Encoding: 3625 3625 164
Width: 1533
VWidth: 2045
Flags: W
HStem: 0 214<341 452 672 1152> 386 192<878.146 1111.4> 386 163<1110 1181.8> 402 147<1110.64 1184> 726 186<450.272 540.403> 756 134<893.343 1048.96> 1090 184<466.04 619.405> 1234 20G<1331.43 1554>
VStem: 258 186<920.549 1065.66> 627 187<933.815 1083.83> 1056 138<601.649 748.282>
DStem2: 414.266 0 634.266 0 0.173648 0.984808<255.504 638.237> 1114.44 0 1333 0 0.173648 0.984808<216.286 407.971 572.372 611.13 859.493 1273.25>
LayerCount: 2
Fore
SplineSet
258 952 m 0xa9e0
 258 1115 408 1274 585 1274 c 0
 726 1274 814 1174 814 1049 c 0
 814 1033 813 1017 810 1000 c 2
 764 735 l 17
 794 799 876 890 1004 890 c 0x86e0
 1113 890 1194 809 1194 712 c 0
 1194 658 1167 585 1110 549 c 1
 1118 549 l 1
 1212 564 l 9
 1335 1254 l 9
 1554 1254 l 17
 1476 809 l 17
 1602 714 l 1
 1546 628 1487 560 1423 511 c 9
 1333 0 l 1
 303 0 l 1
 341 214 l 1
 452 214 l 9
 543 731 l 1
 525 728 507 726 488 726 c 0
 350 726 258 824 258 952 c 0xa9e0
1184 402 m 17x90e0
 1137 391 1089 386 1041 386 c 0xc0e0
 919 387 835 416 790 474 c 0
 761 511 744 550 738 591 c 9
 672 214 l 9
 1152 213 l 17
 1184 402 l 17x90e0
948 578 m 0
 1007 578 1056 633 1056 682 c 0
 1056 725 1020 756 979 756 c 0xc4e0
 916 756 872 700 872 651 c 0
 872 611 902 578 948 578 c 0
521 912 m 0x8ae0
 582 912 627 968 627 1017 c 0
 627 1057 598 1090 552 1090 c 0
 498 1090 444 1042 444 986 c 0
 444 945 474 912 521 912 c 0x8ae0
EndSplineSet
EndChar

StartChar: uni0E2A
Encoding: 3626 3626 165
Width: 1484
VWidth: 2045
Flags: W
HStem: 0 186<523.571 674.53> 652 222<695.674 998.111> 1062 222<730.041 1073.04>
VStem: 265 220<702 823.764> 328 187<194.338 340.614> 697 187<207.013 358.058> 1390 220<1181.05 1314>
DStem2: 1082 0 1303 0 0.173648 0.984808<38.3762 361.443 752.954 827.914>
LayerCount: 2
Fore
SplineSet
1140 791 m 25xe6
 1210 742 l 17
 1222 816 l 25
 1140 791 l 25xe6
591 186 m 0
 655 186 697 244 697 291 c 0
 697 331 668 364 622 364 c 0
 566 364 515 315 515 261 c 0xee
 515 221 542 186 591 186 c 0
884 323 m 0
 884 151 727 0 558 0 c 0
 420 0 328 98 328 226 c 0xee
 328 242 329 258 332 274 c 2
 343 332 l 1
 367 472 410 580 470 656 c 0
 563 772 689 874 872 874 c 0
 969 874 1060 902 1145 957 c 1
 1086 1027 1007 1062 908 1062 c 0
 703 1062 520 899 485 702 c 9
 265 702 l 17xf6
 324 1039 640 1284 949 1284 c 0
 1103 1284 1231 1225 1318 1130 c 1
 1354 1186 1378 1247 1390 1314 c 1
 1610 1314 l 1
 1584 1175 1522 1048 1423 933 c 1
 1432 895 1437 855 1437 813 c 0
 1437 777 1433 740 1427 702 c 2
 1303 0 l 1
 1082 0 l 9
 1133 291 l 18
 1137 314 1139 336 1139 358 c 0
 1139 534 1003 652 832 652 c 0
 740 652 682 617 655 548 c 1
 793 548 884 450 884 323 c 0
833 654 m 0
EndSplineSet
EndChar

StartChar: uni0E2B
Encoding: 3627 3627 166
Width: 1581
VWidth: 2045
Flags: W
HStem: 0 21G<414 651.373 1171 1394.52> 726 186<450.272 540.403> 1090 184<466.04 619.106 1272.15 1423.11>
VStem: 258 186<920.549 1065.66> 627 187<936.143 1084.06> 1062 187<918.238 1068.16> 1270 234<392.328 700.5> 1431 187<933.726 1084.06>
DStem2: 414 0 633.52 0 0.173648 0.984808<386.411 742.295> 694 343 634 0 0.655786 0.754947<0 544.898> 1171 0 1391 0 0.173648 0.984808<38.2026 579.331>
LayerCount: 2
Fore
SplineSet
1062 951 m 0xfe
 1062 1125 1222 1274 1389 1274 c 0
 1527 1274 1618 1176 1618 1049 c 0xfd
 1618 1002 1607 889 1479 790 c 1
 1496 760 1504 723 1504 678 c 0
 1504 650 1501 620 1494 586 c 9
 1391 0 l 1
 1171 0 l 1
 1269 556 l 2
 1270 562 1270 567 1270 571 c 0
 1270 602 1251 616 1212 616 c 0
 1183 616 1156 600 1130 571 c 2
 634 0 l 1
 414 0 l 9
 543 731 l 1
 525 728 507 726 488 726 c 0
 350 726 258 824 258 952 c 0
 258 1115 408 1274 585 1274 c 0
 723 1274 814 1176 814 1049 c 0
 814 1033 813 1017 810 1000 c 2
 694 343 l 25
 1042 753 l 18
 1062 777 1084 798 1106 815 c 1
 1076 855 1062 900 1062 951 c 0xfe
1325 912 m 0
 1389 912 1431 970 1431 1017 c 0
 1431 1057 1402 1090 1356 1090 c 0
 1300 1090 1249 1041 1249 987 c 0
 1249 947 1276 912 1325 912 c 0
521 912 m 0
 582 912 627 968 627 1017 c 0
 627 1057 598 1090 552 1090 c 0
 498 1090 444 1042 444 986 c 0
 444 945 474 912 521 912 c 0
EndSplineSet
EndChar

StartChar: uni0E2C
Encoding: 3628 3628 167
Width: 1654
VWidth: 2045
Flags: W
HStem: 0 21G<414 647.126 1243.97 1473.52> 726 186<450.272 540.403> 978 186<1298.58 1423.49> 1090 184<466.04 619.106> 1342 184<1313.42 1466.91>
VStem: 258 186<920.549 1065.66> 627 187<935.932 1084.06> 1104 186<1171.95 1319.6>
DStem2: 710 433 1056 643 0.548685 0.836029<0 365.411> 1327 434 1056 643 0.28885 -0.957374<-278.37 0> 1250.47 0 1470 0 0.173648 0.984808<440.695 1007.24>
AnchorPoint: "AboveBase" 1111 1375 basechar 0
LayerCount: 2
Fore
SplineSet
1104 1203 m 0xef
 1104 1375 1260 1526 1430 1526 c 0
 1569 1526 1624 1432 1640 1399 c 9
 1748 1492 l 1
 1877 1338 l 1
 1675 1164 l 1xef
 1470 0 l 1
 1250 0 l 1
 1056 643 l 1
 634 0 l 1
 414 0 l 9
 543 731 l 1
 525 728 507 726 488 726 c 0
 350 726 258 824 258 952 c 0
 258 1115 408 1274 585 1274 c 0xdf
 723 1274 814 1176 814 1049 c 0
 814 1033 813 1017 810 1000 c 2
 710 433 l 17
 1056 974 l 1
 1172 974 l 1
 1327 434 l 1
 1425 992 l 17
 1395 983 1364 978 1333 978 c 0
 1195 978 1104 1076 1104 1203 c 0xef
1366 1164 m 0
 1430 1164 1472 1222 1472 1269 c 0
 1472 1310 1444 1342 1398 1342 c 0
 1341 1342 1290 1292 1290 1239 c 0
 1290 1199 1317 1164 1366 1164 c 0
521 912 m 0
 582 912 627 968 627 1017 c 0
 627 1057 598 1090 552 1090 c 0xdf
 498 1090 444 1042 444 986 c 0
 444 945 474 912 521 912 c 0
EndSplineSet
EndChar

StartChar: uni0E2D
Encoding: 3629 3629 168
Width: 1489
VWidth: 2045
Flags: W
HStem: 0 213<644 1120> 336 186<683.598 837.593> 700 184<700.983 853.648> 1062 222<730.041 1073.52>
VStem: 265 220<702 823.764> 860 186<545.186 693.206> 1211 226<507.164 923.658>
DStem2: 1082.44 0 1303 0 0.173648 0.984808<216.286 775.716>
LayerCount: 2
Fore
SplineSet
1046 658 m 0
 1046 495 896 336 719 336 c 0
 700 336 683 338 666 341 c 1
 644 213 l 9
 1120 213 l 17
 1205 700 l 2
 1209 723 1211 745 1211 766 c 0
 1211 941 1082 1062 908 1062 c 0
 703 1062 520 899 485 702 c 9
 265 702 l 17
 324 1039 640 1284 949 1284 c 0
 1224 1284 1437 1092 1437 809 c 0
 1437 774 1433 739 1427 702 c 2
 1303 0 l 1
 386 0 l 25
 494 610 l 2
 520 759 659 884 816 884 c 0
 954 884 1046 786 1046 658 c 0
783 700 m 0
 725 700 678 648 678 597 c 0
 678 557 705 522 752 522 c 0
 809 522 860 574 860 627 c 0
 860 670 824 700 783 700 c 0
EndSplineSet
EndChar

StartChar: uni0E2E
Encoding: 3630 3630 169
Width: 1298
VWidth: 2045
Flags: W
HStem: 0 213<388 894> 236 186<405.671 557.726> 600 184<421.857 574.685> 800 179<550.879 900.287> 1090 195<555.044 876.665>
VStem: 582 190<444.205 593.206> 994 225<667.988 876.231>
DStem2: 856.442 0 1077 0 0.173648 0.984808<216.286 822.488>
LayerCount: 2
Fore
SplineSet
293 1002 m 0
 293 1073 385 1285 765 1285 c 0
 947 1285 1064 1202 1102 1153 c 1
 1150 1200 1180 1241 1193 1276 c 1
 1369 1184 l 1
 1325 1111 1269 1045 1202 987 c 1
 1213 946 1219 903 1219 857 c 0
 1219 821 1215 783 1208 743 c 2
 1077 0 l 1
 130 0 l 25
 220 510 l 2
 246 659 385 784 542 784 c 0
 680 784 772 686 772 558 c 0
 772 392 621 236 446 236 c 0
 427 236 409 238 392 241 c 1
 388 213 l 9
 894 213 l 17
 987 741 l 2
 991 766 994 789 994 812 c 0
 994 835 991 857 986 878 c 1
 880 825 768 800 647 800 c 0
 375 800 293 912 293 1002 c 0
506 600 m 0
 443 600 400 543 400 497 c 0
 400 457 427 422 474 422 c 0
 535 422 582 477 582 527 c 0
 582 570 547 600 506 600 c 0
728 1090 m 0
 579 1090 548 1051 548 1025 c 0
 548 988 635 979 709 979 c 0
 782 979 847 993 903 1019 c 1
 871 1066 814 1090 728 1090 c 0
EndSplineSet
EndChar

StartChar: uni0E2F
Encoding: 3631 3631 170
Width: 1295
VWidth: 2045
Flags: W
HStem: 0 21G<919 1142.52> 637 255<446.37 718.552> 1070 184<461.037 611.193>
VStem: 251 186<899.54 1048.44> 619 188<913.472 1064.09>
DStem2: 919 0 1139 0 0.173648 0.984808<38.2026 825.48 1069.87 1273.33>
LayerCount: 2
Fore
SplineSet
513 892 m 0
 577 892 619 950 619 997 c 0
 619 1038 591 1070 545 1070 c 0
 488 1070 437 1020 437 967 c 0
 437 927 464 892 513 892 c 0
251 932 m 0
 251 1106 410 1254 577 1254 c 0
 715 1254 807 1156 807 1028 c 0
 807 963 784 912 760 876 c 1
 834 887 911 924 990 987 c 0
 1070 1050 1120 1139 1140 1254 c 1
 1360 1254 l 1
 1139 0 l 1
 919 0 l 1
 1062 813 l 1
 910 685 766 637 562 637 c 0
 338 637 251 802 251 932 c 0
EndSplineSet
EndChar

StartChar: uni0E30
Encoding: 3632 3632 171
Width: 1158
VWidth: 2045
Flags: W
HStem: 45 193<292.958 572.957> 45 163<526 689.915> 417 133<309.775 464.832> 665 193<402.413 681.864> 665 163<635 798.729> 1036 133<420.415 573.937>
VStem: 153 135<245.126 394.886> 262 135<864.652 1012.79> 471 139<260.379 410.353> 580 139<879.139 1029.83>
LayerCount: 2
Fore
SplineSet
719 990 m 0x3540
 719 938 693 865 635 828 c 1x2d40
 841 828 944 991 1002 1089 c 1
 1126 994 l 1
 1028 841 867 665 565 665 c 0
 311 665 262 812 262 902 c 0
 262 1035 375 1169 528 1169 c 0
 641 1169 719 1084 719 990 c 0x3540
473 858 m 0x3540
 529 858 580 906 580 962 c 0
 580 1002 553 1036 505 1036 c 0
 447 1036 397 986 397 929 c 0
 397 888 427 858 473 858 c 0x3540
610 371 m 0xa680
 610 314 580 244 526 208 c 1x6680
 732 208 835 372 893 470 c 1
 1017 375 l 1
 920 224 758 45 456 45 c 0
 199 45 153 194 153 282 c 0
 153 422 272 550 419 550 c 0
 532 550 610 465 610 371 c 0xa680
364 238 m 0xa680
 418 238 471 285 471 343 c 0
 471 386 438 417 396 417 c 0
 344 417 288 372 288 310 c 0
 288 266 321 238 364 238 c 0xa680
EndSplineSet
EndChar

StartChar: uni0E31
Encoding: 3633 3633 172
Width: 0
VWidth: 2045
Flags: W
HStem: 1414 193<-374.719 -69.2893> 1414 163<-144 66.4214> 1785 133<-359.993 -205.363>
VStem: -518 136<1614.11 1761.47> -200 139<1629.06 1778.3>
AnchorPoint: "AboveMark" 4 1986 basemark 0
AnchorPoint: "AboveBase" 127 1375 mark 0
LayerCount: 2
Fore
SplineSet
-61 1739 m 0xb8
 -61 1681 -92 1610 -144 1577 c 1x78
 -31 1577 130 1594 321 1838 c 1
 446 1743 l 1
 212 1441 -58 1414 -205 1414 c 0
 -468 1414 -518 1568 -518 1656 c 0
 -518 1777 -410 1918 -252 1918 c 0
 -135 1918 -61 1830 -61 1739 c 0xb8
-307 1607 m 0xb8
 -251 1607 -200 1655 -200 1711 c 0
 -200 1750 -226 1785 -275 1785 c 0
 -336 1785 -382 1731 -382 1680 c 0
 -382 1639 -354 1607 -307 1607 c 0xb8
EndSplineSet
EndChar

StartChar: uni0E32
Encoding: 3634 3634 173
Width: 1169
VWidth: 2045
Flags: W
HStem: 1064 220<617.994 914.302>
VStem: 227 220<788 899.413> 1003 224<711.151 788 837 970.98>
DStem2: 860 0 1080 0 0.173648 0.984808<38.2026 848.377>
LayerCount: 2
Fore
SplineSet
773 1064 m 0
 915 1064 1003 963 1003 837 c 0
 1003 821 1002 805 999 788 c 2
 860 0 l 1
 1080 0 l 9
 1220 788 l 2
 1225 815 1227 843 1227 869 c 0
 1227 1093 1064 1284 810 1284 c 0
 530 1284 275 1060 227 788 c 9
 447 788 l 17
 474 944 621 1064 773 1064 c 0
EndSplineSet
EndChar

StartChar: uni0E34
Encoding: 3636 3636 175
Width: 0
VWidth: 2045
Flags: W
HStem: 1762 174<-572.741 -239.675>
DStem2: -644 1672 -957 1543 0.995508 -0.0946737<0 507.371>
AnchorPoint: "AboveMark" 125 2120 basemark 0
AnchorPoint: "AboveBase" 79 1375 mark 0
LayerCount: 2
Fore
SplineSet
-139 1623 m 1
 -156 1652 -226 1756 -398 1762 c 1
 -434 1762 -595 1730 -644 1672 c 9
 -139 1623 l 1
-957 1543 m 17
 -818 1843 -540 1936 -368 1936 c 0
 -146 1936 85 1791 85 1486 c 0
 85 1472 85 1458 84 1444 c 1
 -957 1543 l 17
EndSplineSet
EndChar

StartChar: uni0E35
Encoding: 3637 3637 176
Width: 0
VWidth: 2045
Flags: W
HStem: 1759 174<-573.136 -236.333>
DStem2: -645 1669 -957 1540 0.9955 -0.0947639<0 508.366> -74.2459 1441 83.0324 1441 0.173648 0.984808<341.183 644.844>
AnchorPoint: "AboveBase" 83 1375 mark 0
AnchorPoint: "AboveMark" 125 2120 basemark 0
LayerCount: 2
Fore
SplineSet
-957 1540 m 1
 -819 1840 -540 1933 -368 1933 c 0
 -235 1933 -118 1879 -15 1777 c 9
 38 2076 l 1
 195 2076 l 1
 83 1441 l 1
 -957 1540 l 1
-139 1620 m 1
 -156 1649 -227 1753 -399 1759 c 1
 -435 1759 -595 1727 -645 1669 c 9
 -139 1620 l 1
EndSplineSet
EndChar

StartChar: uni0E36
Encoding: 3638 3638 177
Width: 0
VWidth: 2045
Flags: W
HStem: 1757 174<-573.297 -244.21> 2007 133<-92.1324 60.0924>
VStem: 66 139<1851.65 2000.27>
DStem2: -645 1667 -958 1538 0.995508 -0.0946737<0 507.371>
AnchorPoint: "AboveBase" 68 1375 mark 0
AnchorPoint: "AboveMark" 18 2120 basemark 0
LayerCount: 2
Fore
SplineSet
205 1957 m 0
 205 1818 87 1736 29 1713 c 1
 66 1648 84 1571 84 1483 c 0
 84 1469 84 1454 83 1439 c 1
 -958 1538 l 1
 -819 1838 -539 1931 -369 1931 c 0
 -329 1931 -289 1926 -250 1917 c 1
 -229 2038 -116 2140 14 2140 c 0
 128 2140 205 2060 205 1957 c 0
-40 1829 m 0
 13 1829 66 1877 66 1932 c 0
 66 1972 39 2007 -9 2007 c 0
 -61 2007 -116 1960 -116 1902 c 0
 -116 1858 -80 1829 -40 1829 c 0
-140 1618 m 1
 -157 1647 -227 1751 -399 1757 c 1
 -435 1757 -596 1725 -645 1667 c 9
 -140 1618 l 1
EndSplineSet
EndChar

StartChar: uni0E37
Encoding: 3639 3639 178
Width: 0
VWidth: 2045
Flags: W
HStem: 1764 174<-572.378 -235.022>
DStem2: -644 1674 -957 1545 0.995508 -0.0946737<0 508.366> -73.2459 1446 84.0324 1446 0.173648 0.984808<341.183 644.844>
AnchorPoint: "AboveMark" 7 2120 basemark 0
AnchorPoint: "AboveBase" 67 1375 mark 0
LayerCount: 2
Fore
SplineSet
-957 1545 m 1
 -818 1845 -539 1938 -367 1938 c 0
 -320 1938 -273 1930 -226 1915 c 1
 -197 2081 l 1
 -40 2081 l 1
 -82 1842 l 17
 -56 1821 -33 1801 -14 1782 c 1
 39 2081 l 1
 196 2081 l 1
 84 1446 l 1
 -957 1545 l 1
-138 1625 m 1
 -155 1654 -226 1758 -398 1764 c 1
 -434 1764 -595 1732 -644 1674 c 9
 -138 1625 l 1
EndSplineSet
EndChar

StartChar: uni0E38
Encoding: 3640 3640 179
Width: 0
VWidth: 2045
Flags: W
HStem: -532 133<-523.461 -432.357> -221 134<-506.381 -352.143>
VStem: -669 139<-391.941 -244.947> -347 138<-373.579 -226.566>
AnchorPoint: "BelowBase" -175 -88 mark 0
LayerCount: 2
Fore
SplineSet
-669 -349 m 0
 -669 -217 -548 -87 -399 -87 c 0
 -281 -87 -209 -172 -209 -272 c 0
 -209 -284 -210 -296 -212 -308 c 2
 -291 -755 l 1
 -471 -755 l 9
 -431 -529 l 1
 -448 -531 -463 -532 -478 -532 c 0
 -590 -532 -669 -454 -669 -349 c 0
-454 -399 m 0
 -403 -399 -347 -351 -347 -294 c 0
 -347 -253 -376 -221 -423 -221 c 0
 -482 -221 -530 -273 -530 -325 c 0
 -530 -365 -499 -399 -454 -399 c 0
EndSplineSet
Substitution2: "Thai Sara U Mai Ek Reordering" uni0E48.low
Substitution2: "Thai Sara U Mai Tho Reordering" uni0E49.low
Substitution2: "Thai Sara U Mai Tri Reordering" uni0E4A.low
Substitution2: "Thai Sara U Mai Chattawa Reordering" uni0E4B.low
Substitution2: "Thai Sara U Thanthakhat Reordering" uni0E4C.low
Substitution2: "Thai Sara U Nikhahit Reordering" uni0E4D
EndChar

StartChar: uni0E39
Encoding: 3641 3641 180
Width: 0
VWidth: 2045
Flags: W
HStem: -775 156<-603 -440> -532 133<-859.43 -768.046> -221 134<-844.871 -687.917>
VStem: -1003 138<-391.448 -243.901> -683 138<-376.282 -228.132>
DStem2: -467.507 -775 -288 -775 0.173648 0.984808<158.407 700.617>
AnchorPoint: "BelowBase" -127 -85 mark 0
LayerCount: 2
Fore
SplineSet
-1003 -348 m 0
 -1003 -217 -883 -87 -735 -87 c 0
 -616 -87 -545 -170 -545 -271 c 0
 -545 -283 -546 -295 -548 -308 c 2
 -603 -619 l 1
 -440 -619 l 1
 -346 -85 l 1
 -166 -85 l 1
 -288 -775 l 1
 -811 -775 l 25
 -767 -529 l 1
 -783 -531 -798 -532 -814 -532 c 0
 -927 -532 -1003 -452 -1003 -348 c 0
-790 -399 m 0
 -738 -399 -683 -352 -683 -293 c 0
 -683 -253 -711 -221 -759 -221 c 0
 -814 -221 -865 -267 -865 -326 c 0
 -865 -371 -829 -399 -790 -399 c 0
EndSplineSet
Substitution2: "Thai Sara UU Mai Ek Reordering" uni0E48.low
Substitution2: "Thai Sara UU Mai Tho Reordering" uni0E49.low
Substitution2: "Thai Sara UU Mai Tri Reordering" uni0E4A.low
Substitution2: "Thai Sara UU Mai Chattawa Reordering" uni0E4B.low
Substitution2: "Thai Sara UU Thanthakhat Reordering" uni0E4C.low
Substitution2: "Thai Sara UU Nikhahit Reordering" uni0E4D
EndChar

StartChar: uni0E3A
Encoding: 3642 3642 181
Width: 0
VWidth: 2045
Flags: W
HStem: -438 356<-514.693 -321.328>
VStem: -600 366<-348.719 -166.932>
AnchorPoint: "BelowBase" -200 -86 mark 0
LayerCount: 2
Fore
SplineSet
-234 -227 m 0
 -234 -333 -330 -438 -447 -438 c 0
 -535 -438 -600 -376 -600 -290 c 0
 -600 -176 -497 -82 -384 -82 c 0
 -291 -82 -234 -146 -234 -227 c 0
EndSplineSet
Substitution2: "Thai Phinthu Maitaikhu Reordering" uni0E47
Substitution2: "Thai Phinthu Mai Ek Reordering" uni0E48.low
Substitution2: "Thai Phinthu Mai Tho Reordering" uni0E49.low
Substitution2: "Thai Phinthu Mai Tri Reordering" uni0E4A.low
Substitution2: "Thai Phinthu Mai Chattawa Reordering" uni0E4B.low
Substitution2: "Thai Phinthu Thanthakhat Reordering" uni0E4C.low
Substitution2: "Thai Phinthu Nikhahit Reordering" uni0E4D
EndChar

StartChar: uni0E3F
Encoding: 3647 3647 182
Width: 1364
VWidth: 2045
Flags: W
HStem: 0 172<375 550 737 984.912> 669 174<494 668 856 1046.22> 1278 172<570 775 963 1120.98>
VStem: 1134 202<304.345 592.556> 1185 196<971.172 1219.88>
DStem2: 141.901 -131 321.573 -131 0.173648 0.984808<338.874 843.604 1020.34 1461.93> 527 -131 684 -131 0.173648 0.984808<27.2628 133.004 334.863 812.331 1016.33 1430.66 1632.69 1755.7>
LayerCount: 2
Fore
SplineSet
1381 1146 m 0xe8
 1381 1045 1332 869 1116 772 c 1
 1247 734 1336 636 1336 490 c 0xf0
 1336 349 1255 0 707 0 c 9
 684 -131 l 1
 527 -131 l 1
 550 0 l 1
 165 0 l 1
 421 1450 l 1
 806 1450 l 1
 832 1598 l 1
 989 1598 l 1
 963 1450 l 1
 1317 1448 1381 1270 1381 1146 c 0xe8
856 843 m 17
 976 847 1185 865 1185 1109 c 0xe8
 1185 1266 1030 1271 932 1276 c 1
 856 843 l 17
737 172 m 17
 927 172 1134 219 1134 475 c 0xf0
 1134 628 998 664 825 669 c 1
 737 172 l 17
580 172 m 25
 668 669 l 1
 463 669 l 1
 375 172 l 1
 580 172 l 25
698 841 m 25
 775 1278 l 1
 570 1278 l 1
 494 843 l 1
 698 841 l 25
EndSplineSet
EndChar

StartChar: uni0E40
Encoding: 3648 3648 183
Width: 760
VWidth: 2045
Flags: W
HStem: -10 186<384.58 533.535> 354 179<462.324 550.115> 1234 20G<365.465 589>
VStem: 190 186<183.946 329.282> 558 188<198.438 347.686>
DStem2: 145.686 -10 366.254 -10 0.173648 0.984808<589.678 1283.57>
LayerCount: 2
Fore
SplineSet
452 176 m 0
 516 176 558 234 558 281 c 0
 558 321 529 354 483 354 c 0
 427 354 376 305 376 251 c 0
 376 211 403 176 452 176 c 0
746 312 m 0
 746 149 596 -10 419 -10 c 0
 281 -10 190 88 190 215 c 0
 190 231 191 247 194 264 c 2
 369 1254 l 1
 589 1254 l 1
 462 533 l 1
 480 536 497 538 516 538 c 0
 654 538 746 440 746 312 c 0
EndSplineSet
EndChar

StartChar: uni0E41
Encoding: 3649 3649 184
Width: 1400
VWidth: 2045
Flags: W
HStem: -10 186<384.58 533.535 1014.58 1163.53> 354 179<462.324 550.115 1092.32 1179.83> 1234 20G<365.465 589 995.465 1219>
VStem: 190 186<183.946 329.282> 558 188<198.438 347.686> 820 186<183.946 329.282> 1188 188<198.438 347.561>
DStem2: 145.686 -10 366.254 -10 0.173648 0.984808<589.678 1283.57> 775.686 -10 996.254 -10 0.173648 0.984808<589.678 1283.57>
LayerCount: 2
Fore
SplineSet
1082 176 m 0
 1146 176 1188 234 1188 281 c 0
 1188 324 1155 354 1113 354 c 0
 1057 354 1006 305 1006 251 c 0
 1006 211 1033 176 1082 176 c 0
1376 312 m 0
 1376 149 1226 -10 1049 -10 c 0
 911 -10 820 88 820 215 c 0
 820 231 821 247 824 264 c 2
 999 1254 l 1
 1219 1254 l 1
 1092 533 l 1
 1110 536 1127 538 1146 538 c 0
 1284 538 1376 440 1376 312 c 0
452 176 m 0
 516 176 558 234 558 281 c 0
 558 321 529 354 483 354 c 0
 427 354 376 305 376 251 c 0
 376 211 403 176 452 176 c 0
746 312 m 0
 746 149 596 -10 419 -10 c 0
 281 -10 190 88 190 215 c 0
 190 231 191 247 194 264 c 2
 369 1254 l 1
 589 1254 l 1
 462 533 l 1
 480 536 497 538 516 538 c 0
 654 538 746 440 746 312 c 0
EndSplineSet
EndChar

StartChar: uni0E42
Encoding: 3650 3650 185
Width: 852
VWidth: 2045
Flags: W
HStem: -10 186<463.042 615.035> 354 179<547.42 631.615> 1522 186<285 484.435> 1854 220<415.109 742.078>
VStem: 273 183<183.946 325.86> 487 221<1213.31 1517.85> 638 191<198.438 347.686>
DStem2: 228.686 -10 449.254 -10 0.173648 0.984808<589.678 1491.26>
LayerCount: 2
Fore
SplineSet
532 176 m 0xfa
 596 176 638 234 638 281 c 0
 638 321 609 354 563 354 c 0
 507 354 456 305 456 251 c 0
 456 211 483 176 532 176 c 0xfa
829 312 m 0
 829 149 679 -10 502 -10 c 0
 364 -10 273 88 273 215 c 0
 273 231 274 247 277 264 c 2
 485 1438 l 2
 486 1446 487 1453 487 1459 c 0
 487 1501 462 1522 412 1522 c 2
 -26 1522 l 1
 31 1843 332 2074 624 2074 c 0
 844 2074 992 1951 1053 1799 c 9
 852 1665 l 17
 835 1722 765 1854 585 1854 c 0
 421 1854 315 1744 285 1708 c 1
 478 1708 l 2
 616 1708 708 1610 708 1482 c 0xfc
 708 1466 707 1450 704 1434 c 2
 545 533 l 1
 563 536 580 538 599 538 c 0
 737 538 829 440 829 312 c 0
EndSplineSet
EndChar

StartChar: uni0E43
Encoding: 3651 3651 186
Width: 963
VWidth: 2045
Flags: W
HStem: -10 186<563.607 715.035> 354 179<647.42 731.615> 1334 186<138.07 292.012> 1872 210<347.558 554.035>
VStem: -61 193<1528.26 1676.39> 314 188<1541.2 1691.07> 372 184<183.156 329.587> 618 225<1412.25 1805.14> 738 191<198.438 347.686>
DStem2: 328.686 -10 549.254 -10 0.173648 0.984808<589.678 1701.73>
LayerCount: 2
Fore
SplineSet
929 312 m 0xf880
 929 149 779 -10 602 -10 c 0
 469 -10 372 84 372 214 c 0xfa80
 372 230 374 247 377 264 c 2
 612 1597 l 2
 616 1622 618 1646 618 1668 c 0
 618 1764 577 1872 409 1872 c 0
 376 1872 356 1868 346 1860 c 1
 415 1860 502 1781 502 1656 c 0
 502 1487 346 1334 175 1334 c 0
 65 1334 -61 1411 -61 1574 c 0
 -61 1814 166 2082 473 2082 c 0
 673 2082 843 1949 843 1704 c 0xfd
 843 1671 840 1635 833 1598 c 2
 645 533 l 1
 663 536 680 538 699 538 c 0
 837 538 929 440 929 312 c 0xf880
208 1520 m 0
 272 1520 314 1578 314 1625 c 0xfc
 314 1665 285 1698 239 1698 c 0
 183 1698 132 1649 132 1595 c 0
 132 1555 159 1520 208 1520 c 0
632 176 m 0
 696 176 738 234 738 281 c 0
 738 321 709 354 663 354 c 0
 607 354 556 305 556 251 c 0xfa80
 556 211 583 176 632 176 c 0
EndSplineSet
EndChar

StartChar: uni0E44
Encoding: 3652 3652 187
Width: 963
VWidth: 2045
Flags: W
HStem: -10 186<563.607 715.035> 354 179<647.42 731.615> 1481 21G<89 319.281>
VStem: 183 201<1779.88 2169.67> 372 184<183.156 321.813> 738 191<198.438 347.686>
DStem2: 328.686 -10 549.254 -10 0.173648 0.984808<589.678 1803.25>
LayerCount: 2
Fore
SplineSet
929 312 m 0xf4
 929 149 779 -10 602 -10 c 0
 469 -10 372 84 372 214 c 0xec
 372 230 374 247 377 264 c 2
 641 1766 l 25
 295 1481 l 1
 89 1481 l 1
 180 1997 l 2
 182 2009 183 2020 183 2032 c 0
 183 2071 171 2106 146 2136 c 1
 301 2268 l 1
 357 2221 384 2156 384 2074 c 0
 384 2050 382 2024 377 1997 c 2
 333 1745 l 1
 696 2074 l 1
 917 2074 l 25
 645 533 l 1
 663 536 680 538 699 538 c 0
 837 538 929 440 929 312 c 0xf4
632 176 m 0
 696 176 738 234 738 281 c 0
 738 321 709 354 663 354 c 0
 607 354 556 305 556 251 c 0
 556 211 583 176 632 176 c 0
EndSplineSet
EndChar

StartChar: uni0E45
Encoding: 3653 3653 188
Width: 1126
VWidth: 2045
Flags: W
HStem: 1064 220<428.881 724.302>
VStem: 37 220<788 900.971> 813 224<709.387 788 837 971.581>
DStem2: 573 -550 793 -550 0.173648 0.984808<38.2026 1406.87>
LayerCount: 2
Fore
SplineSet
583 1064 m 0
 725 1064 813 963 813 837 c 0
 813 821 812 805 809 788 c 2
 573 -550 l 1
 793 -550 l 9
 1030 788 l 2
 1035 815 1037 843 1037 870 c 0
 1037 1093 874 1284 620 1284 c 0
 344 1284 86 1065 37 788 c 9
 257 788 l 17
 284 944 431 1064 583 1064 c 0
EndSplineSet
EndChar

StartChar: uni0E46
Encoding: 3654 3654 189
Width: 1648
VWidth: 2045
Flags: W
HStem: 408 190<556.718 712.675> 774 191<610.531 725.196> 1244 20G<611 809.963 1126.11 1188>
VStem: 306 245<604.016 751.299> 733 190<620.022 765.336> 1209 217<781.424 1006.4>
DStem2: 953 -560 1170 -560 0.173648 0.984808<37.6817 1487.4>
LayerCount: 2
Fore
SplineSet
630 598 m 0
 688 598 733 650 733 701 c 0
 733 745 699 774 658 774 c 0
 608 774 551 730 551 669 c 0
 551 627 582 598 630 598 c 0
923 731 m 0
 923 560 753 408 594 408 c 0
 510 408 306 449 306 697 c 0
 306 919 445 1205 777 1264 c 1
 955 1156 l 1
 1165 1264 l 1
 1211 1258 1426 1168 1426 935 c 0
 1426 912 1424 887 1419 861 c 10
 1170 -560 l 17
 953 -560 l 1
 1204 850 l 2
 1208 871 1209 889 1209 906 c 0
 1209 994 1160 1021 1115 1036 c 1
 913 940 l 1
 743 1033 l 1
 691 1024 645 994 609 942 c 1
 631 957 659 965 696 965 c 0
 810 965 923 869 923 731 c 0
EndSplineSet
EndChar

StartChar: uni0E47
Encoding: 3655 3655 190
Width: 0
VWidth: 2045
Flags: W
HStem: 1403 112<-218.6 -96.1323> 1512 131<-573.936 -419.914> 1648 112<-213.888 -88.4077> 1805 119<-613.516 25.5956>
VStem: -808 133<1549.34 1745.88> -338 115<1548.27 1634.78> -87 115<1524.47 1645.31>
AnchorPoint: "AboveMark" -417 1374 mark 0
AnchorPoint: "AboveBase" -30 1375 mark 0
LayerCount: 2
Fore
SplineSet
-808 1601 m 0xbe
 -808 1741 -718 1924 -437 1924 c 0
 -372 1924 -319 1912 -221 1912 c 0
 -55 1912 47 1953 86 2037 c 1
 178 1977 l 1
 121 1856 -8 1795 -213 1794 c 0
 -332 1794 -378 1805 -450 1805 c 0
 -571 1805 -675 1768 -675 1620 c 0
 -675 1579 -659 1555 -626 1548 c 1
 -614 1617 -565 1643 -525 1643 c 0x7e
 -432 1643 -407 1562 -338 1548 c 1
 -338 1664 -234 1760 -124 1760 c 0
 -37 1760 28 1698 28 1613 c 0
 28 1524 -46 1403 -206 1403 c 0xbe
 -395 1403 -431 1512 -518 1512 c 0x7e
 -580 1512 -576 1459 -585 1403 c 1
 -767 1426 -808 1517 -808 1601 c 0xbe
-167 1515 m 0xbe
 -123 1515 -87 1553 -87 1592 c 0
 -87 1624 -111 1648 -143 1648 c 0
 -184 1648 -223 1613 -223 1568 c 0
 -223 1538 -202 1515 -167 1515 c 0xbe
EndSplineSet
Substitution2: "Thai Mark High Variant" uni0E47.high
Substitution2: "Thai Phinthu Maitaikhu Reordering" uni0E3A
EndChar

StartChar: uni0E48
Encoding: 3656 3656 191
Width: 0
VWidth: 2045
Flags: W
HStem: 2178 330<103 225>
VStem: 45 238
DStem2: 45 2178 225 2178 0.173648 0.984808<31.2567 335.058>
AnchorPoint: "AboveMark" 125 2120 mark 0
LayerCount: 2
Fore
SplineSet
45 2178 m 17
 103 2508 l 1
 283 2508 l 1
 225 2178 l 1
 45 2178 l 17
EndSplineSet
MultipleSubs2: "Thai Tone Nikhahit Attachment" uni0E4D uni0E48
Substitution2: "Thai Tone Low Variant" uni0E48.low
Substitution2: "Thai Sara U Mai Ek Reordering" uni0E38
Substitution2: "Thai Sara UU Mai Ek Reordering" uni0E39
Substitution2: "Thai Phinthu Mai Ek Reordering" uni0E3A
EndChar

StartChar: uni0E49
Encoding: 3657 3657 192
Width: 0
VWidth: 2045
Flags: W
HStem: 2487 90<-11.3305 92.9313>
VStem: -108 92<2381.02 2483.87> 93 91<2384.2 2486.76> 365 125<2446.98 2567>
AnchorPoint: "AboveMark" 125 2120 mark 0
LayerCount: 2
Back
SplineSet
-267 2475 m 0
 -267 2594 -164 2687 -53 2687 c 0
 41 2687 98 2623 98 2541 c 0
 98 2519 94 2434 11 2365 c 2
 -69 2293 l 1
 16 2308 98 2346 176 2409 c 0
 254 2472 302 2560 323 2675 c 1
 480 2675 l 1
 430 2359 126 2137 -152 2137 c 2
 -301 2137 l 1
 -274 2291 l 1
 -162 2347 l 1
 -252 2365 -267 2431 -267 2475 c 0
-96 2442 m 0
 -51 2442 -17 2484 -17 2520 c 0
 -17 2547 -35 2575 -73 2575 c 0
 -121 2575 -153 2534 -153 2497 c 0
 -153 2464 -127 2442 -96 2442 c 0
EndSplineSet
Fore
SplineSet
-108 2408 m 0
 -108 2491 -37 2577 63 2577 c 0
 138 2577 184 2525 184 2460 c 0
 184 2446 181 2374 115 2319 c 1
 51 2261 l 1
 154 2279 326 2356 365 2567 c 1
 490 2567 l 1
 450 2314 207 2137 -15 2137 c 2
 -135 2137 l 1
 -114 2260 l 1
 -24 2305 l 1
 -96 2319 -108 2373 -108 2408 c 0
29 2381 m 0
 66 2381 93 2415 93 2442 c 0
 93 2464 79 2487 48 2487 c 0
 10 2487 -16 2454 -16 2425 c 0
 -16 2398 4 2381 29 2381 c 0
EndSplineSet
MultipleSubs2: "Thai Tone Nikhahit Attachment" uni0E4D uni0E49
Substitution2: "Thai Tone Low Variant" uni0E49.low
Substitution2: "Thai Sara U Mai Tho Reordering" uni0E38
Substitution2: "Thai Sara UU Mai Tho Reordering" uni0E39
Substitution2: "Thai Phinthu Mai Tho Reordering" uni0E3A
EndChar

StartChar: uni0E4A
Encoding: 3658 3658 193
Width: 0
VWidth: 2045
Flags: W
HStem: 2150 90<-97.6678 7.84749> 2346 90<-63.5638 9.69388> 2479 102<-59.084 104.485 197.818 352.653>
VStem: -208 110<2241.47 2341.59> 11 91<2243.51 2345.92> 362 104<2315.68 2470.23> 600 102<2428.53 2542>
AnchorPoint: "AboveMark" 125 2120 mark 0
LayerCount: 2
Back
SplineSet
-530 2337 m 0
 -530 2563 -333 2688 -204 2688 c 0
 -135 2688 -86 2667 -57 2624 c 1
 -14 2667 43 2688 114 2688 c 0
 205 2688 313 2609 313 2470 c 0
 313 2435 306 2397 288 2354 c 1
 364 2405 455 2503 480 2640 c 1
 608 2640 l 17
 554 2339 259 2150 50 2150 c 1
 72 2277 l 1
 114 2300 183 2363 183 2451 c 0
 183 2528 129 2561 92 2561 c 0
 38 2561 -3 2539 -31 2496 c 1
 -132 2496 l 1
 -165 2539 -197 2561 -226 2561 c 0
 -277 2560 -322 2528 -349 2499 c 1
 -329 2504 -310 2507 -293 2507 c 0
 -200 2507 -142 2444 -142 2362 c 0
 -142 2248 -242 2150 -356 2150 c 0
 -441 2150 -530 2205 -530 2337 c 0
-336 2262 m 0
 -296 2262 -257 2299 -257 2340 c 0
 -257 2373 -283 2395 -313 2395 c 0
 -355 2395 -393 2354 -393 2319 c 0
 -393 2289 -371 2262 -336 2262 c 0
EndSplineSet
Fore
SplineSet
-208 2300 m 0
 -208 2480 -50 2581 53 2581 c 0
 108 2581 148 2564 170 2530 c 1
 205 2564 251 2581 307 2581 c 0
 380 2581 466 2518 466 2407 c 0
 466 2388 463 2347 447 2314 c 1
 507 2354 581 2433 600 2542 c 1
 702 2542 l 17
 660 2302 423 2150 256 2150 c 1
 274 2252 l 1
 306 2270 362 2320 362 2392 c 0
 362 2453 319 2479 289 2479 c 0
 246 2479 214 2462 192 2427 c 1
 111 2427 l 1
 84 2462 58 2479 35 2479 c 0
 -5 2478 -41 2453 -64 2430 c 1
 -47 2434 -31 2436 -18 2436 c 0
 56 2436 102 2385 102 2319 c 0
 102 2229 23 2150 -69 2150 c 0
 -136 2150 -208 2194 -208 2300 c 0
-53 2240 m 0
 -20 2240 11 2270 11 2303 c 0
 11 2329 -9 2346 -34 2346 c 0
 -62 2346 -98 2320 -98 2285 c 0
 -98 2261 -81 2240 -53 2240 c 0
EndSplineSet
MultipleSubs2: "Thai Tone Nikhahit Attachment" uni0E4D uni0E4A
Substitution2: "Thai Tone Low Variant" uni0E4A.low
Substitution2: "Thai Sara U Mai Tri Reordering" uni0E38
Substitution2: "Thai Sara UU Mai Tri Reordering" uni0E39
Substitution2: "Thai Phinthu Mai Tri Reordering" uni0E3A
EndChar

StartChar: uni0E4B
Encoding: 3659 3659 194
Width: 0
VWidth: 2045
Flags: W
HStem: 2297 144<-9 86 256 351>
VStem: -34 410
DStem2: 65 2177 210 2177 0.173648 0.984808<25.179 121.824 293.156 388.816>
AnchorPoint: "AboveMark" 125 2120 mark 0
LayerCount: 2
Back
SplineSet
293 2327 m 1
 143 2327 l 1
 117 2177 l 1
 -64 2177 l 1
 -38 2327 l 1
 -188 2327 l 1
 -156 2507 l 1
 -6 2507 l 1
 20 2656 l 1
 201 2656 l 1
 175 2507 l 1
 325 2507 l 1
 293 2327 l 1
EndSplineSet
Fore
SplineSet
351 2297 m 1
 231 2297 l 1
 210 2177 l 1
 65 2177 l 1
 86 2297 l 1
 -34 2297 l 1
 -9 2441 l 1
 111 2441 l 1
 132 2560 l 1
 277 2560 l 1
 256 2441 l 1
 376 2441 l 1
 351 2297 l 1
EndSplineSet
MultipleSubs2: "Thai Tone Nikhahit Attachment" uni0E4D uni0E4B
Substitution2: "Thai Tone Low Variant" uni0E4B.low
Substitution2: "Thai Sara U Mai Chattawa Reordering" uni0E38
Substitution2: "Thai Sara UU Mai Chattawa Reordering" uni0E39
Substitution2: "Thai Phinthu Mai Chattawa Reordering" uni0E3A
EndChar

StartChar: uni0E4C
Encoding: 3660 3660 195
Width: 0
VWidth: 2045
Flags: W
HStem: 2188 106<-27.4183 102.341> 2421 124<225 569.633> 2437 108<-18.4982 114.775>
VStem: -140 110<2296.94 2424.59> 116 110<2307.84 2420.68>
AnchorPoint: "AboveMark" 125 2120 mark 0
LayerCount: 2
Back
SplineSet
-202 2321 m 0xb8
 -148 2321 -95 2369 -95 2427 c 0
 -95 2471 -128 2500 -170 2500 c 0
 -225 2500 -277 2453 -277 2395 c 0
 -277 2352 -244 2321 -202 2321 c 0xb8
-414 2370 m 0
 -414 2509 -289 2634 -146 2634 c 2xb8
 324 2632 l 2
 388 2632 438 2651 474 2690 c 1
 565 2581 l 1
 486 2512 396 2478 297 2478 c 2
 41 2480 l 1xd8
 42 2469 43 2459 43 2448 c 0
 43 2320 -77 2188 -225 2188 c 0
 -331 2188 -414 2261 -414 2370 c 0
EndSplineSet
Fore
SplineSet
30 2294 m 0xb8
 69 2294 116 2329 116 2380 c 0
 116 2415 89 2437 56 2437 c 0
 9 2437 -30 2396 -30 2354 c 0
 -30 2319 -4 2294 30 2294 c 0xb8
-140 2333 m 0
 -140 2448 -35 2545 75 2545 c 2xb8
 450 2543 l 2
 502 2543 542 2558 571 2589 c 1
 643 2502 l 1
 580 2447 509 2420 429 2420 c 2
 225 2421 l 1xd8
 226 2414 226 2407 226 2400 c 0
 226 2285 121 2188 12 2188 c 0
 -74 2188 -140 2246 -140 2333 c 0
EndSplineSet
MultipleSubs2: "Thai Tone Nikhahit Attachment" uni0E4D uni0E4C
Substitution2: "Thai Tone Low Variant" uni0E4C.low
Substitution2: "Thai Sara U Thanthakhat Reordering" uni0E38
Substitution2: "Thai Sara UU Thanthakhat Reordering" uni0E39
Substitution2: "Thai Phinthu Thanthakhat Reordering" uni0E3A
EndChar

StartChar: uni0E4D
Encoding: 3661 3661 196
Width: 0
VWidth: 2045
Flags: W
HStem: 1419 186<-188.42 -39.4654> 1783 184<-174.396 -22.8852>
VStem: -383 186<1612.95 1760.75> -15 188<1627.44 1776.69>
AnchorPoint: "AboveMark" -26 2120 basemark 0
AnchorPoint: "AboveBase" 40 1375 mark 0
LayerCount: 2
Fore
SplineSet
173 1741 m 0
 173 1578 23 1419 -154 1419 c 0
 -292 1419 -383 1517 -383 1644 c 0
 -383 1816 -227 1967 -57 1967 c 0
 81 1967 173 1869 173 1741 c 0
-121 1605 m 0
 -57 1605 -15 1663 -15 1710 c 0
 -15 1750 -44 1783 -90 1783 c 0
 -146 1783 -197 1734 -197 1680 c 0
 -197 1640 -170 1605 -121 1605 c 0
EndSplineSet
Substitution2: "Thai Mark High Variant" uni0E4D.high
Substitution2: "Thai Sara U Nikhahit Reordering" uni0E38
Substitution2: "Thai Sara UU Nikhahit Reordering" uni0E39
Substitution2: "Thai Phinthu Nikhahit Reordering" uni0E3A
EndChar

StartChar: uni0E4E
Encoding: 3662 3662 197
Width: 0
VWidth: 2045
Flags: W
HStem: 1417 156<-277.631 -223> 1795 157<-250.188 -118.392> 2064 156<65.1472 240.992>
VStem: -451 161<1585.34 1757.96> 255 160<1952 2049.26>
AnchorPoint: "AboveBase" 102 1375 mark 0
LayerCount: 2
Fore
SplineSet
-156 1795 m 0
 -224 1795 -290 1737 -290 1662 c 0
 -290 1608 -249 1573 -196 1573 c 1
 -223 1417 l 17
 -359 1417 -451 1511 -451 1637 c 0
 -451 1805 -297 1952 -129 1952 c 1
 -101 2108 43 2220 187 2220 c 0
 316 2220 415 2132 415 2001 c 0
 415 1985 414 1969 411 1952 c 1
 253 1952 l 1
 254 1959 255 1966 255 1972 c 0
 255 2022 218 2064 160 2064 c 0
 90 2064 26 2000 26 1933 c 0
 26 1911 33 1891 46 1873 c 1
 27 1762 l 1
 -82 1762 l 1
 -101 1784 -126 1795 -156 1795 c 0
EndSplineSet
EndChar

StartChar: uni0E4F
Encoding: 3663 3663 198
Width: 1571
VWidth: 2045
Flags: W
HStem: -23 133<628.532 993.851> 245 177<788.682 939.704> 600 179<805.106 959.581> 914 133<754.803 1118.51>
VStem: 326 136<274.363 624.354> 600 182<428.903 577.246> 965 183<443.214 593.15> 1285 137<400.397 751.57>
LayerCount: 2
Fore
SplineSet
858 422 m 0
 922 422 965 481 965 528 c 0
 965 568 936 600 890 600 c 0
 836 600 782 552 782 497 c 0
 782 457 809 422 858 422 c 0
1422 607 m 0
 1422 276 1116 -23 780 -23 c 0
 513 -23 326 167 326 419 c 0
 326 742 627 1047 969 1047 c 0
 1234 1047 1422 859 1422 607 c 0
803 110 m 0
 1053 110 1285 334 1285 582 c 0
 1285 775 1139 914 945 914 c 0
 702 914 462 696 462 443 c 0
 462 253 605 110 803 110 c 0
1148 559 m 0
 1148 401 1004 245 827 245 c 0
 690 245 600 339 600 464 c 0
 600 632 752 779 921 779 c 0
 1063 779 1148 678 1148 559 c 0
EndSplineSet
EndChar

StartChar: uni0E50
Encoding: 3664 3664 199
Width: 1326
VWidth: 2045
Flags: W
HStem: 0 197<534.43 893.141> 697 197<604.886 948.507>
VStem: 196 223<298.55 537.684> 1065 223<354.48 596.775>
LayerCount: 2
Fore
SplineSet
698 197 m 0
 913 197 1065 338 1065 480 c 0
 1065 611 922 697 786 697 c 0
 602 697 419 563 419 413 c 0
 419 276 573 197 698 197 c 0
1288 510 m 0
 1288 257 1009 0 663 0 c 0
 375 0 196 179 196 384 c 0
 196 636 475 894 821 894 c 0
 1105 894 1288 720 1288 510 c 0
EndSplineSet
EndChar

StartChar: uni0E51
Encoding: 3665 3665 200
Width: 1388
VWidth: 2045
Flags: W
HStem: 0 226<498.147 781.801> 404 184<663.474 817.106> 679 215<620.968 973.822>
VStem: 193 226<214.629 488.287> 456 187<231.837 380.656> 825 187<249.815 398.058> 1093 225<233.869 564.82>
LayerCount: 2
Fore
SplineSet
719 226 m 0
 783 226 825 284 825 331 c 0
 825 371 796 404 750 404 c 0
 694 404 643 355 643 301 c 0
 643 261 670 226 719 226 c 0
193 335 m 0
 193 568 398 894 856 894 c 0
 1113 894 1318 738 1318 468 c 0
 1318 329 1264 23 923 -162 c 1
 815 -5 l 1
 880 37 1093 164 1093 417 c 0
 1093 567 978 679 819 679 c 0
 592 679 419 536 419 321 c 0
 419 275 433 248 469 208 c 1
 461 227 456 249 456 273 c 0
 456 423 603 588 783 588 c 0
 921 588 1012 490 1012 363 c 0
 1012 199 857 0 566 0 c 0
 265 0 193 189 193 335 c 0
EndSplineSet
EndChar

StartChar: uni0E52
Encoding: 3666 3666 201
Width: 1604
VWidth: 2045
Flags: W
HStem: 0 217<330 1283.23> 268 186<648.58 798.071> 632 265<692.979 961.732> 679 215<1268.06 1374.17>
VStem: 268 222<873.266 1162.92> 454 186<461.946 608.858> 822 185<476.3 625.968> 1385 235<343.054 674.945>
DStem2: 74 0 291.737 0 0.173648 0.984808<258.157 1124.67>
LayerCount: 2
Fore
SplineSet
716 454 m 0xe7
 780 454 822 512 822 559 c 0
 822 599 793 632 747 632 c 0
 691 632 640 583 640 529 c 0
 640 489 667 454 716 454 c 0xe7
1620 607 m 0
 1620 391 1523 0 1137 0 c 2
 74 0 l 1
 267 1094 l 2
 268 1099 268 1104 268 1108 c 0
 268 1141 247 1165 214 1165 c 2
 207 1165 l 1
 246 1384 l 1
 445 1384 490 1252 490 1152 c 0
 490 1131 488 1111 485 1094 c 2
 330 217 l 1
 1123 217 l 2
 1260 217 1341 265 1373 449 c 0
 1381 496 1385 535 1385 568 c 0
 1385 642 1364 679 1321 679 c 0xdb
 1290 679 1259 633 1226 542 c 1
 1040 542 l 1
 1034 630 1008 676 960 680 c 1
 992 635 1007 595 1007 560 c 0
 1007 459 883 268 683 268 c 0
 545 268 454 366 454 493 c 0
 454 654 595 897 890 897 c 0xe7
 1030 897 1125 859 1175 784 c 1
 1231 857 1291 894 1356 894 c 0xd7
 1532 894 1620 798 1620 607 c 0
EndSplineSet
EndChar

StartChar: uni0E53
Encoding: 3667 3667 202
Width: 1476
VWidth: 2045
Flags: W
HStem: 0 186<375.701 528.53> 364 184<430.59 543.106> 679 215<505.101 747.081 1018.11 1187.48>
VStem: 167 202<193.657 335.585> 551 187<207.013 358.058> 1196 223<494.108 665.1>
DStem2: 1093 0 1313 0 0.173648 0.984808<38.2026 604.508>
LayerCount: 2
Fore
SplineSet
738 323 m 0
 738 151 581 0 412 0 c 0
 308 0 167 54 167 295 c 0
 167 656 415 894 675 894 c 0
 782 894 861 864 914 804 c 1
 984 864 1063 894 1150 894 c 0
 1313 894 1419 795 1419 636 c 0
 1419 614 1417 590 1413 566 c 2
 1313 0 l 1
 1093 0 l 1
 1194 574 l 2
 1195 582 1196 589 1196 596 c 0
 1196 640 1169 677 1106 677 c 0
 1083 677 1001 655 986 569 c 2
 967 458 l 1
 747 458 l 1
 766 566 l 2
 767 571 767 575 767 580 c 0
 767 624 734 679 636 679 c 0
 601 679 492 678 429 537 c 1
 455 544 482 548 509 548 c 0
 647 548 738 450 738 323 c 0
445 186 m 0
 509 186 551 244 551 291 c 0
 551 331 522 364 476 364 c 0
 420 364 369 315 369 261 c 0
 369 221 396 186 445 186 c 0
EndSplineSet
EndChar

StartChar: uni0E54
Encoding: 3668 3668 203
Width: 1498
VWidth: 2045
Flags: W
HStem: 0 218<467.717 683 863 1294> 218 135<864.947 950.885> 532 134<816.335 968.187> 677 217<540.829 1409.92> 1054 20G<1491 1720>
VStem: 182 223<281.132 546.108> 627 165<359.426 509.125> 974 138<377.833 524.114> 1500 220<980.06 1074>
LayerCount: 2
Fore
SplineSet
867 353 m 0x7f80
 914 353 974 397 974 459 c 0
 974 501 942 532 899 532 c 0
 837 532 792 476 792 427 c 0
 792 386 823 353 867 353 c 0x7f80
182 368 m 0
 182 647 435 894 722 894 c 1
 1289 896 l 2
 1386 896 1482 972 1500 1074 c 1
 1720 1074 l 1
 1679 839 1492 677 1250 677 c 2
 682 677 l 2
 554 677 405 575 405 401 c 0
 405 291 484 218 599 218 c 2
 683 218 l 17
 645 263 627 316 627 377 c 0
 627 550 771 666 922 666 c 0
 1037 666 1112 582 1112 481 c 0
 1112 338 969 218 863 218 c 10xbf80
 1332 218 l 1x7f80
 1294 0 l 1
 561 0 l 2xbf80
 327 0 182 164 182 368 c 0
EndSplineSet
EndChar

StartChar: uni0E55
Encoding: 3669 3669 204
Width: 1489
VWidth: 2045
Flags: W
HStem: 0 218<467.717 683 863 1294> 218 135<864.947 950.885> 532 134<816.335 968.187> 677 249<762.621 918.076> 677 219<1075 1409.92> 1054 20G<1491 1720> 1104 184<779.937 931.193>
VStem: 182 223<281.132 549.408> 570 187<931.917 1080.94> 627 165<359.426 509.125> 939 188<946.97 1098.09> 974 138<377.833 524.114> 1500 220<980.06 1074>
LayerCount: 2
Fore
SplineSet
570 963 m 0xa798
 570 1136 725 1288 897 1288 c 0
 1035 1288 1127 1190 1127 1062 c 0xa7a8
 1127 996 1103 938 1075 896 c 9
 1289 896 l 2
 1386 896 1482 972 1500 1074 c 1
 1720 1074 l 1
 1679 839 1492 677 1250 677 c 2
 682 677 l 2
 554 677 405 575 405 401 c 0
 405 291 484 218 599 218 c 2
 683 218 l 17
 645 263 627 316 627 377 c 0
 627 550 771 666 922 666 c 0
 1037 666 1112 582 1112 481 c 0
 1112 338 969 218 863 218 c 10xaf58
 1332 218 l 1x6758
 1294 0 l 1
 561 0 l 2
 327 0 182 164 182 368 c 0
 182 589 346 809 587 876 c 1
 576 903 570 932 570 963 c 0xa798
833 926 m 0x37a8
 897 926 939 984 939 1031 c 0
 939 1072 911 1104 865 1104 c 0
 808 1104 757 1054 757 1001 c 0
 757 961 784 926 833 926 c 0x37a8
867 353 m 0x6758
 914 353 974 397 974 459 c 0
 974 501 942 532 899 532 c 0
 837 532 792 476 792 427 c 0
 792 386 823 353 867 353 c 0x6758
EndSplineSet
EndChar

StartChar: uni0E56
Encoding: 3670 3670 205
Width: 1448
VWidth: 2045
Flags: W
HStem: 0 206<432.577 736.434> 384 184<447.556 598.193> 679 215<623.755 1051.4>
VStem: 237 187<213.401 361.32> 397 223<944.984 1266.26> 606 188<228.834 378.088> 1139 220<411.345 602.886>
DStem2: 189.37 0 409.059 0 0.173648 0.984808<872.829 1206.67>
LayerCount: 2
Fore
SplineSet
237 241 m 0xf2
 237 420 395 568 564 568 c 0
 702 568 794 470 794 342 c 0xf6
 794 296 782 254 771 228 c 1
 967 260 1139 399 1139 513 c 0
 1139 567 1089 679 830 679 c 0
 487 679 287 537 283 531 c 1
 395 1168 l 2
 396 1175 397 1182 397 1189 c 0
 397 1241 361 1279 302 1279 c 1
 340 1498 l 1
 499 1498 620 1390 620 1228 c 0xea
 620 1209 619 1189 615 1168 c 2
 554 822 l 1
 653 870 770 894 902 894 c 0
 1158 894 1359 747 1359 536 c 0
 1359 311 1080 0 616 0 c 0
 306 0 237 130 237 241 c 0xf2
500 206 m 0
 564 206 606 264 606 311 c 0
 606 352 578 384 532 384 c 0
 475 384 424 334 424 281 c 0
 424 241 451 206 500 206 c 0
EndSplineSet
EndChar

StartChar: uni0E57
Encoding: 3671 3671 206
Width: 1768
VWidth: 2045
Flags: W
HStem: 0 218<1311 1403.44> 0 186<375.554 528.53> 364 184<430.59 543.106> 679 215<505.04 747.081 1010.65 1150.55> 1264 20G<1675 1728.36>
VStem: 166 203<191.788 342.084> 551 187<207.013 358.058> 1157 225<495.733 667.573>
DStem2: 1053 0 1272.56 0 0.173648 0.984808<259.489 614.436> 1387.16 0 1607.28 0 0.173648 0.984808<243.269 1189.95>
LayerCount: 2
Fore
SplineSet
166 291 m 0x7f
 166 656 415 894 675 894 c 0
 782 894 861 864 914 804 c 1
 984 864 1057 894 1130 894 c 0
 1258 894 1382 844 1382 659 c 0
 1382 631 1379 600 1373 566 c 2
 1311 218 l 17xbf
 1373 218 1434 266 1445 328 c 2
 1572 1051 l 2
 1591 1156 1638 1234 1712 1284 c 1
 1838 1130 l 1
 1814 1109 1798 1082 1792 1051 c 2
 1666 333 l 2
 1638 173 1485 0 1274 0 c 10
 1053 0 l 17
 1154 574 l 2
 1156 586 1157 597 1157 606 c 0
 1157 657 1129 677 1089 677 c 0
 1055 677 1003 662 986 569 c 1
 967 458 l 1
 747 458 l 1
 766 566 l 2
 767 571 767 575 767 580 c 0
 767 624 734 679 636 679 c 0
 601 679 492 678 429 537 c 1
 455 544 482 548 509 548 c 0
 647 548 738 450 738 323 c 0
 738 151 581 0 412 0 c 0
 307 0 166 50 166 291 c 0x7f
445 186 m 0x7f
 509 186 551 244 551 291 c 0
 551 331 522 364 476 364 c 0
 420 364 369 315 369 261 c 0
 369 221 396 186 445 186 c 0x7f
EndSplineSet
EndChar

StartChar: uni0E58
Encoding: 3672 3672 207
Width: 1548
VWidth: 2045
Flags: W
HStem: 0 186<979.945 1131.74> 228 286<500.619 672.264> 364 184<993.522 1145.82> 677 218<466.234 1415.04> 1054 20G<1491.5 1720>
VStem: 113 235<334.32 562.715> 1154 187<207.013 357.933> 1500 220<980.876 1074>
LayerCount: 2
Fore
SplineSet
1341 323 m 0xbf
 1341 151 1185 0 1015 0 c 0
 896 0 805 38 740 114 c 0
 676 190 623 228 582 228 c 0
 501 228 475 168 461 0 c 1
 213 0 113 177 113 373 c 0
 113 657 321 895 652 895 c 2
 1289 895 l 2
 1390 895 1483 974 1500 1074 c 1
 1720 1074 l 1
 1685 873 1482 677 1250 677 c 2
 613 677 l 2
 516 677 348 607 348 421 c 0
 348 384 355 355 369 331 c 1
 418 454 492 514 590 514 c 0xdf
 689 514 709 459 773 377 c 2
 806 334 l 17
 846 435 962 548 1112 548 c 0
 1250 548 1341 450 1341 323 c 0xbf
1048 186 m 0
 1112 186 1154 244 1154 291 c 0
 1154 334 1121 364 1079 364 c 0xbf
 1023 364 972 315 972 261 c 0
 972 221 999 186 1048 186 c 0
EndSplineSet
EndChar

StartChar: uni0E59
Encoding: 3673 3673 208
Width: 1611
VWidth: 2045
Flags: W
HStem: -10 196<397.311 659.563> 364 184<520.552 673.935> 676 218<543.086 894.24 1177.89 1346.88>
VStem: 184 316<192.086 447.274> 682 187<208.851 358.289> 986 210<234.141 588.118>
DStem2: 908.237 -10 1108.24 -10 0.173648 0.984808<44.8839 468.776> 1287.83 -10 1507.98 -10 0.173648 0.984808<876.313 1318.25>
LayerCount: 2
Fore
SplineSet
184 329 m 0
 184 648 421 894 763 894 c 0
 881 894 948 886 1043 802 c 1
 1114 863 1193 894 1280 894 c 0
 1359 894 1412 880 1440 853 c 1
 1496 1168 l 2
 1510 1250 1548 1318 1611 1373 c 1
 1763 1246 l 1
 1737 1225 1721 1199 1716 1168 c 2
 1627 665 l 1
 1390 566 l 1
 1386 588 1335 676 1244 676 c 8
 1217 676 1195 666 1177 645 c 1
 1189 621 1196 587 1196 542 c 0
 1196 503 1191 457 1181 402 c 2
 1110 0 l 1
 910 0 l 1
 982 408 l 2
 985 422 986 438 986 453 c 0
 986 556 925 676 716 676 c 0
 565 676 441 592 415 449 c 1
 483 515 556 548 632 548 c 0
 776 548 869 452 869 323 c 0
 869 145 690 -10 511 -10 c 16
 289 -10 184 130 184 329 c 0
576 186 m 0
 640 186 682 244 682 291 c 0
 682 331 653 364 607 364 c 0
 551 364 500 315 500 261 c 0
 500 221 527 186 576 186 c 0
EndSplineSet
EndChar

StartChar: uni0E5A
Encoding: 3674 3674 209
Width: 1695
VWidth: 2045
Flags: W
HStem: 0 21G<919 1142.52 1255 1478.52> 637 255<446.37 718.552> 1070 184<461.037 611.193>
VStem: 251 186<899.54 1048.44> 619 188<913.472 1064.09>
DStem2: 919 0 1139 0 0.173648 0.984808<38.2026 825.48 1077.87 1273.33> 1255 0 1475 0 0.173648 0.984808<38.2026 1273.33>
LayerCount: 2
Fore
SplineSet
513 892 m 0
 577 892 619 950 619 997 c 0
 619 1038 591 1070 545 1070 c 0
 488 1070 437 1020 437 967 c 0
 437 927 464 892 513 892 c 0
251 932 m 0
 251 1106 410 1254 577 1254 c 0
 715 1254 807 1156 807 1028 c 0
 807 963 784 912 760 876 c 1
 812 884 1087 952 1140 1254 c 1
 1360 1254 l 1
 1139 0 l 1
 919 0 l 1
 1062 813 l 1
 910 685 766 637 562 637 c 0
 338 637 251 802 251 932 c 0
1476 1254 m 1
 1696 1254 l 1
 1475 0 l 1
 1255 0 l 1
 1476 1254 l 1
EndSplineSet
EndChar

StartChar: uni0E5B
Encoding: 3675 3675 210
Width: 2515
VWidth: 2045
Flags: W
HStem: 0 218<501.925 831.11> 292 186<656.58 806.91> 397 212<2281.7 2465> 656 182<672.171 768.455> 849 209<582.006 767.543>
VStem: 168 221<333.443 640.198> 462 186<485.946 634.491> 830 250<516.876 836.5>
LayerCount: 2
Fore
SplineSet
462 517 m 0xdf
 462 694 626 838 765 838 c 2
 770 838 l 1
 740 845 714 849 691 849 c 0
 582 849 389 668 389 484 c 0
 389 347 483 218 640 218 c 0
 785 218 976 309 1070 444 c 2
 1289 757 l 1
 1395 757 l 1
 1484 548 l 1
 1645 757 l 1
 1752 757 l 1
 1841 548 l 1
 2001 757 l 1
 2107 757 l 1
 2192 528 l 1
 2228 582 2291 609 2382 609 c 2
 2502 609 l 1
 2465 397 l 1
 2352 397 l 2xbf
 2310 397 2257 338 2192 219 c 1
 2085 219 l 1
 1996 428 l 1
 1835 219 l 1
 1728 219 l 1
 1639 428 l 1
 1480 219 l 1
 1373 219 l 1
 1284 428 l 1
 1188 306 l 1
 971 35 745 0 617 0 c 0
 302 0 168 222 168 439 c 0
 168 782 486 1058 749 1058 c 0
 937 1058 1080 950 1080 723 c 0
 1080 378 798 292 691 292 c 0
 553 292 462 390 462 517 c 0xdf
724 478 m 0xdf
 788 478 830 536 830 583 c 0
 830 624 802 656 756 656 c 0
 699 656 648 606 648 553 c 0
 648 513 675 478 724 478 c 0xdf
EndSplineSet
EndChar

StartChar: zerowidthjoiner
Encoding: 8205 8205 212
Width: 0
Flags: W
LayerCount: 2
Back
SplineSet
-12.4902 -275 m 1
 -84.4902 -275 l 1
 160.429 1114 l 1
 2.44824 978 l 1
 -37.9121 1027 l 1
 162.887 1196 l 1
 21.5098 1364 l 1
 79.1504 1413 l 1
 218.998 1242 l 1
 419.15 1413 l 1
 459.51 1364 l 1
 258.887 1196 l 1
 400.088 1027 l 1
 342.448 978 l 1
 232.429 1114 l 1
 -12.4902 -275 l 1
EndSplineSet
EndChar

StartChar: afii299
Encoding: 8206 8206 213
Width: 0
Flags: W
LayerCount: 2
Back
SplineSet
641.24 1198 m 1
 386.506 984 l 1
 346.146 1033 l 1
 506.068 1163 l 1
 240.068 1163 l 1
 -13.4902 -275 l 1
 -84.4902 -275 l 1
 181.588 1234 l 1
 518.588 1234 l 1
 404.51 1364 l 1
 462.15 1413 l 1
 641.24 1198 l 1
EndSplineSet
EndChar

StartChar: afii300
Encoding: 8207 8207 214
Width: 0
Flags: W
LayerCount: 2
Back
SplineSet
-13.4902 -275 m 1
 -84.4902 -275 l 1
 169.068 1163 l 1
 -96.9316 1163 l 1
 17.1455 1033 l 1
 -40.4941 984 l 1
 -219.761 1198 l 1
 35.1504 1413 l 1
 75.5098 1364 l 1
 -84.4121 1234 l 1
 252.588 1234 l 1
 -13.4902 -275 l 1
EndSplineSet
EndChar

StartChar: uni2010
Encoding: 8208 8208 215
Width: 973
Flags: W
HStem: 548 220<325 912>
VStem: 287 663
LayerCount: 2
Fore
SplineSet
325 768 m 1
 950 768 l 1
 912 548 l 1
 287 548 l 1
 325 768 l 1
EndSplineSet
EndChar

StartChar: endash
Encoding: 8211 8211 216
Width: 1125
Flags: W
HStem: 530 220<132 1219>
LayerCount: 2
Fore
SplineSet
1219 530 m 1
 93 530 l 1
 132 750 l 1
 1258 750 l 1
 1219 530 l 1
EndSplineSet
EndChar

StartChar: emdash
Encoding: 8212 8212 217
Width: 1886
Flags: W
HStem: 530 220<132 1963>
LayerCount: 2
Fore
SplineSet
1963 530 m 1
 93 530 l 1
 132 750 l 1
 2002 750 l 1
 1963 530 l 1
EndSplineSet
EndChar

StartChar: horizontalbar
Encoding: 8213 8213 218
Width: 1862
Flags: W
HStem: 577 220<251 1854>
LayerCount: 2
Fore
SplineSet
1854 577 m 1
 212 577 l 1
 251 797 l 1
 1893 797 l 1
 1854 577 l 1
EndSplineSet
EndChar

StartChar: underscoredbl
Encoding: 8215 8215 219
Width: 1118
Flags: W
HStem: -423 130<-68 1059> -212 130<-30 1097>
LayerCount: 2
Fore
SplineSet
1097 -212 m 1
 -53 -212 l 1
 -30 -82 l 1
 1120 -82 l 1
 1097 -212 l 1
1059 -423 m 1
 -91 -423 l 1
 -68 -293 l 1
 1082 -293 l 1
 1059 -423 l 1
EndSplineSet
EndChar

StartChar: quoteleft
Encoding: 8216 8216 220
Width: 450
Flags: W
HStem: 997 559<373 496>
VStem: 210 345
LayerCount: 2
Fore
SplineSet
555 997 m 1
 373 997 l 1
 210 1556 l 1
 496 1556 l 1
 555 997 l 1
EndSplineSet
EndChar

StartChar: quoteright
Encoding: 8217 8217 221
Width: 580
Flags: W
HStem: 997 559
VStem: 228 542
LayerCount: 2
Fore
SplineSet
770 1556 m 1
 411 997 l 1
 228 997 l 1
 483 1556 l 1
 770 1556 l 1
EndSplineSet
EndChar

StartChar: quotesinglbase
Encoding: 8218 8218 222
Width: 432
Flags: W
HStem: -276 559
VStem: -62 498
LayerCount: 2
Fore
SplineSet
436 283 m 1
 76 -276 l 1
 -62 -276 l 1
 194 283 l 1
 436 283 l 1
EndSplineSet
EndChar

StartChar: quotereversed
Encoding: 8219 8219 223
Width: 432
Flags: W
HStem: 997 559
VStem: 112 497
LayerCount: 2
Fore
SplineSet
609 1556 m 1
 354 997 l 1
 112 997 l 1
 471 1556 l 1
 609 1556 l 1
EndSplineSet
EndChar

StartChar: quotedblleft
Encoding: 8220 8220 224
Width: 850
Flags: W
HStem: 997 559<373 493 722 842>
LayerCount: 2
Fore
SplineSet
901 997 m 1
 722 997 l 1
 559 1556 l 1
 842 1556 l 1
 901 997 l 1
552 997 m 1
 373 997 l 1
 210 1556 l 1
 493 1556 l 1
 552 997 l 1
EndSplineSet
EndChar

StartChar: quotedblright
Encoding: 8221 8221 225
Width: 1000
Flags: W
HStem: 997 559
LayerCount: 2
Fore
SplineSet
1170 1556 m 1
 811 997 l 1
 632 997 l 1
 887 1556 l 1
 1170 1556 l 1
821 1556 m 1
 462 997 l 1
 283 997 l 1
 538 1556 l 1
 821 1556 l 1
EndSplineSet
EndChar

StartChar: quotedblbase
Encoding: 8222 8222 226
Width: 814
Flags: W
HStem: -276 559
LayerCount: 2
Fore
SplineSet
831 283 m 1
 471 -276 l 1
 337 -276 l 1
 593 283 l 1
 831 283 l 1
437 283 m 1
 77 -276 l 1
 -57 -276 l 1
 199 283 l 1
 437 283 l 1
EndSplineSet
EndChar

StartChar: dagger
Encoding: 8224 8224 227
Width: 1118
Flags: W
HStem: 998 200<330 631 874 1175>
DStem2: 470 119 690 119 0.173648 0.984808<38.2026 898.527 1127.84 1475.38>
LayerCount: 2
Fore
SplineSet
1175 998 m 1
 841 1003 l 1
 690 119 l 1
 470 119 l 1
 631 1003 l 1
 295 998 l 1
 330 1198 l 1
 664 1193 l 1
 726 1572 l 1
 946 1572 l 1
 874 1193 l 1
 1210 1198 l 1
 1175 998 l 1
EndSplineSet
EndChar

StartChar: daggerdbl
Encoding: 8225 8225 228
Width: 1118
Flags: W
HStem: 471 200<237 533 786 1082> 1008 200<333 627 882 1176>
DStem2: 463 108 693 108 0.173648 0.984808<39.9391 374.565 605.611 914.805 1156.05 1486.56>
LayerCount: 2
Fore
SplineSet
1082 471 m 1
 753 476 l 1
 693 108 l 1
 463 108 l 1
 533 476 l 1
 202 471 l 1
 237 671 l 1
 566 666 l 1
 627 1008 l 1
 296 1003 l 1
 333 1213 l 1
 662 1208 l 1
 721 1572 l 1
 951 1572 l 1
 882 1208 l 1
 1213 1213 l 1
 1176 1003 l 1
 847 1008 l 1
 786 666 l 1
 1117 671 l 1
 1082 471 l 1
EndSplineSet
EndChar

StartChar: bullet
Encoding: 8226 8226 229
Width: 950
Flags: W
HStem: 311 702<468.19 697.31>
VStem: 225 715<550.655 775.089>
LayerCount: 2
Fore
SplineSet
225 600 m 0
 225 819 426 1013 644 1013 c 0
 820 1013 940 889 940 724 c 0
 940 509 741 311 520 311 c 0
 342 311 225 438 225 600 c 0
EndSplineSet
EndChar

StartChar: ellipsis
Encoding: 8230 8230 230
Width: 1650
Flags: W
HStem: 0 223<216 381 774 939 1332 1497>
LayerCount: 2
Fore
SplineSet
1497 0 m 1
 1293 0 l 1
 1332 223 l 1
 1536 223 l 1
 1497 0 l 1
939 0 m 1
 735 0 l 1
 774 223 l 1
 978 223 l 1
 939 0 l 1
381 0 m 1
 177 0 l 1
 216 223 l 1
 420 223 l 1
 381 0 l 1
EndSplineSet
EndChar

StartChar: perthousand
Encoding: 8240 8240 231
Width: 2848
Flags: W
HStem: -29 200<1480.52 1674.4 2324.52 2518.4> 0 21G<510 725.009> 602 200<501.525 695.404> 686 200<1566.6 1760.48 2410.6 2604.48> 1317 200<587.596 781.475>
VStem: 259 222<819.812 1183.32> 802 222<935.677 1299.19> 1238 222<188.812 552.323> 1781 222<304.677 668.188> 2082 222<188.812 552.323> 2625 222<304.677 668.188>
DStem2: 510 0 711 0 0.573721 0.819051<115.318 1817.96>
LayerCount: 2
Back
SplineSet
722 1517 m 0x2fe0
 898 1517 1011 1433 1011 1219 c 0
 1011 1043 941 634 567 634 c 0
 390 634 278 720 278 932 c 0
 278 1132 361 1517 722 1517 c 0x2fe0
1736 1489 m 1
 693 0 l 1
 528 0 l 1x4fe0
 1571 1489 l 1
 1736 1489 l 1
1696 854 m 0x9fe0
 1872 854 1984 770 1984 557 c 0
 1984 350 1898 -29 1540 -29 c 0
 1364 -29 1251 55 1251 268 c 0
 1251 450 1323 854 1696 854 c 0x9fe0
590 767 m 0x2fe0
 812 767 834 1152 834 1221 c 0
 834 1354 779 1384 699 1384 c 0
 476 1384 454 992 454 927 c 0
 454 795 509 767 590 767 c 0x2fe0
1563 104 m 0x9fe0
 1785 104 1807 489 1807 558 c 0
 1807 691 1752 721 1672 721 c 0
 1449 721 1427 329 1427 264 c 0
 1427 132 1482 104 1563 104 c 0x9fe0
2540 854 m 0
 2716 854 2828 770 2828 557 c 0
 2828 350 2742 -29 2384 -29 c 0
 2208 -29 2095 55 2095 268 c 0
 2095 450 2167 854 2540 854 c 0
2407 104 m 0
 2629 104 2651 489 2651 558 c 0
 2651 691 2596 721 2516 721 c 0
 2293 721 2271 329 2271 264 c 0
 2271 132 2326 104 2407 104 c 0
EndSplineSet
Fore
SplineSet
2545 886 m 3x9fe0
 2730 886 2847 795 2847 574 c 3
 2847 188 2651 -29 2384 -29 c 3
 2199 -29 2082 62 2082 283 c 3
 2082 669 2278 886 2545 886 c 3x9fe0
2419 171 m 3
 2587 171 2625 426 2625 547 c 3
 2625 662 2575 686 2510 686 c 3
 2342 686 2304 431 2304 310 c 3
 2304 195 2354 171 2419 171 c 3
1701 886 m 3
 1886 886 2003 795 2003 574 c 3
 2003 188 1807 -29 1540 -29 c 3
 1355 -29 1238 62 1238 283 c 3
 1238 669 1434 886 1701 886 c 3
1575 171 m 3
 1743 171 1781 426 1781 547 c 3
 1781 662 1731 686 1666 686 c 3
 1498 686 1460 431 1460 310 c 3
 1460 195 1510 171 1575 171 c 3
722 1517 m 3
 907 1517 1024 1426 1024 1205 c 3
 1024 819 828 602 561 602 c 3x2fe0
 376 602 259 693 259 914 c 3
 259 1300 455 1517 722 1517 c 3
1754 1489 m 1
 711 0 l 1
 510 0 l 1x4fe0
 1553 1489 l 1
 1754 1489 l 1
596 802 m 3x2fe0
 764 802 802 1057 802 1178 c 3
 802 1293 752 1317 687 1317 c 3
 519 1317 481 1062 481 941 c 3
 481 826 531 802 596 802 c 3x2fe0
EndSplineSet
EndChar

StartChar: minute
Encoding: 8242 8242 232
Width: 602
Flags: W
HStem: 870 619
VStem: 290 544
LayerCount: 2
Fore
SplineSet
834 1489 m 1
 426 870 l 1
 290 870 l 1
 594 1489 l 1
 834 1489 l 1
EndSplineSet
EndChar

StartChar: second
Encoding: 8243 8243 233
Width: 972
Flags: W
HStem: 870 619
LayerCount: 2
Fore
SplineSet
830 1489 m 1
 422 870 l 1
 290 870 l 1
 594 1489 l 1
 830 1489 l 1
1224 1489 m 1
 816 870 l 1
 684 870 l 1
 988 1489 l 1
 1224 1489 l 1
EndSplineSet
EndChar

StartChar: guilsinglleft
Encoding: 8249 8249 234
Width: 784
Flags: W
VStem: 230 603
DStem2: 417 652 230 608 0.704661 -0.709544<0 397.392> 246 697 417 652 0.803436 0.595391<110.595 584.009>
LayerCount: 2
Fore
SplineSet
663 172 m 1
 230 608 l 1
 246 697 l 1
 833 1132 l 1
 798 933 l 1
 417 652 l 1
 698 371 l 1
 663 172 l 1
EndSplineSet
EndChar

StartChar: guilsinglright
Encoding: 8250 8250 235
Width: 784
Flags: W
VStem: 181 603
DStem2: 216 371 181 172 0.802781 0.596274<0 473.413> 351 1132 316 933 0.705476 -0.708734<116.346 513.739>
LayerCount: 2
Fore
SplineSet
768 608 m 1
 181 172 l 1
 216 371 l 1
 597 652 l 1
 316 933 l 1
 351 1132 l 1
 784 697 l 1
 768 608 l 1
EndSplineSet
EndChar

StartChar: uni203E
Encoding: 8254 8254 237
Width: 1118
Flags: W
HStem: 1658 131<267 1410>
LayerCount: 2
Fore
SplineSet
1410 1658 m 1
 244 1658 l 1
 267 1789 l 1
 1433 1789 l 1
 1410 1658 l 1
EndSplineSet
EndChar

StartChar: fraction
Encoding: 8260 8260 238
Width: 886
Flags: W
HStem: 0 21G<-29 150.009>
DStem2: -29 0 136 0 0.573721 0.819051<94.6639 1817.96>
LayerCount: 2
Fore
SplineSet
1179 1489 m 1
 136 0 l 1
 -29 0 l 1
 1014 1489 l 1
 1179 1489 l 1
EndSplineSet
EndChar

StartChar: uni207F
Encoding: 8319 8319 239
Width: 1010
Flags: W
HStem: 1319 200<680.176 880.077>
VStem: 893 225<954.883 1305.07>
DStem2: 209 566 429 566 0.173648 0.984808<38.2026 743.057 891.141 936.124> 786 566 1006 566 0.173648 0.984808<38.2026 655.02>
LayerCount: 2
Fore
SplineSet
854 1519 m 3
 954 1519 1118 1483 1118 1254 c 3
 1118 1222 1115 1187 1108 1147 c 2
 1006 566 l 1
 786 566 l 1
 875 1072 l 2
 885 1130 893 1177 893 1214 c 3
 893 1286 865 1319 774 1319 c 3
 729 1319 664 1310 543 1213 c 1
 429 566 l 1
 209 566 l 1
 371 1488 l 1
 591 1488 l 1
 577 1406 l 1
 714 1514 797 1519 854 1519 c 3
EndSplineSet
EndChar

StartChar: dottedcircle
Encoding: 9676 9676 240
Width: 1247
Flags: W
HStem: 7 121<568.548 679.415> 68 121<872.89 983.938> 98 121<318.89 430.39> 234 121<1067.89 1179.07> 249 121<202.142 313.783> 445 121<116.451 226.938 1182.67 1292.99> 679 121<172.142 283.783 1207.14 1318.21> 868 121<311.89 422.938> 891 121<1138.36 1249.18> 1011 121<526.107 637.266> 1034 121<975.107 1086.07> 1079 121<764.107 875.266>
VStem: 110 123<451.036 559.502> 166 123<684.524 794.244> 196 123<254.524 364.244> 313 123<104.036 213.392 877.778 986.132> 520 123<1017.38 1125.5> 562 123<13.1495 122.244> 758 123<1085.38 1193.5> 867 123<74.3236 183.392> 969 123<1040.48 1149.27> 1062 123<240.479 349.275> 1132 123<897.036 1006.27> 1173 123<444.149 553.392> 1201 123<684.641 793.521>
LayerCount: 2
Fore
SplineSet
429 940 m 0x07
 429 900 394 868 356 868 c 0
 325 868 306 888 306 916 c 0
 306 952 334 989 377 989 c 0
 410 989 429 968 429 940 c 0x07
643 1083 m 0x064080
 643 1039 605 1011 570 1011 c 0
 540 1011 520 1031 520 1059 c 0
 520 1099 555 1132 592 1132 c 0
 622 1132 643 1113 643 1083 c 0x064080
881 1151 m 0x061020
 881 1107 843 1079 808 1079 c 0
 778 1079 758 1099 758 1127 c 0
 758 1167 793 1200 830 1200 c 0
 860 1200 881 1181 881 1151 c 0x061020
233 518 m 0x0608
 233 475 198 445 160 445 c 0
 129 445 110 465 110 493 c 0
 110 533 145 566 182 566 c 0
 212 566 233 547 233 518 c 0x0608
319 320 m 0x0e02
 319 280 285 249 247 249 c 0
 216 249 196 269 196 298 c 0
 196 332 225 370 268 370 c 0
 299 370 319 349 319 320 c 0x0e02
436 170 m 0x2601
 436 126 399 98 363 98 c 0
 332 98 313 118 313 146 c 0
 313 182 342 219 385 219 c 0
 413 219 436 202 436 170 c 0x2601
685 78 m 0x860040
 685 38 650 7 612 7 c 0
 581 7 562 27 562 55 c 0
 562 90 591 128 634 128 c 0
 665 128 685 107 685 78 c 0x860040
990 140 m 0x460010
 990 100 955 68 917 68 c 0
 886 68 867 88 867 116 c 0
 867 152 895 189 938 189 c 0
 971 189 990 168 990 140 c 0x460010
1185 306 m 0x160004
 1185 267 1151 234 1112 234 c 0
 1081 234 1062 254 1062 282 c 0
 1062 318 1091 355 1134 355 c 0
 1166 355 1185 334 1185 306 c 0x160004
1296 509 m 0x060001
 1296 469 1260 438 1223 438 c 0
 1192 438 1173 458 1173 486 c 0
 1173 522 1202 559 1245 559 c 0
 1279 559 1296 536 1296 509 c 0x060001
1324 752 m 0x06000080
 1324 711 1292 679 1252 679 c 0
 1221 679 1201 699 1201 728 c 0
 1201 767 1236 800 1273 800 c 0
 1303 800 1324 781 1324 752 c 0x06000080
1255 962 m 0x068002
 1255 926 1222 891 1182 891 c 0
 1151 891 1132 911 1132 939 c 0
 1132 974 1160 1012 1203 1012 c 0
 1234 1012 1255 991 1255 962 c 0x068002
1092 1106 m 0x062008
 1092 1067 1058 1034 1019 1034 c 0
 989 1034 969 1054 969 1082 c 0
 969 1118 998 1155 1041 1155 c 0
 1073 1155 1092 1134 1092 1106 c 0x062008
289 750 m 0x0604
 289 710 255 679 217 679 c 0
 186 679 166 699 166 728 c 0
 166 762 195 800 238 800 c 0
 269 800 289 779 289 750 c 0x0604
EndSplineSet
EndChar

StartChar: uni0E10.descless
Encoding: 63232 63232 241
Width: 1245
VWidth: 2045
Flags: W
HStem: 0 21G<695.5 924.429> 132 186<465.745 620.691> 496 184<482.604 633.598> 732 186<546 899.283> 1064 220<675.525 1000.77>
VStem: 274 186<326.238 473.971> 907 222<521.297 724.14>
LayerCount: 2
Fore
SplineSet
274 358 m 0
 274 529 430 680 600 680 c 0
 769 680 831 540 840 458 c 10
 847 400 l 1
 899 601 l 17
 907 636 907 636 907 645 c 0
 907 668 900 732 833 732 c 2
 235 732 l 1
 292 1053 592 1284 884 1284 c 0
 1151 1284 1313 1104 1343 902 c 9
 1124 818 l 17
 1116 913 1039 1064 846 1064 c 0
 682 1064 575 954 546 918 c 1
 899 918 l 2
 1037 918 1129 820 1129 692 c 0
 1129 676 1128 660 1125 644 c 1
 918 0 l 1
 698 0 l 1
 674 192 l 17
 626 145 554 132 495 132 c 0
 368 132 274 229 274 358 c 0
536 318 m 0
 600 318 642 376 642 423 c 0
 642 463 613 496 567 496 c 0
 511 496 460 447 460 393 c 0
 460 353 487 318 536 318 c 0
EndSplineSet
EndChar

StartChar: uni0E48.low
Encoding: 63242 63242 251
Width: 0
VWidth: 2045
Flags: W
HStem: 1451 464<-31 67>
VStem: -113 262
DStem2: -113 1451 67 1451 0.173648 0.984808<31.2567 471.19>
AnchorPoint: "AboveBase" 53 1375 mark 0
LayerCount: 2
Back
SplineSet
-175 1451 m 17
 -117 1779 l 1
 63 1779 l 1
 5 1451 l 1
 -175 1451 l 17
EndSplineSet
Fore
SplineSet
-113 1451 m 17
 -31 1915 l 1
 149 1915 l 1
 67 1451 l 1
 -113 1451 l 17
EndSplineSet
EndChar

StartChar: uni0E49.low
Encoding: 63243 63243 252
Width: 0
VWidth: 2045
Flags: W
HStem: 1846 112<-270.942 -146.564>
VStem: -396 115<1714.31 1835.72> -145 115<1722.07 1843.6> 194 157<1818.5 1945>
AnchorPoint: "AboveBase" 162 1375 mark 0
LayerCount: 2
Fore
SplineSet
-396 1746 m 0
 -396 1867 -288 1958 -182 1958 c 0
 -96 1958 -30 1899 -30 1811 c 0
 -30 1789 -35 1704 -118 1636 c 1
 -197 1563 l 1
 -138 1574 140 1639 194 1945 c 1
 351 1945 l 1
 301 1629 -1 1408 -281 1408 c 2
 -430 1408 l 1
 -403 1562 l 1
 -291 1618 l 1
 -381 1637 -396 1702 -396 1746 c 0
-225 1713 m 0
 -177 1713 -145 1757 -145 1790 c 0
 -145 1822 -169 1846 -202 1846 c 0
 -241 1846 -281 1811 -281 1766 c 0
 -281 1736 -260 1713 -225 1713 c 0
EndSplineSet
EndChar

StartChar: uni0E4A.low
Encoding: 63244 63244 253
Width: 0
VWidth: 2045
Flags: W
HStem: 1413 112<-521.333 -396.134> 1657 112<-477.784 -387.98> 1823 127<-461.6 -278.378 -145.248 35.082>
VStem: -660 138<1526.29 1643.98> -386 115<1534.91 1655.52> 53 129<1618.96 1807.07> 349 128<1784.42 1902>
AnchorPoint: "AboveBase" 78 1375 mark 0
LayerCount: 2
Fore
SplineSet
-660 1598 m 0
 -660 1824 -466 1950 -334 1950 c 0
 -265 1950 -216 1929 -187 1887 c 1
 -144 1930 -87 1950 -16 1950 c 0
 82 1950 182 1865 182 1731 c 0
 182 1685 171 1649 158 1617 c 1
 244 1675 327 1774 349 1902 c 1
 477 1902 l 17
 426 1609 137 1413 -80 1413 c 1
 -57 1540 l 1
 -18 1562 53 1625 53 1714 c 0
 53 1792 -5 1823 -34 1823 c 0
 -62 1823 -122 1818 -161 1759 c 1
 -262 1759 l 1
 -295 1802 -327 1823 -357 1823 c 0
 -421 1821 -472 1771 -479 1762 c 1
 -461 1767 -443 1769 -423 1769 c 0
 -327 1769 -271 1703 -271 1622 c 0
 -271 1517 -366 1413 -486 1413 c 0
 -569 1413 -660 1465 -660 1598 c 0
-466 1525 m 0
 -420 1525 -386 1567 -386 1602 c 0
 -386 1633 -409 1657 -443 1657 c 0
 -487 1657 -522 1619 -522 1578 c 0
 -522 1549 -501 1525 -466 1525 c 0
EndSplineSet
EndChar

StartChar: uni0E4B.low
Encoding: 63245 63245 254
Width: 0
VWidth: 2045
Flags: W
HStem: 1574 178<-289 -170 42 161>
VStem: -320 512
DStem2: -197 1423 -16 1423 0.173648 0.984808<31.4303 153.394 365.504 487.468>
AnchorPoint: "AboveBase" 125 1375 mark 0
LayerCount: 2
Fore
SplineSet
161 1574 m 1
 11 1574 l 1
 -16 1423 l 1
 -197 1423 l 1
 -170 1574 l 1
 -320 1574 l 1
 -289 1752 l 1
 -139 1752 l 1
 -112 1903 l 1
 69 1903 l 1
 42 1752 l 1
 192 1752 l 1
 161 1574 l 1
EndSplineSet
EndChar

StartChar: uni0E4C.low
Encoding: 63246 63246 255
Width: 0
VWidth: 2045
Flags: W
HStem: 1442 134<-402.4 -248.1> 1734 154<-90 328.292> 1755 133<-382.989 -231.969>
VStem: -545 136<1583.92 1732.42> -226 138<1599.99 1733.79>
AnchorPoint: "AboveBase" -125 1375 mark 0
LayerCount: 2
Fore
SplineSet
-333 1576 m 0xb8
 -277 1576 -226 1626 -226 1680 c 0
 -226 1724 -260 1755 -302 1755 c 0
 -356 1755 -409 1707 -409 1648 c 0
 -409 1604 -375 1576 -333 1576 c 0xb8
-545 1625 m 0
 -545 1769 -415 1888 -277 1888 c 2xb8
 198 1888 l 2
 259 1888 308 1907 343 1945 c 1
 434 1836 l 1
 355 1768 265 1734 166 1734 c 2
 -90 1734 l 1xd8
 -89 1725 -88 1715 -88 1706 c 0
 -88 1558 -226 1442 -357 1442 c 0
 -466 1442 -545 1517 -545 1625 c 0
EndSplineSet
EndChar

StartChar: uni0E0D.descless
Encoding: 63247 63247 256
Width: 1940
VWidth: 2045
Flags: W
HStem: -10 186<451.471 600.535> 0 220<1297 1591> 354 179<529.324 617.115> 701 220<559 670> 1062 222<679.916 1029.49> 1234 20G<1769.48 1993>
VStem: 256 187<183.554 332.485> 625 188<198.438 347.686> 1167 224<629.337 917.368>
DStem2: 1036.24 -10 1256.44 -10 0.173648 0.984808<271.787 786.931> 1550.44 -10 1770.24 -10 0.173648 0.984808<233.548 1283.44>
LayerCount: 2
Fore
SplineSet
813 312 m 0x7b80
 813 149 663 -10 486 -10 c 0
 347 -10 256 88 256 214 c 0
 256 230 258 247 261 264 c 2
 339 701 l 1
 219 701 l 1
 275 1022 576 1284 903 1284 c 0xbb80
 1188 1284 1391 1083 1391 805 c 0
 1391 772 1388 738 1382 703 c 2
 1297 220 l 17
 1591 220 l 9
 1773 1254 l 1
 1993 1254 l 1x7780
 1772 0 l 25
 1038 0 l 25
 1161 700 l 2
 1165 723 1167 746 1167 767 c 0
 1167 942 1036 1062 862 1062 c 0
 691 1062 581 952 552 921 c 1
 708 921 l 1
 670 701 l 1
 559 701 l 1
 529 533 l 17
 547 536 564 538 583 538 c 0
 721 538 813 440 813 312 c 0x7b80
519 176 m 0
 583 176 625 234 625 281 c 0
 625 321 596 354 550 354 c 0
 494 354 443 305 443 251 c 0
 443 211 470 176 519 176 c 0
EndSplineSet
EndChar

StartChar: uni0E38.low
Encoding: 63256 63256 265
Width: 0
VWidth: 2045
Flags: W
HStem: -1105 133<-782.461 -691.357> -794 134<-765.381 -611.143>
VStem: -928 139<-964.941 -817.947> -606 138<-946.579 -799.566>
LayerCount: 2
Back
SplineSet
-778 -852 m 0
 -778 -803 -754 -657 -594 -657 c 0
 -539 -657 -464 -677 -464 -800 c 0
 -464 -821 -466 -845 -471 -872 c 2
 -512 -1108 l 1
 -643 -1108 l 1
 -612 -932 l 1
 -624 -943 -636 -948 -647 -948 c 0
 -730 -948 -778 -920 -778 -852 c 0
-645 -882 m 0
 -593 -882 -580 -818 -580 -785 c 0
 -580 -745 -602 -736 -619 -736 c 0
 -689 -736 -700 -801 -700 -830 c 0
 -700 -865 -682 -882 -645 -882 c 0
EndSplineSet
Fore
Refer: 179 3640 N 1 0 0 1 -259 -573 2
EndChar

StartChar: uni0E39.low
Encoding: 63257 63257 266
Width: 0
VWidth: 2045
Flags: W
HStem: -1351 156<-910 -747> -1108 133<-1166.43 -1075.05> -797 134<-1151.87 -994.917>
VStem: -1310 138<-967.448 -819.901> -990 138<-952.282 -804.132>
DStem2: -774.507 -1351 -595 -1351 0.173648 0.984808<158.407 700.617>
LayerCount: 2
Back
SplineSet
-1054 -845 m 0
 -1054 -756 -981 -657 -872 -657 c 0
 -792 -657 -740 -691 -740 -794 c 0
 -740 -817 -743 -843 -748 -872 c 2
 -772 -1008 l 1
 -629 -1008 l 1
 -569 -670 l 1
 -435 -670 l 1
 -512 -1108 l 1
 -920 -1108 l 1
 -889 -932 l 1
 -905 -949 -927 -949 -959 -949 c 0
 -1016 -949 -1054 -906 -1054 -845 c 0
-932 -881 m 0
 -873 -881 -858 -817 -858 -782 c 0
 -858 -756 -867 -736 -898 -736 c 0
 -940 -736 -977 -775 -977 -833 c 0
 -977 -865 -962 -881 -932 -881 c 0
EndSplineSet
Fore
Refer: 180 3641 N 1 0 0 1 -307 -576 2
EndChar

StartChar: uni0E3A.low
Encoding: 63258 63258 267
Width: 0
VWidth: 2045
Flags: W
HStem: -1013 356<-747.693 -554.328>
VStem: -833 366<-923.719 -741.932>
LayerCount: 2
Back
SplineSet
-679 -794 m 0
 -679 -701 -596 -633 -520 -633 c 0
 -445 -633 -407 -694 -407 -749 c 0
 -407 -834 -497 -902 -567 -902 c 0
 -628 -902 -679 -859 -679 -794 c 0
EndSplineSet
Fore
Refer: 181 3642 N 1 0 0 1 -233 -575 2
EndChar

StartChar: uniF71B
Encoding: 63259 63259 268
Width: 998
VWidth: 2045
Flags: W
HStem: 1064 20G<402.484 1020>
DStem2: 226 60 840 60 0.173648 0.984808<106.62 1039.7>
LayerCount: 2
Fore
SplineSet
1020 1084 m 1
 840 60 l 1
 226 60 l 1
 406 1084 l 1
 1020 1084 l 1
EndSplineSet
EndChar

StartChar: uniF71C
Encoding: 63260 63260 269
Width: 698
VWidth: 2045
Flags: W
HStem: -423 269
VStem: 32 426
LayerCount: 2
Fore
SplineSet
32 -423 m 1
 217 -154 l 1
 458 -154 l 1
 169 -423 l 1
 32 -423 l 1
EndSplineSet
EndChar

StartChar: uniF71D
Encoding: 63261 63261 270
Width: 798
VWidth: 2045
Flags: W
HStem: -236 211<179 223 509 574> -127 102<243 509>
VStem: 141 471
DStem2: 141 -236 223 -236 0.173648 0.984808<14.2392 125.056>
LayerCount: 2
Fore
SplineSet
574 -236 m 1xa0
 489 -236 l 1xa0
 509 -127 l 1
 243 -127 l 1x60
 223 -236 l 1
 141 -236 l 1
 179 -25 l 1xa0
 612 -25 l 1x60
 574 -236 l 1xa0
EndSplineSet
EndChar

StartChar: zerowidthnonjoiner
Encoding: 8204 8204 271
Width: 0
Flags: W
LayerCount: 2
Back
SplineSet
263.285 1289 m 1
 -12.4902 -275 l 1
 -84.4902 -275 l 1
 191.285 1289 l 1
 263.285 1289 l 1
EndSplineSet
EndChar

StartChar: ff
Encoding: 64256 64256 279
Width: 1024
Flags: W
HStem: 0 21G<157 380.527 726 949.527> 862 200<206 309 564 878 1133 1257> 1315 200<654.43 970.277 1207.49 1440.56>
DStem2: 157 0 377 0 0.173648 0.984808<38.2026 875.299 1116.54 1329.4> 726 0 946 0 0.173648 0.984808<38.2026 875.299 1116.54 1327.51>
LayerCount: 2
Fore
SplineSet
577 1132 m 2
 564 1062 l 1
 913 1062 l 1
 933 1175 l 2
 942 1226 955 1270 973 1307 c 1
 934 1314 901 1315 886 1315 c 3
 670 1315 602 1271 577 1132 c 2
1120 1470 m 1
 1180 1503 1243 1515 1298 1515 c 3
 1365 1515 1423 1506 1471 1488 c 1
 1436 1288 l 1
 1379 1307 1360 1315 1325 1315 c 3
 1239 1315 1171 1271 1146 1132 c 2
 1133 1062 l 1
 1292 1062 l 1
 1257 862 l 1
 1098 862 l 1
 946 0 l 1
 726 0 l 1
 878 862 l 1
 529 862 l 1
 377 0 l 1
 157 0 l 1
 309 862 l 1
 171 862 l 1
 206 1062 l 1
 344 1062 l 1
 364 1175 l 2
 412 1447 597 1515 859 1515 c 3
 915 1515 1047 1509 1120 1470 c 1
EndSplineSet
LCarets2: 1 0 
Ligature2: "'liga' Standard Ligatures lookup 0" f f
EndChar

StartChar: fi
Encoding: 64257 64257 280
Width: 1024
Flags: W
HStem: 0 21G<157 380.527 685 908.522> 862 200<206 309 564 837> 1315 200<654.43 1081.81>
DStem2: 157 0 377 0 0.173648 0.984808<38.2026 875.299 1116.54 1329.4> 685 0 905 0 0.173648 0.984808<38.2026 875.299>
LayerCount: 2
Fore
SplineSet
886 1315 m 3
 670 1315 602 1271 577 1132 c 2
 564 1062 l 1
 1092 1062 l 1
 905 0 l 1
 685 0 l 1
 837 862 l 1
 529 862 l 1
 377 0 l 1
 157 0 l 1
 309 862 l 1
 171 862 l 1
 206 1062 l 1
 344 1062 l 1
 364 1175 l 2
 412 1447 597 1515 859 1515 c 3
 926 1515 1102 1506 1155 1443 c 1
 1120 1243 l 1
 1058 1307 921 1315 886 1315 c 3
EndSplineSet
LCarets2: 1 0 
Ligature2: "'liga' Standard Ligatures lookup 0" f i
EndChar

StartChar: fl
Encoding: 64258 64258 281
Width: 1024
Flags: W
HStem: 0 21G<157 380.527 681 904.52> 862 200<206 309 564 688> 1315 200<657.973 911.097>
DStem2: 157 0 377 0 0.173648 0.984808<38.2026 875.299 1116.54 1320.44> 681 0 901 0 0.173648 0.984808<38.2026 1332.18>
LayerCount: 2
Fore
SplineSet
577 1132 m 2
 564 1062 l 1
 723 1062 l 1
 688 862 l 1
 529 862 l 1
 377 0 l 1
 157 0 l 1
 309 862 l 1
 171 862 l 1
 206 1062 l 1
 344 1062 l 1
 364 1175 l 2
 412 1447 597 1515 859 1515 c 3
 926 1515 1102 1506 1159 1466 c 1
 901 0 l 1
 681 0 l 1
 912 1312 l 1
 886 1314 864 1315 842 1315 c 3
 673 1315 599 1254 577 1132 c 2
EndSplineSet
LCarets2: 1 0 
Ligature2: "'liga' Standard Ligatures lookup 0" f l
EndChar

StartChar: ffi
Encoding: 64259 64259 282
Width: 1593
Flags: W
HStem: 0 21G<157 380.527 726 949.527 1254 1477.52> 862 200<206 309 564 878 1133 1406> 1315 200<654.43 971.35 1220.73 1650.81>
DStem2: 157 0 377 0 0.173648 0.984808<38.2026 875.299 1116.54 1329.4> 726 0 946 0 0.173648 0.984808<38.2026 875.299 1116.54 1328.18> 1254 0 1474 0 0.173648 0.984808<38.2026 875.299>
LayerCount: 2
Fore
SplineSet
577 1132 m 2
 564 1062 l 1
 913 1062 l 1
 933 1175 l 2
 942 1226 955 1270 973 1307 c 1
 934 1314 901 1315 886 1315 c 3
 670 1315 602 1271 577 1132 c 2
1131 1464 m 1
 1212 1502 1312 1515 1428 1515 c 3
 1495 1515 1671 1506 1724 1443 c 1
 1689 1243 l 1
 1627 1307 1490 1315 1455 1315 c 3
 1239 1315 1171 1271 1146 1132 c 2
 1133 1062 l 1
 1661 1062 l 1
 1474 0 l 1
 1254 0 l 1
 1406 862 l 1
 1098 862 l 1
 946 0 l 1
 726 0 l 1
 878 862 l 1
 529 862 l 1
 377 0 l 1
 157 0 l 1
 309 862 l 1
 171 862 l 1
 206 1062 l 1
 344 1062 l 1
 364 1175 l 2
 412 1447 597 1515 859 1515 c 3
 918 1515 1061 1509 1131 1464 c 1
EndSplineSet
LCarets2: 2 0 0 
Ligature2: "'liga' Standard Ligatures lookup 0" ff i
Ligature2: "'liga' Standard Ligatures lookup 0" f f i
EndChar

StartChar: ffl
Encoding: 64260 64260 283
Width: 1593
Flags: W
HStem: 0 21G<157 380.527 726 949.527 1250 1473.52> 862 200<206 309 564 878 1133 1257> 1315 200<654.43 971.35 1226.48 1480.1>
DStem2: 157 0 377 0 0.173648 0.984808<38.2026 875.299 1116.54 1329.4> 726 0 946 0 0.173648 0.984808<38.2026 875.299 1116.54 1325.51> 1250 0 1470 0 0.173648 0.984808<38.2026 1332.18>
LayerCount: 2
Fore
SplineSet
1146 1132 m 2
 1133 1062 l 1
 1292 1062 l 1
 1257 862 l 1
 1098 862 l 1
 946 0 l 1
 726 0 l 1
 878 862 l 1
 529 862 l 1
 377 0 l 1
 157 0 l 1
 309 862 l 1
 171 862 l 1
 206 1062 l 1
 344 1062 l 1
 364 1175 l 2
 412 1447 597 1515 859 1515 c 3
 918 1515 1061 1509 1131 1464 c 1
 1212 1502 1312 1515 1428 1515 c 3
 1495 1515 1671 1506 1728 1466 c 1
 1470 0 l 1
 1250 0 l 1
 1481 1312 l 1
 1455 1314 1433 1315 1411 1315 c 3
 1242 1315 1168 1254 1146 1132 c 2
973 1307 m 1
 934 1314 901 1315 886 1315 c 3
 670 1315 602 1271 577 1132 c 2
 564 1062 l 1
 913 1062 l 1
 933 1175 l 2
 942 1226 955 1270 973 1307 c 1
EndSplineSet
LCarets2: 2 0 0 
Ligature2: "'liga' Standard Ligatures lookup 0" ff l
Ligature2: "'liga' Standard Ligatures lookup 0" f f l
EndChar

StartChar: dotlessi
Encoding: 305 305 284
Width: 455
Flags: W
HStem: 0 21G<106 349.522> 1042 20G<289.478 533>
VStem: 106 427
DStem2: 106 0 346 0 0.173648 0.984808<41.6756 1078.34>
LayerCount: 2
Fore
SplineSet
106 0 m 1
 293 1062 l 1
 533 1062 l 1
 346 0 l 1
 106 0 l 1
EndSplineSet
EndChar

StartChar: dotlessj
Encoding: 567 567 285
Width: 455
Flags: W
HStem: -428 215<-133.025 45.217> 1042 20G<295.47 527>
DStem2: 36.0586 -428 264.759 -428 0.173648 0.984808<243.815 1513.02>
LayerCount: 2
Fore
SplineSet
330 -58 m 2
 281 -336 155 -428 -10 -428 c 0
 -67 -428 -120 -423 -167 -412 c 1
 -130 -205 l 1
 -96 -210 -76 -213 -67 -213 c 0
 18 -213 81 -176 108 -20 c 2
 299 1062 l 1
 527 1062 l 1
 330 -58 l 2
EndSplineSet
EndChar

StartChar: AE
Encoding: 198 198 286
Width: 1951
Flags: W
HStem: 0 220<1164 1807> 443 220<716 971> 626 220<1297 1764> 1230 220<1100 1138 1378 2068>
DStem2: -2 0 273 0 0.556022 0.831167<152.906 687.364 950.288 1635.07> 877 0 1164 220 0.207573 0.978219<274.782 452.863 677.827 689.79 914.755 1257.39>
LayerCount: 2
Fore
SplineSet
968 1450 m 1xd0
 2115 1450 l 1
 2068 1230 l 1
 1378 1230 l 1
 1297 846 l 1
 1811 846 l 1
 1764 626 l 1
 1250 626 l 1xb0
 1164 220 l 1
 1854 220 l 1
 1807 0 l 1
 877 0 l 1
 971 443 l 1
 572 443 l 1
 273 0 l 1
 -2 0 l 1
 968 1450 l 1xd0
1138 1230 m 1
 1100 1230 l 1
 716 663 l 1
 1018 663 l 1xd0
 1138 1230 l 1
EndSplineSet
EndChar

StartChar: ae
Encoding: 230 230 287
Width: 1839
Flags: W
HStem: -13 200<380.555 700.257 1175.53 1500.85> 475 200<1150 1674> 895 200<584.596 899.139 1293.21 1616.04>
VStem: 128 229<216.354 378.814> 1674 215<676.056 841.117>
LayerCount: 2
Fore
SplineSet
1672 675 m 1
 1674 689 1674 702 1674 715 c 3
 1674 832 1607 895 1462 895 c 3
 1305 895 1184 795 1150 675 c 1
 1672 675 l 1
1889 708 m 3
 1889 636 1873 542 1854 475 c 1
 1102 475 l 1
 1099 455 1098 436 1098 417 c 3
 1098 284 1170 187 1322 187 c 3
 1515 187 1574 293 1591 333 c 1
 1819 333 l 1
 1731 118 1536 -13 1278 -13 c 3
 1097 -13 977 46 915 155 c 1
 793 49 622 -13 434 -13 c 3
 194 -13 128 110 128 223 c 3
 128 469 350 599 627 633 c 0
 738 646 837 666 924 695 c 1
 928 717 930 737 930 755 c 3
 930 853 874 895 748 895 c 3
 612 895 516 818 475 738 c 1
 268 768 l 1
 362 991 537 1095 817 1095 c 3
 987 1095 1096 1067 1140 972 c 1
 1239 1051 1362 1095 1504 1095 c 3
 1755 1095 1889 948 1889 708 c 3
357 286 m 3
 357 208 458 187 527 187 c 3
 715 187 830 262 869 444 c 2
 880 495 l 1
 648 416 357 469 357 286 c 3
EndSplineSet
EndChar

StartChar: OE
Encoding: 338 338 288
Width: 2158
Flags: W
HStem: -13 220<608.027 936.263 1371 2014> 626 220<1504 1971> 1230 220<1585 2275> 1262 220<813.156 1129.94>
VStem: 235 242<349.702 823.394>
LayerCount: 2
Fore
SplineSet
985 1262 m 3xd8
 682 1262 477 906 477 553 c 3
 477 336 591 207 758 207 c 3
 1076 207 1259 581 1259 910 c 3
 1259 1129 1153 1262 985 1262 c 3xd8
711 -13 m 3
 427 -13 235 198 235 520 c 3
 235 1085 643 1482 1030 1482 c 3xd8
 1171 1482 1288 1433 1370 1344 c 1
 1392 1450 l 1
 2322 1450 l 1
 2275 1230 l 1
 1585 1230 l 1xe8
 1504 846 l 1
 2018 846 l 1
 1971 626 l 1
 1457 626 l 1
 1371 219 l 1
 2061 219 l 1
 2014 0 l 1
 1084 0 l 1
 1110 124 l 1
 990 36 854 -13 711 -13 c 3
EndSplineSet
EndChar

StartChar: oe
Encoding: 339 339 289
Width: 1890
Flags: W
HStem: -13 200<457.187 771.802 1243.97 1568.85> 475 200<1218 1742> 895 200<590.488 906.557 1359.77 1684.04>
VStem: 163 223<255.151 648.457> 1742 215<676.056 841.117>
LayerCount: 2
Fore
SplineSet
756 895 m 3
 498 895 386 652 386 404 c 3
 386 281 439 187 606 187 c 3
 864 187 975 431 975 679 c 3
 975 801 923 895 756 895 c 3
1957 708 m 3
 1957 636 1941 542 1922 475 c 1
 1170 475 l 1
 1167 455 1166 436 1166 417 c 3
 1166 284 1238 187 1390 187 c 3
 1583 187 1642 293 1659 333 c 1
 1887 333 l 1
 1799 118 1604 -13 1346 -13 c 3
 1167 -13 1046 45 984 152 c 1
 877 44 735 -13 563 -13 c 3
 300 -13 163 120 163 363 c 3
 163 809 439 1095 799 1095 c 3
 975 1095 1094 1035 1154 923 c 1
 1261 1032 1403 1095 1572 1095 c 3
 1823 1095 1957 948 1957 708 c 3
1740 675 m 1
 1742 689 1742 702 1742 715 c 3
 1742 832 1675 895 1530 895 c 3
 1373 895 1252 795 1218 675 c 1
 1740 675 l 1
EndSplineSet
EndChar

StartChar: germandbls
Encoding: 223 223 290
Width: 1238
Flags: W
HStem: -13 220<696.972 946.622> 1262 220<703.232 950.873>
VStem: 961 249<1086.72 1327.75> 977 247<238.856 430.605>
DStem2: 156 0 396 0 0.207504 0.978234<49.801 1288.97>
LayerCount: 2
Fore
SplineSet
838 1262 m 3xe0
 699 1262 649 1191 599 957 c 2
 396 0 l 1
 156 0 l 1
 359 957 l 2
 432 1300 569 1482 888 1482 c 3
 1074 1482 1210 1405 1210 1247 c 3xe0
 1210 1038 1000 926 1000 830 c 3
 1000 729 1224 582 1224 382 c 3
 1224 128 1011 -13 815 -13 c 3
 669 -13 573 33 529 161 c 1
 752 290 l 1
 769 237 797 207 838 207 c 3
 922 207 977 255 977 328 c 3xd0
 977 437 745 611 745 756 c 3
 745 896 961 1053 961 1186 c 3
 961 1237 923 1262 838 1262 c 3xe0
EndSplineSet
EndChar

StartChar: guillemotright
Encoding: 187 187 291
Width: 1174
Flags: W
DStem2: 155 386 115 156 0.800963 0.598713<0 443.6> 289 1148 249 918 0.703914 -0.710285<135.209 507.866> 581 365 539 127 0.797241 0.603662<0 471.419> 725 1177 683 939 0.695624 -0.718406<141.764 537.157>
LayerCount: 2
Fore
SplineSet
115 156 m 1
 155 386 l 1
 510 652 l 1
 249 918 l 1
 289 1148 l 1
 731 702 l 1
 713 603 l 1
 115 156 l 1
539 127 m 1
 581 365 l 1
 955 652 l 1
 683 939 l 1
 725 1177 l 1
 1183 704 l 1
 1165 601 l 1
 539 127 l 1
EndSplineSet
EndChar

StartChar: questiondown
Encoding: 191 191 292
Width: 1139
Flags: W
HStem: 0 220<466.198 734.972> 1269 235<751 975>
VStem: 169 244<272.056 512.787>
DStem2: 494.458 0 734.458 0 0.173648 0.984808<962.922 1160.63 1333.17 1525.7>
LayerCount: 2
Fore
SplineSet
561 0 m 3
 325 0 169 125 169 327 c 3
 169 460 195 552 384 722 c 0
 503 828 649 924 696 1143 c 1
 936 1143 l 1
 882 889 760 790 645 701 c 0
 447 547 413 455 413 373 c 3
 413 253 538 220 605 220 c 3
 732 220 875 371 893 458 c 1
 1133 458 l 1
 1079 204 833 0 561 0 c 3
1025 1504 m 1
 975 1269 l 1
 701 1269 l 1
 751 1504 l 1
 1025 1504 l 1
EndSplineSet
EndChar

StartChar: trademark
Encoding: 8482 8482 293
Width: 1820
Flags: W
HStem: 1250 200<356 554 774 1015>
DStem2: 417 605 637 605 0.173648 0.984808<38.2026 658.991> 975 605 1195 605 0.207236 0.978291<45.5918 334.882>
LayerCount: 2
Fore
SplineSet
1460 605 m 1
 1308 605 l 1
 1255 888 l 1
 1195 605 l 1
 975 605 l 1
 1154 1450 l 1
 1359 1450 l 1
 1453 930 l 1
 1767 1450 l 1
 1972 1450 l 1
 1793 605 l 1
 1573 605 l 1
 1633 888 l 1
 1460 605 l 1
417 605 m 1
 554 1250 l 1
 314 1250 l 1
 356 1450 l 1
 1057 1450 l 1
 1015 1250 l 1
 774 1250 l 1
 637 605 l 1
 417 605 l 1
EndSplineSet
EndChar

StartChar: uni00B9
Encoding: 185 185 294
Width: 1010
VWidth: 2614
Flags: W
VStem: 438 482
DStem2: 527 534 747 534 0.173648 0.984808<38.2026 614.389 848.792 994.399>
LayerCount: 2
Fore
SplineSet
477 1271 m 1
 602 1325 647 1373 707 1512 c 1
 920 1512 l 1
 747 534 l 1
 527 534 l 1
 634 1139 l 1
 541 1071 511 1066 438 1049 c 1
 477 1271 l 1
EndSplineSet
EndChar

StartChar: ordmasculine
Encoding: 186 186 295
Width: 1010
Flags: W
HStem: 735 200<588.734 765.71> 1282 200<639.233 808.257>
VStem: 347 223<950.644 1209.43> 829 224<1004.63 1264.34>
LayerCount: 2
Fore
SplineSet
636 735 m 3
 441 735 347 856 347 1020 c 3
 347 1295 536 1482 767 1482 c 3
 937 1482 1053 1383 1053 1197 c 3
 1053 969 935 735 636 735 c 3
729 1282 m 3
 639 1282 570 1180 570 1049 c 3
 570 975 604 935 668 935 c 3
 759 935 829 1026 829 1158 c 3
 829 1235 794 1282 729 1282 c 3
EndSplineSet
EndChar

StartChar: onequarter
Encoding: 188 188 296
Width: 1691
VWidth: 2007
Flags: W
HStem: 130 200<1298 1384 1639 1714>
DStem2: 222.264 -85 442.264 -85 0.173648 0.984808<658.628 1234.64 1469.14 1614.65> 267 -85 499 -85 0.595215 0.803566<138.09 1977.44> 1039 308 1298 330 0.639804 0.768538<182.617 427.809> 1345.88 -85 1565.88 -85 0.173648 0.984808<50.3877 218.352 459.594 614.409>
LayerCount: 2
Fore
SplineSet
1348 -73 m 1
 1384 130 l 1
 1008 130 l 1
 1039 308 l 1
 1536 905 l 1
 1741 905 l 1
 1639 330 l 1
 1749 330 l 1
 1714 130 l 1
 1604 130 l 1
 1568 -73 l 1
 1348 -73 l 1
1419 330 m 1
 1453 520 l 1
 1298 330 l 1
 1419 330 l 1
280 1263 m 1
 404 1320 449 1363 509 1504 c 1
 722 1504 l 1
 550 526 l 1
 330 526 l 1
 436 1131 l 1
 343 1063 314 1058 241 1041 c 1
 280 1263 l 1
499 -85 m 1
 267 -85 l 1
 1444 1504 l 1
 1676 1504 l 1
 499 -85 l 1
EndSplineSet
EndChar

StartChar: onehalf
Encoding: 189 189 297
Width: 1691
VWidth: 2007
Flags: W
HStem: -73 200<1327 1661> 711 200<1388.06 1557.19>
VStem: 1131 220<572 671.445> 1566 222<538.852 700.417>
DStem2: 234 -85 466 -85 0.595215 0.803566<138.09 1977.44>
LayerCount: 2
Fore
SplineSet
1518 911 m 3
 1684 911 1788 818 1788 680 c 3
 1788 413 1472 259 1327 127 c 1
 1696 127 l 1
 1661 -73 l 1
 992 -73 l 1
 1031 74 1112 187 1199 261 c 0
 1358 397 1566 518 1566 639 c 3
 1566 680 1523 711 1481 711 c 3
 1401 711 1369 659 1351 572 c 1
 1131 572 l 1
 1167 778 1304 911 1518 911 c 3
280 1263 m 1
 405 1317 449 1365 509 1504 c 1
 722 1504 l 1
 550 526 l 1
 330 526 l 1
 436 1131 l 1
 343 1063 314 1058 241 1041 c 1
 280 1263 l 1
466 -85 m 1
 234 -85 l 1
 1411 1504 l 1
 1643 1504 l 1
 466 -85 l 1
EndSplineSet
EndChar

StartChar: threequarters
Encoding: 190 190 298
Width: 1691
VWidth: 2007
Flags: W
HStem: 130 200<1298 1384 1639 1714> 514 200<400.079 568.123> 932 200<433 588.556> 1304 200<484.738 622.456>
VStem: 155 227<723.445 849> 233 220<1184 1275.59> 600 226<746.953 916.358> 627 223<1155.19 1298.03>
DStem2: 266 -85 499 -85 0.595215 0.803566<138.685 1977.44> 1039 308 1298 330 0.639804 0.768538<182.617 427.809> 1345.88 -85 1565.88 -85 0.173648 0.984808<50.3877 218.352 459.594 614.409>
LayerCount: 2
Fore
SplineSet
850 1284 m 3xf5
 850 1183 811 1099 756 1054 c 1
 806 1024 826 971 826 906 c 3
 826 673 637 514 425 514 c 3
 259 514 155 613 155 774 c 3
 155 798 157 823 162 849 c 1
 382 849 l 1
 382 771 405 714 460 714 c 3
 544 714 600 771 600 845 c 3xfa
 600 895 560 932 489 932 c 0
 455 932 423 922 395 914 c 1
 433 1132 l 1
 567 1132 627 1152 627 1243 c 3
 627 1270 590 1304 564 1304 c 3
 502 1304 474 1259 453 1184 c 1
 233 1184 l 1
 266 1372 404 1504 595 1504 c 3
 742 1504 850 1419 850 1284 c 3xf5
499 -85 m 1
 266 -85 l 1
 1443 1504 l 1
 1674 1504 l 1
 499 -85 l 1
1348 -73 m 1
 1384 130 l 1
 1008 130 l 1
 1039 308 l 1
 1536 905 l 1
 1741 905 l 1
 1639 330 l 1
 1749 330 l 1
 1714 130 l 1
 1604 130 l 1
 1568 -73 l 1
 1348 -73 l 1
1419 330 m 1
 1453 520 l 1
 1298 330 l 1
 1419 330 l 1
EndSplineSet
EndChar

StartChar: circumflex
Encoding: 710 710 305
Width: 674
Flags: W
HStem: 1186 296<402 472>
VStem: 213 672
LayerCount: 2
Fore
SplineSet
213 1186 m 1
 472 1482 l 1
 730 1482 l 1
 885 1186 l 1
 660 1186 l 1
 573 1336 l 1
 436 1186 l 1
 213 1186 l 1
EndSplineSet
EndChar

StartChar: caron
Encoding: 711 711 306
Width: 674
Flags: W
HStem: 1186 296<644 712>
VStem: 265 672
LayerCount: 2
Fore
SplineSet
265 1482 m 1
 488 1482 l 1
 572 1332 l 1
 712 1482 l 1
 937 1482 l 1
 678 1186 l 1
 420 1186 l 1
 265 1482 l 1
EndSplineSet
EndChar

StartChar: ring
Encoding: 730 730 307
Width: 674
Flags: W
HStem: 1135 107<486.409 644.307> 1419 107<500.708 659.52>
VStem: 375 108<1245.44 1400.68> 662 108<1258.32 1415.09>
LayerCount: 2
Fore
SplineSet
375 1292 m 3
 375 1422 478 1526 607 1526 c 3
 706 1526 770 1456 770 1366 c 3
 770 1220 634 1135 538 1135 c 3
 443 1135 375 1196 375 1292 c 3
557 1242 m 3
 622 1242 662 1283 662 1356 c 3
 662 1398 638 1419 588 1419 c 3
 523 1419 483 1379 483 1306 c 3
 483 1264 507 1242 557 1242 c 3
EndSplineSet
EndChar

StartChar: tilde
Encoding: 732 732 308
Width: 674
Flags: W
HStem: 1197 165<566.032 779.798> 1283 165<341.314 561.329>
VStem: 199 128<1196 1272.35> 799 128<1383.41 1448>
LayerCount: 2
Fore
SplineSet
424 1448 m 3x70
 528 1448 614 1362 703 1362 c 3xb0
 750 1362 783 1391 799 1448 c 1
 927 1448 l 1x70
 898 1284 824 1197 708 1197 c 3xb0
 625 1197 488 1283 409 1283 c 3
 362 1283 337 1255 327 1196 c 1
 199 1196 l 1
 227 1356 284 1448 424 1448 c 3x70
EndSplineSet
EndChar

StartChar: Ccedilla
Encoding: 199 199 309
Width: 1479
Flags: W
HStem: -428 200<362.908 629.442> -400 206<354 504.183> -6 213<652.183 680 894.181 1015.23> 1262 220<806.596 1202.22>
VStem: 215 248<409.561 863.868> 1318 240<1050 1152.36>
LayerCount: 2
Back
SplineSet
824 207 m 3
 1003 207 1197 328 1243 480 c 1
 1483 480 l 1
 1363 201 1142 -13 789 -13 c 3
 418 -13 215 198 215 551 c 3
 215 1101 589 1482 1055 1482 c 3
 1361 1482 1533 1304 1558 1050 c 1
 1318 1050 l 1
 1299 1182 1188 1262 1013 1262 c 3
 703 1262 463 995 463 621 c 3
 463 377 601 207 824 207 c 3
382 -194 m 1x60
 422 -214 467 -228 515 -228 c 3
 601 -228 650 -190 667 -96 c 0
 675 -51 675 -40 687 47 c 1
 905 47 l 1
 902 11 896 -44 890 -78 c 0
 841 -354 637 -428 506 -428 c 3xa0
 468 -428 381 -420 317 -400 c 1
 354 -194 l 1
 382 -194 l 1x60
EndSplineSet
Fore
SplineSet
382 -194 m 1x7c
 422 -214 467 -228 515 -228 c 3
 601 -228 650 -190 667 -96 c 0
 673 -62 675 -47 680 -6 c 1
 379 32 215 234 215 551 c 3
 215 1101 589 1482 1055 1482 c 3
 1361 1482 1533 1304 1558 1050 c 1
 1318 1050 l 1
 1299 1182 1188 1262 1013 1262 c 3
 703 1262 463 995 463 621 c 3
 463 377 601 207 824 207 c 3
 1003 207 1197 328 1243 480 c 1
 1483 480 l 1
 1376 231 1189 34 900 -6 c 1
 897 -32 893 -58 890 -78 c 0
 841 -354 637 -428 506 -428 c 3xbc
 468 -428 381 -420 317 -400 c 1
 354 -194 l 1
 382 -194 l 1x7c
EndSplineSet
EndChar

StartChar: Eth
Encoding: 208 208 318
Width: 1479
Flags: W
HStem: 0 220<447 917.21> 616 220<165 277 556 827> 1230 220<625 1100.43>
VStem: 1282 248<603.275 1056.22>
DStem2: 168 0 408.208 0 0.173648 0.984808<265.106 625.569 890.675 1290.67>
LayerCount: 2
Back
SplineSet
697 0 m 2
 168 0 l 1
 424 1450 l 1
 929 1450 l 2
 1388 1450 1530 1236 1530 946 c 3
 1530 261 1083 0 697 0 c 2
714 220 m 2
 1037 220 1282 481 1282 865 c 3
 1282 1100 1143 1230 887 1230 c 2
 625 1230 l 1
 447 220 l 1
 714 220 l 2
127 616 m 25
 165 836 l 25
 865 836 l 25
 827 616 l 25
 127 616 l 25
EndSplineSet
Fore
SplineSet
127 616 m 1
 165 836 l 1
 316 836 l 1
 424 1450 l 1
 929 1450 l 2
 1388 1450 1530 1236 1530 946 c 3
 1530 261 1083 0 697 0 c 2
 168 0 l 1
 277 616 l 1
 127 616 l 1
714 220 m 2
 1037 220 1282 481 1282 865 c 3
 1282 1100 1143 1230 887 1230 c 2
 625 1230 l 1
 556 836 l 1
 865 836 l 1
 827 616 l 1
 517 616 l 1
 447 220 l 1
 714 220 l 2
EndSplineSet
EndChar

StartChar: multiply
Encoding: 215 215 325
Width: 1184
Flags: W
DStem2: 188 410 328 240 0.761817 0.647792<0 469.77 736.376 1206.15> 497 1194 296 1023 0.635327 -0.772243<4.35274 397.181 622.396 1015.22>
LayerCount: 2
Fore
SplineSet
296 1023 m 1
 497 1194 l 1
 749 887 l 1
 1110 1194 l 1
 1250 1023 l 1
 889 717 l 1
 1142 410 l 1
 941 240 l 1
 689 546 l 1
 328 240 l 1
 188 410 l 1
 548 717 l 1
 296 1023 l 1
EndSplineSet
EndChar

StartChar: Oslash
Encoding: 216 216 326
Width: 1593
Flags: W
HStem: -13 220<627.922 1054.12> 1262 220<803.274 1228.52>
VStem: 215 242<420.622 867.129> 1399 243<603.627 1025.72>
DStem2: 78 41 197 -81 0.729767 0.683696<3.43137 292.311 553.263 1624.96 1904.24 2170.56>
LayerCount: 2
Back
SplineSet
798 -13 m 3
 429 -13 215 213 215 554 c 3
 215 1114 591 1482 1062 1482 c 3
 1434 1482 1642 1262 1642 912 c 3
 1642 366 1279 -13 798 -13 c 3
1026 1262 m 3
 630 1262 457 933 457 577 c 3
 457 346 585 207 836 207 c 3
 1243 207 1399 548 1399 880 c 3
 1399 1116 1277 1262 1026 1262 c 3
78 41 m 25
 1662 1525 l 25
 1780 1403 l 25
 197 -81 l 25
 78 41 l 25
EndSplineSet
Fore
SplineSet
1026 1262 m 3
 630 1262 457 933 457 577 c 3
 457 518 466 465 482 419 c 1
 1290 1176 l 1
 1229 1231 1141 1262 1026 1262 c 3
1380 1028 m 1
 582 280 l 1
 644 233 729 207 836 207 c 3
 1243 207 1399 548 1399 880 c 3
 1399 934 1393 984 1380 1028 c 1
1472 1347 m 1
 1662 1525 l 1
 1780 1403 l 1
 1576 1212 l 1
 1619 1128 1642 1027 1642 912 c 3
 1642 366 1279 -13 798 -13 c 3
 634 -13 500 32 402 112 c 1
 197 -81 l 1
 78 41 l 1
 292 241 l 1
 242 328 215 434 215 554 c 3
 215 1114 591 1482 1062 1482 c 3
 1236 1482 1374 1434 1472 1347 c 1
EndSplineSet
EndChar

StartChar: Thorn
Encoding: 222 222 332
Width: 1366
Flags: W
HStem: 0 21G<158 401.517> 290 220<488 1032.34> 940 220<608 1101.12> 1430 20G<410.469 659>
VStem: 1170 247<628.883 876.223>
DStem2: 158 0 398 0 0.173648 0.984808<41.6756 336.126 559.556 996.22 1220.52 1472.43>
LayerCount: 2
Fore
SplineSet
779 290 m 2
 449 290 l 1
 398 0 l 1
 158 0 l 1
 414 1450 l 1
 659 1450 l 1
 608 1160 l 1
 916 1160 l 2
 1290 1160 1417 1035 1417 839 c 3
 1417 414 1078 290 779 290 c 2
1170 774 m 3
 1170 905 1045 940 853 940 c 2
 564 940 l 1
 488 510 l 1
 781 510 l 2
 1060 510 1170 606 1170 774 c 3
EndSplineSet
EndChar

StartChar: ccedilla
Encoding: 231 231 339
Width: 1024
Flags: W
HStem: -428 200<121.908 388.442> -400 206<113 263.183> 895 200<574.447 852.127>
VStem: 161 223<269.369 658.953> 856 220<294.528 403> 911 222<696 840.391>
LayerCount: 2
Back
SplineSet
594 187 m 3xe8
 734 187 827 256 856 403 c 1
 1076 403 l 1xf0
 1005 62 738 -13 561 -13 c 3
 310 -13 161 146 161 399 c 3
 161 787 414 1095 757 1095 c 3
 989 1095 1133 964 1133 771 c 3
 1133 747 1131 722 1126 696 c 1
 908 696 l 1
 910 707 911 718 911 728 c 3
 911 828 830 895 729 895 c 3
 490 895 384 644 384 432 c 3
 384 286 451 187 594 187 c 3xe8
140.793 -194 m 1x7e
 181.266 -214 225.798 -228 273.798 -228 c 3
 359.798 -228 409.498 -190 426.072 -96 c 0
 434.008 -51 433.947 -40 446.287 47 c 1
 664.287 47 l 1
 660.939 11 655.241 -44 649.246 -78 c 0
 600.58 -354 395.532 -428 264.532 -428 c 3xbe
 226.532 -428 140.942 -420 76.4688 -400 c 1
 112.793 -194 l 1
 140.793 -194 l 1x7e
EndSplineSet
Fore
SplineSet
141 -194 m 1x78
 181 -214 226 -228 274 -228 c 3
 360 -228 409 -190 426 -96 c 0
 432 -61 434 -46 440 1 c 1
 263 45 161 190 161 399 c 3
 161 787 414 1095 757 1095 c 3
 989 1095 1133 964 1133 771 c 3
 1133 747 1131 722 1126 696 c 1
 908 696 l 1
 910 707 911 718 911 728 c 3xb4
 911 828 830 895 729 895 c 3
 490 895 384 644 384 432 c 3
 384 286 451 187 594 187 c 3
 734 187 827 256 856 403 c 1
 1076 403 l 1
 1017 121 824 21 659 -5 c 1
 656 -31 652 -58 649 -78 c 0
 600 -354 396 -428 265 -428 c 3xb8
 227 -428 140 -420 76 -400 c 1
 113 -194 l 1
 141 -194 l 1x78
EndSplineSet
EndChar

